SplineFontDB: 3.0
FontName: BZIson
FullName: BZ Ison
FamilyName: BZ Ison
Weight: Book
Version: 0.00 March 30, 2006
ItalicAngle: 0
UnderlinePosition: 0
UnderlineWidth: 0
Ascent: 1638
Descent: 410
sfntRevision: 0x00000000
LayerCount: 2
Layer: 0 1 "Back"  1
Layer: 1 1 "Fore"  0
XUID: [1021 761 1329040319 9983188]
FSType: 0
OS2Version: 0
OS2_WeightWidthSlopeOnly: 0
OS2_UseTypoMetrics: 1
CreationTime: -2082844800
ModificationTime: 1148306923
PfmFamily: 17
TTFWeight: 400
TTFWidth: 5
LineGap: 0
VLineGap: 0
Panose: 2 11 6 3 5 3 2 2 2 4
OS2TypoAscent: 2967
OS2TypoAOffset: 1
OS2TypoDescent: 629
OS2TypoDOffset: 1
OS2TypoLinegap: 0
OS2WinAscent: 0
OS2WinAOffset: 1
OS2WinDescent: 290
OS2WinDOffset: 1
HheadAscent: 0
HheadAOffset: 1
HheadDescent: -290
HheadDOffset: 1
OS2SubXSize: 0
OS2SubYSize: 0
OS2SubXOff: 0
OS2SubYOff: 0
OS2SupXSize: 0
OS2SupYSize: 0
OS2SupXOff: 0
OS2SupYOff: 0
OS2StrikeYSize: 0
OS2StrikeYPos: 0
OS2UnicodeRanges: 00000000.00000000.00000000.00000000
DEI: 91125
ShortTable: maxp 16
  1
  0
  97
  279
  9
  0
  0
  1
  0
  16
  0
  0
  0
  0
  0
  0
EndShort
LangName: 1033 "" "" "Regular" "BZ Ison:Version 0.00" "" "Version 0.00 March 30, 2006" 
Encoding: UnicodeFull
UnicodeInterp: none
NameList: Adobe Glyph List
DisplaySize: -96
AntiAlias: 1
FitToEm: 1
WinInfo: 64 8 2
BeginChars: 1114112 97

StartChar: .notdef
Encoding: 711 711 0
AltUni2: 0002db.ffffffff.0 0002dd.ffffffff.0 0000b8.ffffffff.0 0002da.ffffffff.0 0002d9.ffffffff.0 0002d8.ffffffff.0 0000af.ffffffff.0 0002dc.ffffffff.0 0002c6.ffffffff.0 000131.ffffffff.0 0000d9.ffffffff.0 0000db.ffffffff.0 0000da.ffffffff.0 0000d2.ffffffff.0 00e01e.ffffffff.0 0000d4.ffffffff.0 0000d3.ffffffff.0 0000cc.ffffffff.0 0000cf.ffffffff.0 0000ce.ffffffff.0 0000cd.ffffffff.0 0000c8.ffffffff.0 0000cb.ffffffff.0 0000c1.ffffffff.0 0000ca.ffffffff.0 0000c2.ffffffff.0 002030.ffffffff.0 00201e.ffffffff.0 00201a.ffffffff.0 0000b7.ffffffff.0 002021.ffffffff.0 00fb02.ffffffff.0 00fb01.ffffffff.0 00203a.ffffffff.0 002039.ffffffff.0 0020ac.ffffffff.0 002044.ffffffff.0 000178.ffffffff.0 0000ff.ffffffff.0 0025ca.ffffffff.0 0000f7.ffffffff.0 002019.ffffffff.0 002018.ffffffff.0 00201d.ffffffff.0 00201c.ffffffff.0 002014.ffffffff.0 002013.ffffffff.0 000153.ffffffff.0 000152.ffffffff.0 0000d5.ffffffff.0 0000c3.ffffffff.0 0000c0.ffffffff.0 002026.ffffffff.0 0000bb.ffffffff.0 0000ab.ffffffff.0 000394.ffffffff.0 002248.ffffffff.0 000192.ffffffff.0 00221a.ffffffff.0 0000ac.ffffffff.0 0000a1.ffffffff.0 0000bf.ffffffff.0 0000f8.ffffffff.0 0000e6.ffffffff.0 0003a9.ffffffff.0 0000ba.ffffffff.0 0000aa.ffffffff.0 00222b.ffffffff.0 0003c0.ffffffff.0 00220f.ffffffff.0 002211.ffffffff.0 002202.ffffffff.0 0000b5.ffffffff.0 0000a5.ffffffff.0 002265.ffffffff.0 002264.ffffffff.0 0000b1.ffffffff.0 00221e.ffffffff.0 0000d8.ffffffff.0 0000c6.ffffffff.0 002260.ffffffff.0 0000a8.ffffffff.0 0000b4.ffffffff.0 002122.ffffffff.0 0000a9.ffffffff.0 0000ae.ffffffff.0 0000df.ffffffff.0 0000b6.ffffffff.0 002022.ffffffff.0 0000a7.ffffffff.0 0000a3.ffffffff.0 0000a2.ffffffff.0 0000b0.ffffffff.0 002020.ffffffff.0 0000fc.ffffffff.0 0000fb.ffffffff.0 0000f9.ffffffff.0 0000fa.ffffffff.0 0000f5.ffffffff.0 0000f6.ffffffff.0 0000f4.ffffffff.0 0000f2.ffffffff.0 0000f3.ffffffff.0 0000f1.ffffffff.0 0000ef.ffffffff.0 0000ee.ffffffff.0 0000ec.ffffffff.0 0000ed.ffffffff.0 0000eb.ffffffff.0 0000ea.ffffffff.0 0000e8.ffffffff.0 0000e9.ffffffff.0 0000e7.ffffffff.0 0000e5.ffffffff.0 0000e3.ffffffff.0 0000e4.ffffffff.0 0000e2.ffffffff.0 0000e0.ffffffff.0 0000e1.ffffffff.0 0000dc.ffffffff.0 0000d6.ffffffff.0 0000d1.ffffffff.0 0000c9.ffffffff.0 0000c7.ffffffff.0 0000c5.ffffffff.0 0000c4.ffffffff.0 00007f.ffffffff.0 00007c.ffffffff.0 00001f.ffffffff.0 00001e.ffffffff.0 00001c.ffffffff.0 00001b.ffffffff.0 00001a.ffffffff.0 000019.ffffffff.0 000018.ffffffff.0 000017.ffffffff.0 000016.ffffffff.0 000015.ffffffff.0 000014.ffffffff.0 000013.ffffffff.0 000012.ffffffff.0 000011.ffffffff.0 000010.ffffffff.0 00000f.ffffffff.0 00000e.ffffffff.0 00000c.ffffffff.0 00000b.ffffffff.0 00000a.ffffffff.0 000007.ffffffff.0 000006.ffffffff.0 000005.ffffffff.0 000004.ffffffff.0 000003.ffffffff.0 000002.ffffffff.0 000001.ffffffff.0
Width: 0
Flags: W
LayerCount: 2
Fore
SplineSet
-1866 1970 m 0,0,1
 -1864 1970 -1864 1970 -1864 1967 c 0,2,3
 -1864 1965 -1864 1965 -1866 1965 c 0,4,5
 -1869 1965 -1869 1965 -1869 1967 c 0,6,7
 -1869 1970 -1869 1970 -1866 1970 c 0,0,1
EndSplineSet
EndChar

StartChar: exclam
Encoding: 33 33 4
Width: 2218
Flags: W
LayerCount: 2
Fore
SplineSet
2022 2239 m 0,0,1
 2095 2239 2095 2239 2095 2165 c 256,2,3
 2095 2091 2095 2091 2022 2091 c 0,4,5
 1948 2091 1948 2091 1948 2165 c 256,6,7
 1948 2239 1948 2239 2022 2239 c 0,0,1
1627 2775 m 1,8,-1
 1663 2945 l 1,9,10
 1677 3016 1677 3016 1689 3042 c 1,11,12
 1717 3109 1717 3109 1775 3103 c 0,13,14
 1844 3096 1844 3096 1808 3028 c 1,15,16
 1800 3010 1800 3010 1754 2935 c 2,17,-1
 1653 2772 l 1,18,-1
 1627 2775 l 1,8,-1
1212 2427 m 1,19,-1
 865 2426 l 1,20,-1
 804 2269 l 2,21,22
 782 2211 782 2211 782 2187 c 0,23,24
 782 2158 782 2158 801 2141 c 1,25,26
 817 2124 817 2124 885 2118 c 1,27,-1
 885 2091 l 1,28,-1
 603 2091 l 1,29,-1
 603 2118 l 1,30,31
 659 2128 659 2128 675 2147 c 1,32,33
 709 2183 709 2183 750 2292 c 2,34,-1
 1066 3116 l 1,35,-1
 1089 3116 l 1,36,-1
 1401 2282 l 2,37,38
 1437 2183 1437 2183 1469 2152 c 0,39,40
 1499 2122 1499 2122 1555 2118 c 1,41,-1
 1555 2091 l 1,42,-1
 1202 2091 l 1,43,-1
 1202 2118 l 1,44,45
 1255 2120 1255 2120 1274 2138 c 0,46,47
 1292 2156 1292 2156 1292 2189 c 0,48,49
 1292 2215 1292 2215 1266 2284 c 2,50,-1
 1212 2427 l 1,19,-1
1194 2481 m 1,51,-1
 1041 2886 l 1,52,-1
 885 2481 l 1,53,-1
 1194 2481 l 1,51,-1
EndSplineSet
EndChar

StartChar: quotedbl
Encoding: 34 34 5
Width: 0
Flags: W
LayerCount: 2
Fore
SplineSet
-1356 3558 m 1,0,-1
 -1356 3394 l 1,1,-1
 -1489 3394 l 1,2,-1
 -1489 3921 l 1,3,-1
 -1356 3921 l 1,4,-1
 -1356 3671 l 1,5,-1
 -1027 3921 l 1,6,-1
 -851 3921 l 1,7,-1
 -1151 3699 l 1,8,-1
 -791 3394 l 1,9,-1
 -968 3394 l 1,10,-1
 -1252 3626 l 1,11,-1
 -1356 3558 l 1,0,-1
-271 3561 m 1,12,-1
 -271 3619 l 1,13,14
 -181 3574 -181 3574 -145 3551.5 c 128,-1,15
 -109 3529 -109 3529 -36 3471 c 1,16,-1
 -36 4000 l 1,17,-1
 40 4000 l 1,18,-1
 40 3471 l 1,19,20
 122 3549 122 3549 275 3621 c 1,21,-1
 275 3562 l 1,22,23
 166 3464 166 3464 109 3393.5 c 128,-1,24
 52 3323 52 3323 17 3248 c 1,25,-1
 -18 3248 l 1,26,27
 -46 3313 -46 3313 -103.5 3387 c 128,-1,28
 -161 3461 -161 3461 -271 3561 c 1,12,-1
-608 3602 m 1,29,-1
 -608 3489 l 1,30,-1
 -334 3489 l 1,31,-1
 -334 3393 l 1,32,-1
 -731 3393 l 1,33,-1
 -731 3920 l 1,34,-1
 -330 3920 l 1,35,-1
 -331 3836 l 1,36,-1
 -605 3836 l 1,37,-1
 -606 3689 l 1,38,-1
 -399 3689 l 1,39,-1
 -396 3600 l 1,40,-1
 -608 3602 l 1,29,-1
EndSplineSet
EndChar

StartChar: numbersign
Encoding: 35 35 6
Width: 2288
Flags: W
LayerCount: 2
Fore
SplineSet
1478 3116 m 1,0,-1
 1485 2870 l 1,1,-1
 1460 2870 l 1,2,3
 1452 2969 1452 2969 1412 3010 c 0,4,5
 1371 3051 1371 3051 1270 3051 c 2,6,-1
 975 3051 l 1,7,-1
 975 2238 l 2,8,9
 975 2172 975 2172 1000 2146 c 1,10,11
 1024 2119 1024 2119 1082 2119 c 2,12,-1
 1119 2119 l 1,13,-1
 1119 2091 l 1,14,-1
 709 2091 l 1,15,-1
 709 2119 l 1,16,-1
 733 2119 l 2,17,18
 792 2119 792 2119 818 2146 c 1,19,20
 843 2174 843 2174 843 2236 c 2,21,-1
 843 2971 l 2,22,23
 843 3034 843 3034 818 3061 c 0,24,25
 792 3088 792 3088 733 3088 c 2,26,-1
 709 3088 l 1,27,-1
 709 3116 l 1,28,-1
 1478 3116 l 1,0,-1
2092 2239 m 0,29,30
 2165 2239 2165 2239 2165 2165 c 256,31,32
 2165 2091 2165 2091 2092 2091 c 0,33,34
 2018 2091 2018 2091 2018 2165 c 256,35,36
 2018 2239 2018 2239 2092 2239 c 0,29,30
1697 2775 m 1,37,-1
 1733 2945 l 1,38,39
 1747 3016 1747 3016 1759 3042 c 1,40,41
 1787 3109 1787 3109 1845 3103 c 0,42,43
 1914 3096 1914 3096 1878 3028 c 1,44,45
 1870 3010 1870 3010 1824 2935 c 2,46,-1
 1723 2772 l 1,47,-1
 1697 2775 l 1,37,-1
EndSplineSet
EndChar

StartChar: dollar
Encoding: 36 36 7
Width: 2178
Flags: W
LayerCount: 2
Fore
SplineSet
1272 2223 m 1,0,-1
 1016 2856 l 1,1,-1
 731 2223 l 1,2,-1
 1272 2223 l 1,0,-1
1468 2091 m 1,3,-1
 599 2091 l 1,4,-1
 1059 3116 l 1,5,-1
 1468 2091 l 1,3,-1
1587 2839 m 1,6,-1
 1623 3009 l 1,7,8
 1637 3080 1637 3080 1649 3106 c 1,9,10
 1677 3173 1677 3173 1735 3167 c 0,11,12
 1804 3160 1804 3160 1768 3092 c 1,13,14
 1760 3074 1760 3074 1714 2999 c 2,15,-1
 1613 2836 l 1,16,-1
 1587 2839 l 1,6,-1
1982 2239 m 0,17,18
 2055 2239 2055 2239 2055 2165 c 256,19,20
 2055 2091 2055 2091 1982 2091 c 0,21,22
 1908 2091 1908 2091 1908 2165 c 256,23,24
 1908 2239 1908 2239 1982 2239 c 0,17,18
EndSplineSet
EndChar

StartChar: percent
Encoding: 37 37 8
Width: 1696
Flags: W
LayerCount: 2
Fore
SplineSet
360 2043 m 1,0,-1
 349 1955 l 2,1,2
 348 1941 348 1941 330 1943 c 1,3,-1
 191 1944 l 1,4,5
 167 1939 167 1939 156.5 1891.5 c 128,-1,6
 146 1844 146 1844 144 1824 c 0,7,8
 140 1773 140 1773 140 1740.5 c 128,-1,9
 140 1708 140 1708 143 1683 c 1,10,11
 148 1620 148 1620 180 1623.5 c 128,-1,12
 212 1627 212 1627 227 1636 c 0,13,14
 252 1652 252 1652 277.5 1653.5 c 128,-1,15
 303 1655 303 1655 311 1631 c 0,16,17
 324 1590 324 1590 314 1561 c 128,-1,18
 304 1532 304 1532 287 1514 c 1,19,20
 260 1482 260 1482 214 1482 c 0,21,22
 160 1482 160 1482 129 1525 c 0,23,24
 113 1546 113 1546 100 1584.5 c 128,-1,25
 87 1623 87 1623 86 1680 c 1,26,27
 84 1707 84 1707 84 1743 c 128,-1,28
 84 1779 84 1779 92 1828 c 0,29,30
 101 1889 101 1889 121 1949 c 1,31,-1
 51 1954 l 2,32,33
 3 1957 3 1957 -27 1938 c 0,34,35
 -54 1921 -54 1921 -80 1873 c 1,36,-1
 -102 1873 l 1,37,38
 -80 1929 -80 1929 -67 1959 c 128,-1,39
 -54 1989 -54 1989 -26 2015 c 1,40,41
 6 2043 6 2043 70 2043 c 2,42,-1
 360 2043 l 1,0,-1
426 1758 m 0,43,44
 426 1863 426 1863 491.5 1953 c 128,-1,45
 557 2043 557 2043 665 2043 c 0,46,47
 776 2043 776 2043 843.5 1956.5 c 128,-1,48
 911 1870 911 1870 911 1762 c 0,49,50
 911 1652 911 1652 843 1567 c 128,-1,51
 775 1482 775 1482 669 1482 c 0,52,53
 557 1482 557 1482 491.5 1565.5 c 128,-1,54
 426 1649 426 1649 426 1758 c 0,43,44
530 1585 m 0,55,56
 573 1556 573 1556 619.5 1560.5 c 128,-1,57
 666 1565 666 1565 704 1592 c 1,58,59
 735 1617 735 1617 769 1662.5 c 128,-1,60
 803 1708 803 1708 820 1747 c 0,61,62
 840 1793 840 1793 840 1857.5 c 128,-1,63
 840 1922 840 1922 789 1953 c 0,64,65
 753 1975 753 1975 708 1965.5 c 128,-1,66
 663 1956 663 1956 630 1932 c 0,67,68
 526 1858 526 1858 497 1718 c 0,69,70
 491 1687 491 1687 496 1646 c 128,-1,71
 501 1605 501 1605 530 1585 c 0,55,56
1387 1970 m 0,72,73
 1360 1909 1360 1909 1315 1909 c 0,74,75
 1240 1909 1240 1909 1176.5 1891.5 c 128,-1,76
 1113 1874 1113 1874 1075 1825 c 1,77,78
 1044 1781 1044 1781 1044 1725 c 0,79,80
 1044 1670 1044 1670 1074 1641 c 128,-1,81
 1104 1612 1104 1612 1140 1604 c 1,82,83
 1159 1598 1159 1598 1185.5 1595 c 128,-1,84
 1212 1592 1212 1592 1243 1591.5 c 128,-1,85
 1274 1591 1274 1591 1309.5 1596.5 c 128,-1,86
 1345 1602 1345 1602 1369.5 1597 c 128,-1,87
 1394 1592 1394 1592 1416 1574 c 128,-1,88
 1438 1556 1438 1556 1447.5 1529.5 c 128,-1,89
 1457 1503 1457 1503 1457 1467 c 0,90,91
 1457 1428 1457 1428 1442 1388 c 1,92,93
 1429 1350 1429 1350 1401 1321 c 1,94,95
 1356 1269 1356 1269 1292 1269 c 0,96,97
 1260 1269 1260 1269 1226 1290.5 c 128,-1,98
 1192 1312 1192 1312 1191 1337 c 0,99,100
 1189 1367 1189 1367 1215.5 1376 c 128,-1,101
 1242 1385 1242 1385 1271 1378 c 0,102,103
 1295 1372 1295 1372 1309 1363.5 c 128,-1,104
 1323 1355 1323 1355 1334 1355 c 0,105,106
 1367 1355 1367 1355 1385.5 1382 c 128,-1,107
 1404 1409 1404 1409 1404 1444 c 2,108,-1
 1404 1451 l 2,109,110
 1404 1475 1404 1475 1383 1493 c 1,111,112
 1351 1506 1351 1506 1274 1495 c 1,113,114
 1241 1492 1241 1492 1226 1494 c 0,115,116
 1141 1507 1141 1507 1072 1569 c 1,117,118
 1001 1641 1001 1641 1001 1717 c 0,119,120
 1001 1747 1001 1747 1006 1788.5 c 128,-1,121
 1011 1830 1011 1830 1027 1866 c 0,122,123
 1064 1948 1064 1948 1151 1995.5 c 128,-1,124
 1238 2043 1238 2043 1295 2043 c 0,125,126
 1311 2043 1311 2043 1327.5 2042 c 128,-1,127
 1344 2041 1344 2041 1366 2036 c 1,128,129
 1395 2028 1395 2028 1394 2007 c 128,-1,130
 1393 1986 1393 1986 1387 1970 c 0,72,73
EndSplineSet
EndChar

StartChar: ampersand
Encoding: 38 38 9
Width: 2008
Flags: W
LayerCount: 2
Fore
SplineSet
1063 2346 m 256,0,1
 1133 2346 1133 2346 1133 2276 c 256,2,3
 1133 2206 1133 2206 1063 2206 c 256,4,5
 993 2206 993 2206 993 2276 c 256,6,7
 993 2346 993 2346 1063 2346 c 256,0,1
1468 2346 m 0,8,9
 1538 2346 1538 2346 1538 2276 c 256,10,11
 1538 2206 1538 2206 1468 2206 c 0,12,13
 1397 2206 1397 2206 1397 2276 c 256,14,15
 1397 2346 1397 2346 1468 2346 c 0,8,9
1509 1930 m 1,16,-1
 1518 2052 l 1,17,18
 1562 2066 1562 2066 1615 2044 c 1,19,20
 1617 1963 1617 1963 1606 1768.5 c 128,-1,21
 1595 1574 1595 1574 1588 1026 c 0,22,23
 1587 996 1587 996 1581 965.5 c 128,-1,24
 1575 935 1575 935 1566 929 c 1,25,26
 1524 894 1524 894 1470 922 c 0,27,28
 1455 929 1455 929 1449 964 c 128,-1,29
 1443 999 1443 999 1444 1026 c 1,30,31
 1444 1104 1444 1104 1451.5 1133 c 128,-1,32
 1459 1162 1459 1162 1462 1183 c 0,33,34
 1477 1306 1477 1306 1482.5 1391.5 c 128,-1,35
 1488 1477 1488 1477 1496 1601 c 1,36,37
 1410 1481 1410 1481 1240 1497 c 0,38,39
 1121 1508 1121 1508 1056 1597 c 128,-1,40
 991 1686 991 1686 1003 1800 c 0,41,42
 1015 1912 1015 1912 1096.5 1982.5 c 128,-1,43
 1178 2053 1178 2053 1297 2042 c 1,44,45
 1445 2027 1445 2027 1509 1930 c 1,16,-1
1370 1978 m 1,46,47
 1309 2004 1309 2004 1250 1960 c 128,-1,48
 1191 1916 1191 1916 1152 1826 c 0,49,50
 1112 1736 1112 1736 1126 1653.5 c 128,-1,51
 1140 1571 1140 1571 1201 1545 c 1,52,53
 1276 1518 1276 1518 1343 1550 c 128,-1,54
 1410 1582 1410 1582 1439 1696 c 0,55,56
 1495 1922 1495 1922 1370 1978 c 1,46,47
1879 3914 m 1,57,58
 1912 3908 1912 3908 1908 3880 c 128,-1,59
 1904 3852 1904 3852 1866 3849 c 1,60,61
 1824 3834 1824 3834 1797.5 3740.5 c 128,-1,62
 1771 3647 1771 3647 1741 3543 c 0,63,64
 1672 3299 1672 3299 1614.5 3147.5 c 128,-1,65
 1557 2996 1557 2996 1505.5 2935 c 128,-1,66
 1454 2874 1454 2874 1382 2843 c 0,67,68
 1271 2795 1271 2795 1163.5 2772 c 128,-1,69
 1056 2749 1056 2749 977 2749 c 1,70,71
 1016 2656 1016 2656 1108 2620.5 c 128,-1,72
 1200 2585 1200 2585 1161 2543 c 1,73,74
 1138 2520 1138 2520 1019 2602.5 c 128,-1,75
 900 2685 900 2685 856 2765 c 1,76,77
 856 2816 856 2816 897.5 2807.5 c 128,-1,78
 939 2799 939 2799 987 2796 c 256,79,80
 1035 2793 1035 2793 1085 2801 c 128,-1,81
 1135 2809 1135 2809 1219 2852 c 0,82,83
 1260 2873 1260 2873 1296.5 2945.5 c 128,-1,84
 1333 3018 1333 3018 1362.5 3106.5 c 128,-1,85
 1392 3195 1392 3195 1412.5 3282 c 128,-1,86
 1433 3369 1433 3369 1466.5 3532.5 c 128,-1,87
 1500 3696 1500 3696 1524 3751.5 c 128,-1,88
 1548 3807 1548 3807 1592 3841.5 c 128,-1,89
 1636 3876 1636 3876 1676 3886 c 128,-1,90
 1716 3896 1716 3896 1765 3901 c 128,-1,91
 1814 3906 1814 3906 1879 3914 c 1,57,58
EndSplineSet
EndChar

StartChar: quotesingle
Encoding: 39 39 10
Width: 0
Flags: W
LayerCount: 2
Fore
SplineSet
-985 3561 m 1,0,-1
 -985 3619 l 1,1,2
 -895 3574 -895 3574 -859 3551.5 c 128,-1,3
 -823 3529 -823 3529 -750 3471 c 1,4,-1
 -750 4000 l 1,5,-1
 -674 4000 l 1,6,-1
 -674 3471 l 1,7,8
 -592 3549 -592 3549 -439 3621 c 1,9,-1
 -439 3562 l 1,10,11
 -548 3464 -548 3464 -605 3393.5 c 128,-1,12
 -662 3323 -662 3323 -697 3248 c 1,13,-1
 -732 3248 l 1,14,15
 -760 3313 -760 3313 -817.5 3387 c 128,-1,16
 -875 3461 -875 3461 -985 3561 c 1,0,-1
-2065 3558 m 1,17,-1
 -2065 3394 l 1,18,-1
 -2198 3394 l 1,19,-1
 -2198 3921 l 1,20,-1
 -2065 3921 l 1,21,-1
 -2065 3671 l 1,22,-1
 -1736 3921 l 1,23,-1
 -1560 3921 l 1,24,-1
 -1860 3699 l 1,25,-1
 -1500 3394 l 1,26,-1
 -1677 3394 l 1,27,-1
 -1961 3626 l 1,28,-1
 -2065 3558 l 1,17,-1
-1317 3602 m 1,29,-1
 -1317 3489 l 1,30,-1
 -1043 3489 l 1,31,-1
 -1043 3393 l 1,32,-1
 -1440 3393 l 1,33,-1
 -1440 3920 l 1,34,-1
 -1039 3920 l 1,35,-1
 -1040 3836 l 1,36,-1
 -1314 3836 l 1,37,-1
 -1315 3689 l 1,38,-1
 -1108 3689 l 1,39,-1
 -1105 3600 l 1,40,-1
 -1317 3602 l 1,29,-1
EndSplineSet
EndChar

StartChar: parenleft
Encoding: 40 40 11
Width: 3042
Flags: W
LayerCount: 2
Fore
SplineSet
754 2499 m 2,0,-1
 2742 2499 l 2,1,2
 2774 2499 2774 2499 2773 2455.5 c 128,-1,3
 2772 2412 2772 2412 2742 2412 c 2,4,-1
 754 2412 l 2,5,6
 719 2412 719 2412 720 2455.5 c 128,-1,7
 721 2499 721 2499 754 2499 c 2,0,-1
2146 2288 m 0,8,9
 2221 2288 2221 2288 2221 2213 c 256,10,11
 2221 2138 2221 2138 2146 2138 c 0,12,13
 2072 2138 2072 2138 2072 2213 c 256,14,15
 2072 2288 2072 2288 2146 2288 c 0,8,9
1618 2288 m 0,16,17
 1692 2288 1692 2288 1692 2213 c 256,18,19
 1692 2138 1692 2138 1618 2138 c 0,20,21
 1542 2138 1542 2138 1542 2213 c 256,22,23
 1542 2288 1542 2288 1618 2288 c 0,16,17
1172 1810 m 1,24,25
 1137 1833 1137 1833 1107 1864.5 c 128,-1,26
 1077 1896 1077 1896 1012 1919 c 0,27,28
 946 1942 946 1942 861 1904.5 c 128,-1,29
 776 1867 776 1867 814 1802 c 0,30,31
 871 1704 871 1704 960 1720 c 128,-1,32
 1049 1736 1049 1736 1172 1810 c 1,24,25
1216 1751 m 1,33,34
 1154 1712 1154 1712 1107.5 1677 c 128,-1,35
 1061 1642 1061 1642 1014 1618 c 0,36,37
 920 1571 920 1571 814 1600 c 1,38,39
 709 1627 709 1627 695.5 1714 c 128,-1,40
 682 1801 682 1801 702 1849 c 0,41,42
 711 1873 711 1873 744 1913.5 c 128,-1,43
 777 1954 777 1954 874 1973 c 0,44,45
 921 1982 921 1982 1026 1972.5 c 128,-1,46
 1131 1963 1131 1963 1307 1819 c 0,47,48
 1377 1761 1377 1761 1522 1627.5 c 128,-1,49
 1667 1494 1667 1494 1763 1447 c 0,50,51
 1785 1436 1785 1436 1826 1435 c 128,-1,52
 1867 1434 1867 1434 1886 1435 c 0,53,54
 1940 1439 1940 1439 2043.5 1513.5 c 128,-1,55
 2147 1588 2147 1588 2249.5 1675.5 c 128,-1,56
 2352 1763 2352 1763 2428.5 1835.5 c 128,-1,57
 2505 1908 2505 1908 2505 1908 c 1,58,59
 2524 1922 2524 1922 2589 1930 c 128,-1,60
 2654 1938 2654 1938 2723 1938.5 c 128,-1,61
 2792 1939 2792 1939 2845 1932 c 128,-1,62
 2898 1925 2898 1925 2894 1910 c 0,63,64
 2888 1885 2888 1885 2852 1874 c 128,-1,65
 2816 1863 2816 1863 2795 1862 c 1,66,67
 2618 1736 2618 1736 2463.5 1582 c 128,-1,68
 2309 1428 2309 1428 2114 1385 c 0,69,70
 2012 1363 2012 1363 1932 1358.5 c 128,-1,71
 1852 1354 1852 1354 1750 1376 c 1,72,73
 1587 1438 1587 1438 1456 1533.5 c 128,-1,74
 1325 1629 1325 1629 1216 1751 c 1,33,34
EndSplineSet
EndChar

StartChar: parenright
Encoding: 41 41 12
Width: 5351
Flags: W
LayerCount: 2
Fore
SplineSet
1837 1793 m 256,0,1
 1907 1793 1907 1793 1907 1723 c 0,2,3
 1907 1652 1907 1652 1837 1652 c 256,4,5
 1767 1652 1767 1652 1767 1723 c 0,6,7
 1767 1793 1767 1793 1837 1793 c 256,0,1
2149 1793 m 0,8,9
 2220 1793 2220 1793 2220 1723 c 0,10,11
 2220 1652 2220 1652 2149 1652 c 0,12,13
 2079 1652 2079 1652 2079 1723 c 0,14,15
 2079 1793 2079 1793 2149 1793 c 0,8,9
4107 2498 m 1,16,17
 4164 2498 4164 2498 4227 2497 c 128,-1,18
 4290 2496 4290 2496 4341 2489 c 1,19,20
 4376 2489 4376 2489 4408 2403 c 128,-1,21
 4440 2317 4440 2317 4498 2233 c 1,22,23
 4518 2202 4518 2202 4535 2200 c 1,24,25
 4550 2196 4550 2196 4558 2185.5 c 128,-1,26
 4566 2175 4566 2175 4542 2167 c 1,27,28
 4485 2159 4485 2159 4424.5 2160.5 c 128,-1,29
 4364 2162 4364 2162 4311 2167 c 1,30,31
 4260 2183 4260 2183 4238.5 2244 c 128,-1,32
 4217 2305 4217 2305 4157 2425 c 1,33,34
 4141 2452 4141 2452 4100 2459 c 1,35,36
 4073 2462 4073 2462 4070 2479.5 c 128,-1,37
 4067 2497 4067 2497 4107 2498 c 1,16,17
3650 2504 m 1,38,39
 3701 2504 3701 2504 3756 2502.5 c 128,-1,40
 3811 2501 3811 2501 3856 2495 c 1,41,42
 3886 2495 3886 2495 3922 2406.5 c 128,-1,43
 3958 2318 3958 2318 4005 2233 c 1,44,45
 4020 2203 4020 2203 4037 2201 c 1,46,47
 4050 2197 4050 2197 4057.5 2186.5 c 128,-1,48
 4065 2176 4065 2176 4043 2168 c 1,49,50
 3992 2160 3992 2160 3939.5 2161 c 128,-1,51
 3887 2162 3887 2162 3840 2168 c 1,52,53
 3796 2184 3796 2184 3771 2247 c 128,-1,54
 3746 2310 3746 2310 3695 2430 c 1,55,56
 3690 2436 3690 2436 3676.5 2451 c 128,-1,57
 3663 2466 3663 2466 3645 2469 c 0,58,59
 3621 2472 3621 2472 3618 2487 c 128,-1,60
 3615 2502 3615 2502 3650 2504 c 1,38,39
756.5 2338 m 128,-1,62
 766 2353 766 2353 778 2354 c 128,-1,63
 790 2355 790 2355 803.5 2347 c 128,-1,64
 817 2339 817 2339 837 2329 c 128,-1,65
 857 2319 857 2319 889 2312.5 c 128,-1,66
 921 2306 921 2306 979 2306 c 2,67,-1
 2887 2306 l 1,68,69
 2940 2307 2940 2307 2983 2298 c 128,-1,70
 3026 2289 3026 2289 3061.5 2270.5 c 128,-1,71
 3097 2252 3097 2252 3116.5 2237 c 128,-1,72
 3136 2222 3136 2222 3170 2186.5 c 128,-1,73
 3204 2151 3204 2151 3228.5 2116.5 c 128,-1,74
 3253 2082 3253 2082 3239 2050 c 1,75,76
 3224 2029 3224 2029 3204.5 2041.5 c 128,-1,77
 3185 2054 3185 2054 3158.5 2063.5 c 128,-1,78
 3132 2073 3132 2073 3101 2077 c 128,-1,79
 3070 2081 3070 2081 3006 2081 c 2,80,-1
 1124 2081 l 2,81,82
 1080 2081 1080 2081 1045.5 2086.5 c 128,-1,83
 1011 2092 1011 2092 991 2098.5 c 128,-1,84
 971 2105 971 2105 949.5 2116 c 128,-1,85
 928 2127 928 2127 903 2143.5 c 128,-1,86
 878 2160 878 2160 849.5 2188.5 c 128,-1,87
 821 2217 821 2217 792 2255 c 128,-1,88
 763 2293 763 2293 755 2308 c 128,-1,61
 747 2323 747 2323 756.5 2338 c 128,-1,62
2124.5 2920 m 128,-1,90
 2134 2935 2134 2935 2146 2936.5 c 128,-1,91
 2158 2938 2158 2938 2171.5 2930 c 128,-1,92
 2185 2922 2185 2922 2205 2912 c 128,-1,93
 2225 2902 2225 2902 2257 2895.5 c 128,-1,94
 2289 2889 2289 2889 2347 2889 c 2,95,-1
 4255 2889 l 1,96,97
 4308 2890 4308 2890 4351 2880.5 c 128,-1,98
 4394 2871 4394 2871 4429.5 2852.5 c 128,-1,99
 4465 2834 4465 2834 4484.5 2819 c 128,-1,100
 4504 2804 4504 2804 4538 2768.5 c 128,-1,101
 4572 2733 4572 2733 4596.5 2699 c 128,-1,102
 4621 2665 4621 2665 4607 2633 c 1,103,104
 4592 2611 4592 2611 4572.5 2624 c 128,-1,105
 4553 2637 4553 2637 4526.5 2646.5 c 128,-1,106
 4500 2656 4500 2656 4469 2659.5 c 128,-1,107
 4438 2663 4438 2663 4374 2663 c 2,108,-1
 2492 2663 l 1,109,110
 2448 2664 2448 2664 2413.5 2669.5 c 128,-1,111
 2379 2675 2379 2675 2359 2681.5 c 128,-1,112
 2339 2688 2339 2688 2317.5 2698.5 c 128,-1,113
 2296 2709 2296 2709 2271 2725.5 c 128,-1,114
 2246 2742 2246 2742 2217.5 2771 c 128,-1,115
 2189 2800 2189 2800 2160 2837.5 c 128,-1,116
 2131 2875 2131 2875 2123 2890 c 128,-1,89
 2115 2905 2115 2905 2124.5 2920 c 128,-1,90
952 1763 m 1,117,118
 1103 1764 1103 1764 1255.5 1765 c 128,-1,119
 1408 1766 1408 1766 1558 1768 c 1,120,121
 1569 1754 1569 1754 1566.5 1731 c 128,-1,122
 1564 1708 1564 1708 1559 1693 c 1,123,124
 1529 1686 1529 1686 1358 1686.5 c 128,-1,125
 1187 1687 1187 1687 1061 1687 c 1,126,127
 1061 1581 1061 1581 1065.5 1469.5 c 128,-1,128
 1070 1358 1070 1358 1058 1356 c 1,129,130
 1027 1356 1027 1356 991.5 1351.5 c 128,-1,131
 956 1347 956 1347 929 1356 c 0,132,133
 926 1356 926 1356 926 1377 c 0,134,135
 926 1378 926 1378 927.5 1379 c 128,-1,136
 929 1380 929 1380 929 1382 c 0,137,138
 929 1490 929 1490 930.5 1557 c 128,-1,139
 932 1624 932 1624 932 1732 c 0,140,141
 932 1760 932 1760 952 1763 c 1,117,118
EndSplineSet
EndChar

StartChar: asterisk
Encoding: 42 42 13
Width: 3626
Flags: W
LayerCount: 2
Fore
SplineSet
794 2753 m 1,0,1
 822 2830 822 2830 960 2807 c 1,2,3
 989 2801 989 2801 994.5 2742.5 c 128,-1,4
 1000 2684 1000 2684 955 2618 c 1,5,6
 919 2570 919 2570 924 2518.5 c 128,-1,7
 929 2467 929 2467 1037 2458 c 1,8,9
 1428 2455 1428 2455 1728 2479 c 128,-1,10
 2028 2503 2028 2503 2207 2503 c 1,11,12
 2300 2502 2300 2502 2354 2419 c 128,-1,13
 2408 2336 2408 2336 2399 2243 c 1,14,15
 2381 2086 2381 2086 2259 2098 c 0,16,17
 2229 2101 2229 2101 2201 2139.5 c 128,-1,18
 2173 2178 2173 2178 2197 2232 c 256,19,20
 2221 2286 2221 2286 2254 2288.5 c 128,-1,21
 2287 2291 2287 2291 2300 2342 c 0,22,23
 2322 2428 2322 2428 2213 2425 c 1,24,25
 1880 2407 1880 2407 1660 2363 c 128,-1,26
 1440 2319 1440 2319 1102 2373 c 0,27,28
 1012 2387 1012 2387 918 2435 c 128,-1,29
 824 2483 824 2483 792 2587 c 0,30,31
 765 2677 765 2677 794 2753 c 1,0,1
1454 2753 m 256,32,33
 1524 2753 1524 2753 1524 2683 c 0,34,35
 1524 2612 1524 2612 1454 2612 c 256,36,37
 1384 2612 1384 2612 1384 2683 c 0,38,39
 1384 2753 1384 2753 1454 2753 c 256,32,33
1766 2753 m 0,40,41
 1837 2753 1837 2753 1837 2683 c 0,42,43
 1837 2612 1837 2612 1766 2612 c 0,44,45
 1696 2612 1696 2612 1696 2683 c 0,46,47
 1696 2753 1696 2753 1766 2753 c 0,40,41
2935 2854 m 1,48,49
 2998 2854 2998 2854 3067 2852.5 c 128,-1,50
 3136 2851 3136 2851 3192 2844 c 1,51,52
 3231 2844 3231 2844 3266 2749.5 c 128,-1,53
 3301 2655 3301 2655 3365 2562 c 0,54,55
 3387 2529 3387 2529 3405 2526 c 1,56,57
 3422 2522 3422 2522 3431 2510.5 c 128,-1,58
 3440 2499 3440 2499 3413 2490 c 1,59,60
 3350 2481 3350 2481 3284 2482.5 c 128,-1,61
 3218 2484 3218 2484 3159 2490 c 1,62,63
 3103 2508 3103 2508 3079.5 2575 c 128,-1,64
 3056 2642 3056 2642 2990 2773 c 1,65,66
 2973 2803 2973 2803 2928 2811 c 1,67,68
 2898 2814 2898 2814 2894.5 2833.5 c 128,-1,69
 2891 2853 2891 2853 2935 2854 c 1,48,49
2433 2860 m 1,70,71
 2489 2860 2489 2860 2549.5 2858.5 c 128,-1,72
 2610 2857 2610 2857 2659 2850 c 1,73,74
 2692 2850 2692 2850 2731.5 2753 c 128,-1,75
 2771 2656 2771 2656 2823 2563 c 1,76,77
 2840 2530 2840 2530 2858 2527 c 1,78,79
 2873 2523 2873 2523 2881 2511.5 c 128,-1,80
 2889 2500 2889 2500 2865 2491 c 1,81,82
 2809 2482 2809 2482 2751.5 2483.5 c 128,-1,83
 2694 2485 2694 2485 2642 2491 c 1,84,85
 2593 2509 2593 2509 2566 2578 c 128,-1,86
 2539 2647 2539 2647 2482 2779 c 1,87,88
 2477 2786 2477 2786 2462 2802 c 128,-1,89
 2447 2818 2447 2818 2428 2822 c 1,90,91
 2401 2825 2401 2825 2398 2841.5 c 128,-1,92
 2395 2858 2395 2858 2433 2860 c 1,70,71
757.5 3317.5 m 128,-1,94
 768 3334 768 3334 781 3335.5 c 128,-1,95
 794 3337 794 3337 809 3328 c 128,-1,96
 824 3319 824 3319 846 3308 c 128,-1,97
 868 3297 868 3297 903 3290 c 128,-1,98
 938 3283 938 3283 1001 3283 c 2,99,-1
 3098 3283 l 1,100,101
 3156 3284 3156 3284 3203 3274 c 128,-1,102
 3250 3264 3250 3264 3289 3243.5 c 128,-1,103
 3328 3223 3328 3223 3349.5 3206.5 c 128,-1,104
 3371 3190 3371 3190 3408.5 3151 c 128,-1,105
 3446 3112 3446 3112 3473 3074.5 c 128,-1,106
 3500 3037 3500 3037 3484 3002 c 1,107,108
 3468 2978 3468 2978 3446.5 2992 c 128,-1,109
 3425 3006 3425 3006 3396 3016.5 c 128,-1,110
 3367 3027 3367 3027 3333 3031 c 128,-1,111
 3299 3035 3299 3035 3228 3035 c 2,112,-1
 1161 3035 l 1,113,114
 1113 3036 1113 3036 1075 3042 c 128,-1,115
 1037 3048 1037 3048 1015 3055 c 128,-1,116
 993 3062 993 3062 969 3074 c 128,-1,117
 945 3086 945 3086 917.5 3104 c 128,-1,118
 890 3122 890 3122 859 3153.5 c 128,-1,119
 828 3185 828 3185 796 3226.5 c 128,-1,120
 764 3268 764 3268 755.5 3284.5 c 128,-1,93
 747 3301 747 3301 757.5 3317.5 c 128,-1,94
EndSplineSet
EndChar

StartChar: plus
Encoding: 43 43 14
Width: 2683
Flags: W
LayerCount: 2
Fore
SplineSet
2271 2239 m 256,0,1
 2345 2239 2345 2239 2345 2165 c 256,2,3
 2345 2091 2345 2091 2271 2091 c 256,4,5
 2197 2091 2197 2091 2197 2165 c 256,6,7
 2197 2239 2197 2239 2271 2239 c 256,0,1
1354 2223 m 1,8,-1
 1098 2856 l 1,9,-1
 813 2223 l 1,10,-1
 1354 2223 l 1,8,-1
1550 2091 m 1,11,-1
 681 2091 l 1,12,-1
 1141 3116 l 1,13,-1
 1550 2091 l 1,11,-1
1857 3532 m 1,14,15
 2011 3529 2011 3529 2093.5 3523 c 128,-1,16
 2176 3517 2176 3517 2259 3505 c 0,17,18
 2374 3489 2374 3489 2431 3459 c 0,19,20
 2465 3440 2465 3440 2497 3408 c 128,-1,21
 2529 3376 2529 3376 2538 3337 c 0,22,23
 2556 3250 2556 3250 2521 3182 c 128,-1,24
 2486 3114 2486 3114 2399 3117 c 1,25,26
 2297 3118 2297 3118 2294 3231 c 0,27,28
 2293 3270 2293 3270 2330 3299.5 c 128,-1,29
 2367 3329 2367 3329 2411 3318 c 0,30,31
 2487 3300 2487 3300 2480 3338 c 0,32,33
 2471 3386 2471 3386 2407.5 3418 c 128,-1,34
 2344 3450 2344 3450 2274 3461 c 0,35,36
 2125 3483 2125 3483 2056 3484.5 c 128,-1,37
 1987 3486 1987 3486 1858 3484 c 1,38,39
 1850 3362 1850 3362 1760.5 3277.5 c 128,-1,40
 1671 3193 1671 3193 1548 3193 c 0,41,42
 1424 3192 1424 3192 1334 3274.5 c 128,-1,43
 1244 3357 1244 3357 1236 3480 c 1,44,45
 1049 3482 1049 3482 865.5 3469.5 c 128,-1,46
 682 3457 682 3457 496 3446 c 0,47,48
 448 3444 448 3444 444 3444 c 0,49,50
 435 3444 435 3444 420 3447 c 128,-1,51
 405 3450 405 3450 405 3456 c 2,52,-1
 405 3483 l 2,53,54
 405 3488 405 3488 420 3492.5 c 128,-1,55
 435 3497 435 3497 444 3498 c 0,56,57
 642 3508 642 3508 838.5 3517.5 c 128,-1,58
 1035 3527 1035 3527 1234 3528 c 1,59,60
 1243 3648 1243 3648 1332 3732.5 c 128,-1,61
 1421 3817 1421 3817 1544 3818 c 0,62,63
 1667 3818 1667 3818 1757 3735 c 128,-1,64
 1847 3652 1847 3652 1857 3532 c 1,14,15
1298 3528 m 1,65,-1
 1794 3531 l 1,66,67
 1785 3625 1785 3625 1713.5 3690.5 c 128,-1,68
 1642 3756 1642 3756 1545 3756 c 0,69,70
 1447 3755 1447 3755 1376.5 3689 c 128,-1,71
 1306 3623 1306 3623 1298 3528 c 1,65,-1
1297 3480 m 1,72,73
 1304 3382 1304 3382 1376.5 3318.5 c 128,-1,74
 1449 3255 1449 3255 1548 3256 c 0,75,76
 1644 3256 1644 3256 1715 3322 c 128,-1,77
 1786 3388 1786 3388 1794 3484 c 1,78,-1
 1297 3480 l 1,72,73
1759 2695 m 0,79,80
 1773 2725 1773 2725 1825 2734 c 128,-1,81
 1877 2743 1877 2743 1901 2672 c 1,82,83
 1910 2642 1910 2642 1897.5 2603 c 128,-1,84
 1885 2564 1885 2564 1869 2543 c 0,85,86
 1820 2482 1820 2482 1805.5 2459.5 c 128,-1,87
 1791 2437 1791 2437 1779 2390 c 0,88,89
 1763 2332 1763 2332 1775 2292 c 128,-1,90
 1787 2252 1787 2252 1794 2235 c 0,91,92
 1811 2195 1811 2195 1854 2202 c 0,93,94
 1878 2205 1878 2205 1907.5 2245.5 c 128,-1,95
 1937 2286 1937 2286 1967 2280 c 0,96,97
 1995 2274 1995 2274 1999 2234 c 128,-1,98
 2003 2194 2003 2194 1978 2146 c 1,99,100
 1948 2091 1948 2091 1897 2091 c 0,101,102
 1883 2091 1883 2091 1849.5 2094.5 c 128,-1,103
 1816 2098 1816 2098 1806 2110 c 0,104,105
 1743 2182 1743 2182 1731 2263 c 1,106,107
 1716 2349 1716 2349 1716 2399 c 128,-1,108
 1716 2449 1716 2449 1722 2525 c 0,109,110
 1729 2631 1729 2631 1759 2695 c 0,79,80
EndSplineSet
EndChar

StartChar: comma
Encoding: 44 44 15
Width: 0
Flags: W
LayerCount: 2
Fore
SplineSet
15 1970 m 0,0,1
 17 1970 17 1970 17 1967 c 0,2,3
 17 1965 17 1965 15 1965 c 0,4,5
 12 1965 12 1965 12 1967 c 0,6,7
 12 1970 12 1970 15 1970 c 0,0,1
-2141 3324 m 1,8,9
 -2195 3244 -2195 3244 -2252 3165.5 c 128,-1,10
 -2309 3087 -2309 3087 -2360 3007 c 1,11,12
 -2355 2917 -2355 2917 -2319 2853 c 1,13,14
 -2273 2789 -2273 2789 -2239 2784 c 128,-1,15
 -2205 2779 -2205 2779 -2154 2867 c 1,16,17
 -2124 2901 -2124 2901 -2094.5 2888.5 c 128,-1,18
 -2065 2876 -2065 2876 -2059 2856 c 0,19,20
 -2045 2811 -2045 2811 -2059 2778.5 c 128,-1,21
 -2073 2746 -2073 2746 -2084 2732 c 256,22,23
 -2095 2718 -2095 2718 -2124.5 2701.5 c 128,-1,24
 -2154 2685 -2154 2685 -2185 2687 c 0,25,26
 -2225 2690 -2225 2690 -2250 2702 c 0,27,28
 -2269 2712 -2269 2712 -2298 2747 c 1,29,30
 -2335 2795 -2335 2795 -2353 2835 c 0,31,32
 -2359 2849 -2359 2849 -2369.5 2882.5 c 128,-1,33
 -2380 2916 -2380 2916 -2385 2966 c 1,34,-1
 -2529 2748 l 1,35,-1
 -2657 2748 l 1,36,37
 -2614 2808 -2614 2808 -2589 2842.5 c 128,-1,38
 -2564 2877 -2564 2877 -2518 2959 c 1,39,40
 -2505 2980 -2505 2980 -2505.5 3063.5 c 128,-1,41
 -2506 3147 -2506 3147 -2514 3174 c 0,42,43
 -2530 3226 -2530 3226 -2566 3226 c 0,44,45
 -2586 3226 -2586 3226 -2601.5 3214 c 128,-1,46
 -2617 3202 -2617 3202 -2651 3207 c 0,47,48
 -2671 3210 -2671 3210 -2681 3241.5 c 128,-1,49
 -2691 3273 -2691 3273 -2674 3304 c 1,50,51
 -2650 3342 -2650 3342 -2587 3342 c 0,52,53
 -2546 3342 -2546 3342 -2518 3311 c 1,54,55
 -2483 3276 -2483 3276 -2479 3226 c 1,56,57
 -2470 3174 -2470 3174 -2467 3128.5 c 128,-1,58
 -2464 3083 -2464 3083 -2473 3025 c 1,59,-1
 -2269 3324 l 1,60,-1
 -2141 3324 l 1,8,9
EndSplineSet
EndChar

StartChar: hyphen
Encoding: 45 45 16
Width: 29
Flags: W
LayerCount: 2
Fore
SplineSet
-289 3043 m 1,0,-1
 -1141 3043 l 1,1,-1
 -746 3912 l 1,2,-1
 -559 3912 l 1,3,-1
 -906 3131 l 1,4,-1
 -357 3131 l 1,5,-1
 -289 3043 l 1,0,-1
EndSplineSet
EndChar

StartChar: period
Encoding: 46 46 17
Width: 0
Flags: W
LayerCount: 2
Fore
SplineSet
8 1970 m 0,0,1
 10 1970 10 1970 10 1967 c 0,2,3
 10 1965 10 1965 8 1965 c 0,4,5
 5 1965 5 1965 5 1967 c 0,6,7
 5 1970 5 1970 8 1970 c 0,0,1
-2619 3358 m 1,8,9
 -2518 3419 -2518 3419 -2459.5 3366.5 c 128,-1,10
 -2401 3314 -2401 3314 -2302 3323 c 1,11,12
 -2256 3325 -2256 3325 -2231.5 3354 c 128,-1,13
 -2207 3383 -2207 3383 -2166 3381 c 1,14,15
 -2145 3383 -2145 3383 -2146 3352 c 128,-1,16
 -2147 3321 -2147 3321 -2166 3308 c 1,17,-1
 -2561 2886 l 1,18,19
 -2523 2908 -2523 2908 -2496 2924.5 c 128,-1,20
 -2469 2941 -2469 2941 -2380 2931 c 0,21,22
 -2331 2925 -2331 2925 -2276 2854.5 c 128,-1,23
 -2221 2784 -2221 2784 -2190 2872 c 1,24,25
 -2172 2940 -2172 2940 -2140 2944 c 128,-1,26
 -2108 2948 -2108 2948 -2108 2911 c 0,27,28
 -2108 2860 -2108 2860 -2145 2792 c 128,-1,29
 -2182 2724 -2182 2724 -2328 2724 c 0,30,31
 -2379 2724 -2379 2724 -2409.5 2754.5 c 128,-1,32
 -2440 2785 -2440 2785 -2471.5 2809 c 128,-1,33
 -2503 2833 -2503 2833 -2546 2830 c 128,-1,34
 -2589 2827 -2589 2827 -2667 2758 c 1,35,-1
 -2736 2758 l 1,36,-1
 -2736 2792 l 1,37,-1
 -2300 3260 l 1,38,39
 -2323 3242 -2323 3242 -2359 3224.5 c 128,-1,40
 -2395 3207 -2395 3207 -2480 3219 c 1,41,42
 -2573 3270 -2573 3270 -2627 3242.5 c 128,-1,43
 -2681 3215 -2681 3215 -2695 3215 c 1,44,45
 -2677 3262 -2677 3262 -2666.5 3286 c 128,-1,46
 -2656 3310 -2656 3310 -2619 3358 c 1,8,9
EndSplineSet
EndChar

StartChar: slash
Encoding: 47 47 18
Width: 0
Flags: W
LayerCount: 2
Fore
SplineSet
-1992 819 m 1,0,-1
 -2166 1229 l 1,1,-1
 -2359 819 l 1,2,-1
 -1992 819 l 1,0,-1
-1856 759 m 1,3,-1
 -2439 759 l 1,4,-1
 -2132 1411 l 1,5,-1
 -1856 759 l 1,3,-1
8 1970 m 0,6,7
 10 1970 10 1970 10 1967 c 0,8,9
 10 1965 10 1965 8 1965 c 0,10,11
 5 1965 5 1965 5 1967 c 0,12,13
 5 1970 5 1970 8 1970 c 0,6,7
EndSplineSet
EndChar

StartChar: zero
Encoding: 48 48 19
Width: 3585
Flags: W
LayerCount: 2
Fore
SplineSet
2772 2466 m 0,0,1
 2835 2466 2835 2466 2904 2464.5 c 128,-1,2
 2973 2463 2973 2463 3029 2456 c 1,3,4
 3068 2456 3068 2456 3103 2362 c 128,-1,5
 3138 2268 3138 2268 3202 2175 c 0,6,7
 3224 2142 3224 2142 3242 2139 c 1,8,9
 3259 2134 3259 2134 3268 2123 c 128,-1,10
 3277 2112 3277 2112 3250 2103 c 1,11,12
 3186 2094 3186 2094 3120.5 2095.5 c 128,-1,13
 3055 2097 3055 2097 2996 2103 c 1,14,15
 2940 2121 2940 2121 2916.5 2188 c 128,-1,16
 2893 2255 2893 2255 2827 2386 c 1,17,18
 2805 2416 2805 2416 2765 2423 c 1,19,20
 2735 2426 2735 2426 2731.5 2446 c 128,-1,21
 2728 2466 2728 2466 2772 2466 c 0,0,1
2211 2472 m 1,22,23
 2266 2472 2266 2472 2326.5 2470.5 c 128,-1,24
 2387 2469 2387 2469 2435 2462 c 1,25,26
 2469 2462 2469 2462 2508 2365 c 128,-1,27
 2547 2268 2547 2268 2600 2176 c 1,28,29
 2615 2144 2615 2144 2635 2140 c 1,30,31
 2650 2135 2650 2135 2657.5 2124 c 128,-1,32
 2665 2113 2665 2113 2641 2104 c 1,33,34
 2585 2095 2585 2095 2528 2096.5 c 128,-1,35
 2471 2098 2471 2098 2419 2104 c 1,36,37
 2370 2122 2370 2122 2343 2190.5 c 128,-1,38
 2316 2259 2316 2259 2259 2391 c 1,39,40
 2254 2398 2254 2398 2239 2414 c 128,-1,41
 2224 2430 2224 2430 2205 2434 c 1,42,43
 2178 2437 2178 2437 2175 2454 c 128,-1,44
 2172 2471 2172 2471 2211 2472 c 1,22,23
747.5 2928 m 128,-1,46
 758 2944 758 2944 770 2945.5 c 128,-1,47
 782 2947 782 2947 797 2938 c 128,-1,48
 812 2929 812 2929 833.5 2918.5 c 128,-1,49
 855 2908 855 2908 889.5 2901 c 128,-1,50
 924 2894 924 2894 985 2894 c 2,51,-1
 3028 2894 l 1,52,53
 3085 2895 3085 2895 3130.5 2885.5 c 128,-1,54
 3176 2876 3176 2876 3214 2856 c 128,-1,55
 3252 2836 3252 2836 3273 2820 c 128,-1,56
 3294 2804 3294 2804 3330.5 2766 c 128,-1,57
 3367 2728 3367 2728 3393.5 2691.5 c 128,-1,58
 3420 2655 3420 2655 3404 2621 c 1,59,60
 3389 2597 3389 2597 3368 2610.5 c 128,-1,61
 3347 2624 3347 2624 3318.5 2634.5 c 128,-1,62
 3290 2645 3290 2645 3257 2649 c 128,-1,63
 3224 2653 3224 2653 3155 2653 c 2,64,-1
 1141 2653 l 1,65,66
 1094 2654 1094 2654 1057 2660 c 128,-1,67
 1020 2666 1020 2666 998.5 2673 c 128,-1,68
 977 2680 977 2680 953.5 2691 c 128,-1,69
 930 2702 930 2702 903 2719.5 c 128,-1,70
 876 2737 876 2737 846 2768 c 128,-1,71
 816 2799 816 2799 785 2839.5 c 128,-1,72
 754 2880 754 2880 745.5 2896 c 128,-1,45
 737 2912 737 2912 747.5 2928 c 128,-1,46
EndSplineSet
EndChar

StartChar: one
Encoding: 49 49 20
Width: 2087
Flags: W
LayerCount: 2
Fore
SplineSet
1152 2710 m 1,0,1
 1165 2739 1165 2739 1221.5 2737.5 c 128,-1,2
 1278 2736 1278 2736 1278 2697 c 0,3,4
 1278 2674 1278 2674 1250.5 2625 c 128,-1,5
 1223 2576 1223 2576 1208 2557 c 0,6,7
 1193 2539 1193 2539 1161.5 2471 c 128,-1,8
 1130 2403 1130 2403 1101 2340 c 1,9,10
 1101 2328 1101 2328 1110 2301.5 c 128,-1,11
 1119 2275 1119 2275 1126 2259 c 0,12,13
 1140 2227 1140 2227 1176 2207 c 0,14,15
 1199 2194 1199 2194 1225 2240 c 128,-1,16
 1251 2286 1251 2286 1281 2280 c 0,17,18
 1309 2274 1309 2274 1313 2234 c 128,-1,19
 1317 2194 1317 2194 1292 2145 c 1,20,21
 1262 2091 1262 2091 1211 2091 c 0,22,23
 1173 2091 1173 2091 1155 2112 c 0,24,25
 1125 2146 1125 2146 1103 2190 c 128,-1,26
 1081 2234 1081 2234 1066 2277 c 1,27,28
 991 2181 991 2181 939.5 2136 c 128,-1,29
 888 2091 888 2091 825 2091 c 0,30,31
 705 2091 705 2091 654.5 2184 c 128,-1,32
 604 2277 604 2277 616 2397 c 0,33,34
 626 2506 626 2506 700.5 2616 c 128,-1,35
 775 2726 775 2726 912 2714 c 1,36,37
 975 2707 975 2707 1018.5 2653.5 c 128,-1,38
 1062 2600 1062 2600 1069 2537 c 1,39,40
 1089 2585 1089 2585 1106 2626 c 128,-1,41
 1123 2667 1123 2667 1152 2710 c 1,0,1
705 2204 m 0,42,43
 749 2169 749 2169 800.5 2183.5 c 128,-1,44
 852 2198 852 2198 889 2229 c 0,45,46
 922 2256 922 2256 966.5 2322.5 c 128,-1,47
 1011 2389 1011 2389 1025 2433 c 0,48,49
 1032 2454 1032 2454 1030.5 2498 c 128,-1,50
 1029 2542 1029 2542 1014 2572 c 0,51,52
 982 2633 982 2633 906.5 2618.5 c 128,-1,53
 831 2604 831 2604 786 2576 c 0,54,55
 750 2553 750 2553 718 2511.5 c 128,-1,56
 686 2470 686 2470 676 2407 c 1,57,58
 664 2344 664 2344 669.5 2285.5 c 128,-1,59
 675 2227 675 2227 705 2204 c 0,42,43
1496 2775 m 1,60,-1
 1532 2945 l 1,61,62
 1546 3016 1546 3016 1558 3042 c 1,63,64
 1586 3109 1586 3109 1644 3103 c 0,65,66
 1713 3096 1713 3096 1677 3028 c 1,67,68
 1669 3010 1669 3010 1623 2935 c 2,69,-1
 1522 2772 l 1,70,-1
 1496 2775 l 1,60,-1
1891 2239 m 0,71,72
 1964 2239 1964 2239 1964 2165 c 256,73,74
 1964 2091 1964 2091 1891 2091 c 0,75,76
 1817 2091 1817 2091 1817 2165 c 256,77,78
 1817 2239 1817 2239 1891 2239 c 0,71,72
EndSplineSet
EndChar

StartChar: two
Encoding: 50 50 21
Width: 2068
Flags: W
LayerCount: 2
Fore
SplineSet
1872 2239 m 0,0,1
 1945 2239 1945 2239 1945 2165 c 256,2,3
 1945 2091 1945 2091 1872 2091 c 0,4,5
 1798 2091 1798 2091 1798 2165 c 256,6,7
 1798 2239 1798 2239 1872 2239 c 0,0,1
907 2957 m 1,8,9
 949 2900 949 2900 987 2894.5 c 128,-1,10
 1025 2889 1025 2889 1063 2895 c 0,11,12
 1119 2905 1119 2905 1117 2974 c 128,-1,13
 1115 3043 1115 3043 1049 3038 c 1,14,15
 985 3032 985 3032 961 3012.5 c 128,-1,16
 937 2993 937 2993 907 2957 c 1,8,9
724 2393 m 1,17,18
 705 2487 705 2487 703.5 2575 c 128,-1,19
 702 2663 702 2663 708 2702 c 0,20,21
 718 2771 718 2771 736 2835 c 128,-1,22
 754 2899 754 2899 780 2942 c 0,23,24
 819 3008 819 3008 882 3054.5 c 128,-1,25
 945 3101 945 3101 1021 3106 c 1,26,27
 1103 3110 1103 3110 1140.5 3069.5 c 128,-1,28
 1178 3029 1178 3029 1178 2977.5 c 128,-1,29
 1178 2926 1178 2926 1146.5 2881 c 128,-1,30
 1115 2836 1115 2836 1060 2832 c 0,31,32
 967 2824 967 2824 932.5 2844.5 c 128,-1,33
 898 2865 898 2865 860 2898 c 1,34,35
 837 2862 837 2862 808.5 2802.5 c 128,-1,36
 780 2743 780 2743 771 2686 c 0,37,38
 761 2628 761 2628 769 2587 c 1,39,40
 804 2653 804 2653 863.5 2695.5 c 128,-1,41
 923 2738 923 2738 1001 2738 c 0,42,43
 1130 2738 1130 2738 1208 2637.5 c 128,-1,44
 1286 2537 1286 2537 1286 2414 c 0,45,46
 1286 2286 1286 2286 1210 2188.5 c 128,-1,47
 1134 2091 1134 2091 1005 2091 c 0,48,49
 879 2091 879 2091 803.5 2181.5 c 128,-1,50
 728 2272 728 2272 724 2393 c 1,17,18
844 2224 m 0,51,52
 889 2190 889 2190 942 2192.5 c 128,-1,53
 995 2195 995 2195 1036 2225 c 0,54,55
 1072 2252 1072 2252 1113.5 2294.5 c 128,-1,56
 1155 2337 1155 2337 1175 2379 c 1,57,58
 1202 2439 1202 2439 1202 2493 c 128,-1,59
 1202 2547 1202 2547 1187 2580 c 0,60,61
 1156 2644 1156 2644 1086 2640 c 128,-1,62
 1016 2636 1016 2636 969 2605 c 0,63,64
 848 2524 848 2524 813 2373 c 0,65,66
 804 2338 804 2338 808 2292.5 c 128,-1,67
 812 2247 812 2247 844 2224 c 0,51,52
1477 2775 m 1,68,-1
 1513 2945 l 1,69,70
 1527 3016 1527 3016 1539 3042 c 1,71,72
 1567 3109 1567 3109 1625 3103 c 0,73,74
 1694 3096 1694 3096 1658 3028 c 1,75,76
 1650 3010 1650 3010 1604 2935 c 2,77,-1
 1503 2772 l 1,78,-1
 1477 2775 l 1,68,-1
EndSplineSet
EndChar

StartChar: three
Encoding: 51 51 22
Width: 2171
Flags: W
LayerCount: 2
Fore
SplineSet
1580 2775 m 1,0,-1
 1616 2945 l 1,1,2
 1630 3016 1630 3016 1642 3042 c 1,3,4
 1670 3109 1670 3109 1728 3103 c 0,5,6
 1797 3096 1797 3096 1761 3028 c 1,7,8
 1753 3010 1753 3010 1707 2935 c 2,9,-1
 1606 2772 l 1,10,-1
 1580 2775 l 1,0,-1
1975 2239 m 0,11,12
 2048 2239 2048 2239 2048 2165 c 256,13,14
 2048 2091 2048 2091 1975 2091 c 0,15,16
 1901 2091 1901 2091 1901 2165 c 256,17,18
 1901 2239 1901 2239 1975 2239 c 0,11,12
1311 2713 m 0,19,20
 1336 2728 1336 2728 1385 2708.5 c 128,-1,21
 1434 2689 1434 2689 1431 2671 c 1,22,23
 1362 2578 1362 2578 1280.5 2497 c 128,-1,24
 1199 2416 1199 2416 1136 2339 c 0,25,26
 1118 2318 1118 2318 1099 2271.5 c 128,-1,27
 1080 2225 1080 2225 1080 2199 c 1,28,29
 1074 2070 1074 2070 1106.5 1971.5 c 128,-1,30
 1139 1873 1139 1873 1128 1754 c 0,31,32
 1124 1715 1124 1715 1108.5 1685 c 128,-1,33
 1093 1655 1093 1655 1063 1655 c 256,34,35
 1033 1655 1033 1655 1009.5 1688 c 128,-1,36
 986 1721 986 1721 986 1763 c 0,37,38
 986 1822 986 1822 998 1871 c 128,-1,39
 1010 1920 1010 1920 1018 1975 c 1,40,41
 1025 2032 1025 2032 1030 2079.5 c 128,-1,42
 1035 2127 1035 2127 1035 2191 c 1,43,44
 1032 2215 1032 2215 1019.5 2283.5 c 128,-1,45
 1007 2352 1007 2352 982 2424 c 128,-1,46
 957 2496 957 2496 919 2552.5 c 128,-1,47
 881 2609 881 2609 826 2609 c 0,48,49
 770 2609 770 2609 757.5 2570 c 128,-1,50
 745 2531 745 2531 742 2488 c 1,51,-1
 711 2488 l 1,52,53
 710 2499 710 2499 709 2508 c 128,-1,54
 708 2517 708 2517 708 2523 c 0,55,56
 703 2584 703 2584 722.5 2654 c 128,-1,57
 742 2724 742 2724 824 2724 c 256,58,59
 906 2724 906 2724 936 2653.5 c 128,-1,60
 966 2583 966 2583 993 2524 c 0,61,62
 1005 2496 1005 2496 1021.5 2427 c 128,-1,63
 1038 2358 1038 2358 1062 2265 c 1,64,65
 1065 2273 1065 2273 1075.5 2308 c 128,-1,66
 1086 2343 1086 2343 1101 2370 c 0,67,68
 1146 2453 1146 2453 1211.5 2572.5 c 128,-1,69
 1277 2692 1277 2692 1311 2713 c 0,19,20
EndSplineSet
EndChar

StartChar: four
Encoding: 52 52 23
Width: 2048
Flags: W
LayerCount: 2
Fore
SplineSet
1457 2775 m 1,0,-1
 1493 2945 l 1,1,2
 1507 3016 1507 3016 1519 3042 c 1,3,4
 1547 3109 1547 3109 1605 3103 c 0,5,6
 1674 3096 1674 3096 1638 3028 c 1,7,8
 1630 3010 1630 3010 1584 2935 c 2,9,-1
 1483 2772 l 1,10,-1
 1457 2775 l 1,0,-1
1852 2239 m 0,11,12
 1925 2239 1925 2239 1925 2165 c 256,13,14
 1925 2091 1925 2091 1852 2091 c 0,15,16
 1778 2091 1778 2091 1778 2165 c 256,17,18
 1778 2239 1778 2239 1852 2239 c 0,11,12
938 2735 m 1,19,20
 837 2801 837 2801 765 2891 c 1,21,22
 706 2974 706 2974 779 3062 c 0,23,24
 820 3110 820 3110 924 3072 c 1,25,26
 1026 3033 1026 3033 1091.5 3015.5 c 128,-1,27
 1157 2998 1157 2998 1173 2993 c 1,28,29
 1244 2965 1244 2965 1182 2904 c 0,30,31
 1158 2879 1158 2879 1121.5 2886.5 c 128,-1,32
 1085 2894 1085 2894 1069 2904 c 1,33,34
 807 3028 807 3028 790 3005 c 0,35,36
 758 2961 758 2961 815 2902 c 0,37,38
 833 2882 833 2882 879 2844 c 128,-1,39
 925 2806 925 2806 988 2767 c 0,40,41
 1010 2753 1010 2753 1036 2741 c 128,-1,42
 1062 2729 1062 2729 1086 2717 c 1,43,44
 1169 2680 1169 2680 1217.5 2595 c 128,-1,45
 1266 2510 1266 2510 1266 2414 c 0,46,47
 1266 2286 1266 2286 1190 2188.5 c 128,-1,48
 1114 2091 1114 2091 985 2091 c 256,49,50
 856 2091 856 2091 780 2187 c 128,-1,51
 704 2283 704 2283 704 2409 c 0,52,53
 704 2520 704 2520 767 2617.5 c 128,-1,54
 830 2715 830 2715 938 2735 c 1,19,20
819 2218 m 1,55,56
 866 2183 866 2183 920 2186 c 128,-1,57
 974 2189 974 2189 1016 2219 c 0,58,59
 1054 2246 1054 2246 1096.5 2290 c 128,-1,60
 1139 2334 1139 2334 1160 2377 c 1,61,62
 1188 2440 1188 2440 1187.5 2496 c 128,-1,63
 1187 2552 1187 2552 1172 2585 c 0,64,65
 1140 2651 1140 2651 1068 2647 c 128,-1,66
 996 2643 996 2643 948 2611 c 0,67,68
 824 2526 824 2526 787 2371 c 0,69,70
 778 2335 778 2335 782 2288 c 128,-1,71
 786 2241 786 2241 819 2218 c 1,55,56
EndSplineSet
EndChar

StartChar: five
Encoding: 53 53 24
Width: 4299
Flags: W
LayerCount: 2
Fore
SplineSet
3863 2722 m 0,0,1
 3920 2712 3920 2712 3892.5 2647.5 c 128,-1,2
 3865 2583 3865 2583 3805 2583 c 0,3,4
 3703 2583 3703 2583 3628 2589 c 128,-1,5
 3553 2595 3553 2595 3515 2513 c 1,6,7
 3487 2455 3487 2455 3487 2390 c 0,8,9
 3487 2218 3487 2218 3667 2218 c 0,10,11
 3703 2218 3703 2218 3739 2219.5 c 128,-1,12
 3775 2221 3775 2221 3812 2221 c 0,13,14
 3904 2219 3904 2219 3949 2142 c 1,15,16
 3976 2093 3976 2093 3976 2052 c 0,17,18
 3976 2006 3976 2006 3959 1959 c 0,19,20
 3943 1914 3943 1914 3910 1878 c 1,21,22
 3876 1839 3876 1839 3837 1828 c 0,23,24
 3797 1817 3797 1817 3768 1817 c 0,25,26
 3723 1817 3723 1817 3692 1839 c 256,27,28
 3661 1861 3661 1861 3661 1897 c 0,29,30
 3661 1972 3661 1972 3731 1972 c 0,31,32
 3742 1972 3742 1972 3796 1963 c 0,33,34
 3810 1960 3810 1960 3817 1951 c 128,-1,35
 3824 1942 3824 1942 3833 1942 c 0,36,37
 3914 1942 3914 1942 3914 2025 c 2,38,-1
 3914 2034 l 2,39,40
 3914 2062 3914 2062 3888 2083 c 128,-1,41
 3862 2104 3862 2104 3813 2098 c 1,42,43
 3802 2095 3802 2095 3761 2091.5 c 128,-1,44
 3720 2088 3720 2088 3705 2091 c 0,45,46
 3605 2106 3605 2106 3520.5 2194 c 128,-1,47
 3436 2282 3436 2282 3436 2381 c 0,48,49
 3436 2455 3436 2455 3473 2542 c 1,50,51
 3576 2771 3576 2771 3863 2722 c 0,0,1
681 2807 m 1,52,53
 684 2958 684 2958 785 3058 c 0,54,55
 821 3093 821 3093 870.5 3119 c 128,-1,56
 920 3145 920 3145 973 3145 c 0,57,58
 1053 3145 1053 3145 1137 3099.5 c 128,-1,59
 1221 3054 1221 3054 1243 2944 c 1,60,61
 1265 2870 1265 2870 1224.5 2810.5 c 128,-1,62
 1184 2751 1184 2751 1127 2711 c 1,63,64
 1157 2683 1157 2683 1200.5 2644 c 128,-1,65
 1244 2605 1244 2605 1274 2557 c 1,66,67
 1302 2509 1302 2509 1316 2477.5 c 128,-1,68
 1330 2446 1330 2446 1330 2393 c 0,69,70
 1330 2267 1330 2267 1244 2174 c 1,71,72
 1156 2091 1156 2091 1027 2091 c 0,73,74
 942 2091 942 2091 878 2129.5 c 128,-1,75
 814 2168 814 2168 817 2180 c 1,76,77
 831 2205 831 2205 868 2187 c 1,78,79
 889 2175 889 2175 921.5 2165.5 c 128,-1,80
 954 2156 954 2156 1007 2178 c 0,81,82
 1058 2199 1058 2199 1121 2272.5 c 128,-1,83
 1184 2346 1184 2346 1199 2412 c 0,84,85
 1222 2510 1222 2510 1200.5 2550 c 128,-1,86
 1179 2590 1179 2590 1137 2641 c 1,87,88
 1110 2668 1110 2668 1089 2681 c 1,89,90
 1062 2666 1062 2666 1038 2663.5 c 128,-1,91
 1014 2661 1014 2661 985 2661 c 0,92,93
 916 2661 916 2661 916 2731 c 1,94,95
 920 2799 920 2799 1003 2795 c 0,96,97
 1027 2794 1027 2794 1042.5 2785.5 c 128,-1,98
 1058 2777 1058 2777 1070 2770 c 1,99,100
 1107 2800 1107 2800 1151.5 2837 c 128,-1,101
 1196 2874 1196 2874 1190 2920 c 0,102,103
 1170 3071 1170 3071 995 3090 c 0,104,105
 955 3094 955 3094 909 3064 c 128,-1,106
 863 3034 863 3034 827 2994 c 0,107,108
 790 2952 790 2952 765 2897.5 c 128,-1,109
 740 2843 740 2843 742 2808 c 1,110,111
 742 2764 742 2764 739 2625 c 128,-1,112
 736 2486 736 2486 742 2415 c 0,113,114
 751 2296 751 2296 760 2220 c 128,-1,115
 769 2144 769 2144 798 1990 c 0,116,117
 804 1959 804 1959 822 1938.5 c 128,-1,118
 840 1918 840 1918 852 1835 c 1,119,120
 860 1710 860 1710 780 1710 c 0,121,122
 744 1710 744 1710 713 1746.5 c 128,-1,123
 682 1783 682 1783 679 1868 c 1,124,125
 677 1976 677 1976 678.5 2087 c 128,-1,126
 680 2198 680 2198 678 2324 c 1,127,128
 678 2322 678 2322 678 2377.5 c 128,-1,129
 678 2433 678 2433 679 2511 c 128,-1,130
 680 2589 680 2589 680.5 2671.5 c 128,-1,131
 681 2754 681 2754 681 2807 c 1,52,53
2197 2150 m 0,132,133
 2196 2216 2196 2216 2188.5 2281 c 128,-1,134
 2181 2346 2181 2346 2181 2412 c 0,135,136
 2181 2533 2181 2533 2253 2636 c 128,-1,137
 2325 2739 2325 2739 2451 2739 c 0,138,139
 2580 2739 2580 2739 2658 2638.5 c 128,-1,140
 2736 2538 2736 2538 2736 2415 c 0,141,142
 2736 2287 2736 2287 2660 2189 c 128,-1,143
 2584 2091 2584 2091 2455 2091 c 0,144,145
 2334 2091 2334 2091 2254 2183 c 1,146,147
 2259 2125 2259 2125 2262 2086.5 c 128,-1,148
 2265 2048 2265 2048 2280 1991 c 1,149,150
 2286 1960 2286 1960 2314 1928.5 c 128,-1,151
 2342 1897 2342 1897 2358 1818 c 0,152,153
 2366 1779 2366 1779 2346 1746 c 128,-1,154
 2326 1713 2326 1713 2291 1713 c 0,155,156
 2203 1713 2203 1713 2203 1838 c 1,157,158
 2201 1919 2201 1919 2199.5 1995.5 c 128,-1,159
 2198 2072 2198 2072 2197 2150 c 0,132,133
2288 2216 m 1,160,161
 2335 2180 2335 2180 2390 2183 c 128,-1,162
 2445 2186 2445 2186 2487 2217 c 0,163,164
 2525 2244 2525 2244 2568 2288.5 c 128,-1,165
 2611 2333 2611 2333 2632 2377 c 0,166,167
 2661 2440 2661 2440 2660 2496.5 c 128,-1,168
 2659 2553 2659 2553 2644 2586 c 0,169,170
 2612 2653 2612 2653 2538.5 2649 c 128,-1,171
 2465 2645 2465 2645 2417 2613 c 0,172,173
 2294 2530 2294 2530 2255 2371 c 0,174,175
 2246 2335 2246 2335 2250.5 2287.5 c 128,-1,176
 2255 2240 2255 2240 2288 2216 c 1,160,161
2825 2742 m 0,177,178
 2863 2746 2863 2746 2893 2707 c 1,179,180
 2912 2680 2912 2680 2910 2636 c 128,-1,181
 2908 2592 2908 2592 2902 2532 c 1,182,183
 2856 2146 2856 2146 3054 2146 c 0,184,185
 3163 2146 3163 2146 3198.5 2270.5 c 128,-1,186
 3234 2395 3234 2395 3230 2476 c 0,187,188
 3225 2566 3225 2566 3214.5 2618.5 c 128,-1,189
 3204 2671 3204 2671 3155 2713 c 1,190,-1
 3164 2740 l 1,191,192
 3214 2724 3214 2724 3242 2697 c 0,193,194
 3284 2656 3284 2656 3317 2577.5 c 128,-1,195
 3350 2499 3350 2499 3350 2416 c 0,196,197
 3350 2272 3350 2272 3275.5 2181.5 c 128,-1,198
 3201 2091 3201 2091 3070 2091 c 0,199,200
 2946 2091 2946 2091 2892 2175.5 c 128,-1,201
 2838 2260 2838 2260 2838 2365 c 0,202,203
 2838 2407 2838 2407 2841.5 2474 c 128,-1,204
 2845 2541 2845 2541 2832 2560 c 0,205,206
 2814 2585 2814 2585 2798 2602.5 c 128,-1,207
 2782 2620 2782 2620 2775 2646 c 1,208,209
 2766 2671 2766 2671 2777.5 2704.5 c 128,-1,210
 2789 2738 2789 2738 2825 2742 c 0,177,178
2966 2777 m 1,211,-1
 3091 2981 l 2,212,213
 3135 3054 3135 3054 3167 3054 c 0,214,215
 3188 3054 3188 3054 3188 3019 c 0,216,217
 3188 2958 3188 2958 3131 2903 c 1,218,-1
 3013 2786 l 1,219,-1
 2966 2777 l 1,211,-1
1493 2207 m 1,220,221
 1537 2171 1537 2171 1588.5 2185.5 c 128,-1,222
 1640 2200 1640 2200 1676 2231 c 1,223,224
 1709 2258 1709 2258 1754 2324.5 c 128,-1,225
 1799 2391 1799 2391 1814 2435 c 1,226,227
 1820 2456 1820 2456 1818.5 2500 c 128,-1,228
 1817 2544 1817 2544 1802 2574 c 0,229,230
 1770 2635 1770 2635 1694.5 2620.5 c 128,-1,231
 1619 2606 1619 2606 1574 2578 c 0,232,233
 1538 2555 1538 2555 1506.5 2513.5 c 128,-1,234
 1475 2472 1475 2472 1464 2409 c 256,235,236
 1453 2346 1453 2346 1458 2287.5 c 128,-1,237
 1463 2229 1463 2229 1493 2207 c 1,220,221
1940 2713 m 1,238,239
 1953 2740 1953 2740 2009.5 2739 c 128,-1,240
 2066 2738 2066 2738 2066 2699 c 0,241,242
 2066 2676 2066 2676 2038.5 2627.5 c 128,-1,243
 2011 2579 2011 2579 1996 2559 c 1,244,245
 1981 2541 1981 2541 1949.5 2473 c 128,-1,246
 1918 2405 1918 2405 1889 2342 c 1,247,248
 1889 2330 1889 2330 1898 2303.5 c 128,-1,249
 1907 2277 1907 2277 1915 2261 c 1,250,251
 1927 2230 1927 2230 1964 2209 c 0,252,253
 1987 2196 1987 2196 2013 2242 c 128,-1,254
 2039 2288 2039 2288 2069 2282 c 0,255,256
 2097 2276 2097 2276 2101 2236 c 128,-1,257
 2105 2196 2105 2196 2080 2148 c 1,258,259
 2050 2093 2050 2093 1999 2093 c 0,260,261
 1961 2093 1961 2093 1943 2114 c 0,262,263
 1889 2176 1889 2176 1854 2279 c 1,264,265
 1779 2183 1779 2183 1727.5 2138 c 128,-1,266
 1676 2093 1676 2093 1613 2093 c 0,267,268
 1493 2093 1493 2093 1442.5 2186 c 128,-1,269
 1392 2279 1392 2279 1404 2399 c 0,270,271
 1414 2508 1414 2508 1488.5 2618 c 128,-1,272
 1563 2728 1563 2728 1700 2715 c 0,273,274
 1763 2709 1763 2709 1806.5 2655.5 c 128,-1,275
 1850 2602 1850 2602 1857 2539 c 1,276,277
 1877 2586 1877 2586 1894.5 2628 c 128,-1,278
 1912 2670 1912 2670 1940 2713 c 1,238,239
EndSplineSet
EndChar

StartChar: six
Encoding: 54 54 25
Width: 1906
Flags: W
LayerCount: 2
Fore
SplineSet
887 2037 m 1,0,1
 803 1975 803 1975 776 1874 c 1,2,3
 757 1796 757 1796 774 1724 c 0,4,5
 792 1651 792 1651 926 1724 c 1,6,7
 1003 1762 1003 1762 1008 1792 c 0,8,9
 1013 1817 1013 1817 1027 1861 c 0,10,11
 1067 1990 1067 1990 1027 2187 c 1,12,13
 1019 2236 1019 2236 1019 2335 c 256,14,15
 1019 2434 1019 2434 1082 2536 c 0,16,17
 1115 2589 1115 2589 1187 2602 c 1,18,19
 1262 2613 1262 2613 1309 2613 c 0,20,21
 1428 2613 1428 2613 1485 2502 c 1,22,23
 1494 2409 1494 2409 1493 2354 c 1,24,25
 1490 2295 1490 2295 1495 2246 c 1,26,27
 1512 2143 1512 2143 1519 2122 c 1,28,29
 1526 2093 1526 2093 1617 2086 c 1,30,31
 1692 2060 1692 2060 1697 1946 c 0,32,33
 1700 1871 1700 1871 1692.5 1798 c 128,-1,34
 1685 1725 1685 1725 1697 1652 c 1,35,36
 1700 1623 1700 1623 1715 1574 c 0,37,38
 1725 1538 1725 1538 1795 1517 c 1,39,40
 1815 1508 1815 1508 1816 1510 c 1,41,42
 1816 1501 1816 1501 1734.5 1511 c 128,-1,43
 1653 1521 1653 1521 1635 1530 c 1,44,45
 1541 1570 1541 1570 1519 1680 c 0,46,47
 1505 1749 1505 1749 1509 1818 c 128,-1,48
 1513 1887 1513 1887 1501 1957 c 0,49,50
 1476 2092 1476 2092 1436 2089 c 1,51,52
 1393 2087 1393 2087 1345 2145 c 1,53,54
 1296 2202 1296 2202 1316 2311 c 1,55,56
 1338 2422 1338 2422 1283 2443 c 1,57,58
 1259 2450 1259 2450 1206 2453 c 1,59,60
 1149 2455 1149 2455 1125 2425 c 1,61,62
 1094 2376 1094 2376 1094 2316 c 1,63,64
 1092 2271 1092 2271 1089 2190 c 1,65,66
 1099 1992 1099 1992 1087 1838 c 1,67,68
 1087 1785 1087 1785 1078 1715 c 0,69,70
 1068 1643 1068 1643 981 1598 c 1,71,72
 811 1507 811 1507 705 1634 c 1,73,74
 679 1662 679 1662 653 1731 c 1,75,76
 626 1794 626 1794 647 1887 c 1,77,78
 686 2039 686 2039 802 2092 c 1,79,80
 889 2125 889 2125 914 2124 c 1,81,82
 939 2120 939 2120 1001 2122 c 1,83,84
 1054 2091 1054 2091 1002 2085 c 0,85,86
 952 2079 952 2079 887 2037 c 1,0,1
1067 2869 m 256,87,88
 1137 2869 1137 2869 1137 2798 c 0,89,90
 1137 2728 1137 2728 1067 2728 c 256,91,92
 997 2728 997 2728 997 2798 c 0,93,94
 997 2869 997 2869 1067 2869 c 256,87,88
1472 2869 m 0,95,96
 1542 2869 1542 2869 1542 2798 c 0,97,98
 1542 2728 1542 2728 1472 2728 c 0,99,100
 1401 2728 1401 2728 1401 2798 c 0,101,102
 1401 2869 1401 2869 1472 2869 c 0,95,96
EndSplineSet
EndChar

StartChar: seven
Encoding: 55 55 26
Width: 1936
Flags: W
LayerCount: 2
Fore
SplineSet
1842 1970 m 0,0,1
 1844 1970 1844 1970 1844 1967 c 1,2,3
 1844 1967 1844 1967 1843 1966 c 128,-1,4
 1842 1965 1842 1965 1842 1965 c 2,5,6
 1841 1965 1841 1965 1840 1966 c 128,-1,7
 1839 1967 1839 1967 1839 1967 c 1,8,9
 1839 1970 1839 1970 1842 1970 c 0,0,1
1067 2931 m 256,10,11
 1137 2931 1137 2931 1137 2860 c 256,12,13
 1137 2789 1137 2789 1067 2789 c 256,14,15
 997 2789 997 2789 997 2860 c 256,16,17
 997 2931 997 2931 1067 2931 c 256,10,11
1472 2931 m 0,18,19
 1542 2931 1542 2931 1542 2860 c 256,20,21
 1542 2789 1542 2789 1472 2789 c 0,22,23
 1401 2789 1401 2789 1401 2860 c 256,24,25
 1401 2931 1401 2931 1472 2931 c 0,18,19
1513 2513 m 1,26,-1
 1522 2636 l 1,27,28
 1568 2649 1568 2649 1619 2628 c 1,29,30
 1621 2547 1621 2547 1610 2352.5 c 128,-1,31
 1599 2158 1599 2158 1592 1610 c 0,32,33
 1591 1580 1591 1580 1585 1549.5 c 128,-1,34
 1579 1519 1579 1519 1570 1513 c 0,35,36
 1526 1479 1526 1479 1474 1506 c 0,37,38
 1459 1513 1459 1513 1453 1548.5 c 128,-1,39
 1447 1584 1447 1584 1448 1610 c 1,40,41
 1448 1688 1448 1688 1455.5 1717 c 128,-1,42
 1463 1746 1463 1746 1466 1767 c 0,43,44
 1481 1890 1481 1890 1486.5 1976 c 128,-1,45
 1492 2062 1492 2062 1500 2185 c 1,46,47
 1414 2065 1414 2065 1244 2081 c 0,48,49
 1125 2092 1125 2092 1060 2181.5 c 128,-1,50
 995 2271 995 2271 1007 2384 c 0,51,52
 1019 2496 1019 2496 1100.5 2566.5 c 128,-1,53
 1182 2637 1182 2637 1301 2626 c 1,54,55
 1449 2611 1449 2611 1513 2513 c 1,26,-1
1374 2562 m 1,56,57
 1313 2588 1313 2588 1254 2543.5 c 128,-1,58
 1195 2499 1195 2499 1156 2410 c 0,59,60
 1116 2320 1116 2320 1130 2237.5 c 128,-1,61
 1144 2155 1144 2155 1205 2129 c 1,62,63
 1280 2102 1280 2102 1347 2134 c 128,-1,64
 1414 2166 1414 2166 1443 2280 c 0,65,66
 1499 2506 1499 2506 1374 2562 c 1,56,57
EndSplineSet
EndChar

StartChar: eight
Encoding: 56 56 27
Width: 2524
Flags: W
LayerCount: 2
Fore
SplineSet
790 2753 m 1,0,1
 818 2830 818 2830 956 2807 c 1,2,3
 985 2801 985 2801 990.5 2742.5 c 128,-1,4
 996 2684 996 2684 951 2618 c 1,5,6
 915 2570 915 2570 920 2518.5 c 128,-1,7
 925 2467 925 2467 1033 2458 c 1,8,9
 1152 2439 1152 2439 1288 2441.5 c 128,-1,10
 1424 2444 1424 2444 1724 2473.5 c 128,-1,11
 2024 2503 2024 2503 2203 2503 c 1,12,13
 2296 2502 2296 2502 2350 2419 c 128,-1,14
 2404 2336 2404 2336 2395 2243 c 1,15,16
 2377 2086 2377 2086 2255 2098 c 0,17,18
 2225 2101 2225 2101 2197 2139.5 c 128,-1,19
 2169 2178 2169 2178 2193 2232 c 256,20,21
 2217 2286 2217 2286 2250 2288.5 c 128,-1,22
 2283 2291 2283 2291 2296 2342 c 0,23,24
 2318 2428 2318 2428 2209 2425 c 1,25,26
 1876 2407 1876 2407 1577.5 2375 c 128,-1,27
 1279 2343 1279 2343 1098 2373 c 0,28,29
 1008 2387 1008 2387 914 2435 c 128,-1,30
 820 2483 820 2483 788 2587 c 0,31,32
 761 2677 761 2677 790 2753 c 1,0,1
1450 2753 m 256,33,34
 1520 2753 1520 2753 1520 2683 c 0,35,36
 1520 2612 1520 2612 1450 2612 c 256,37,38
 1380 2612 1380 2612 1380 2683 c 0,39,40
 1380 2753 1380 2753 1450 2753 c 256,33,34
1762 2753 m 0,41,42
 1833 2753 1833 2753 1833 2683 c 0,43,44
 1833 2612 1833 2612 1762 2612 c 0,45,46
 1692 2612 1692 2612 1692 2683 c 0,47,48
 1692 2753 1692 2753 1762 2753 c 0,41,42
EndSplineSet
EndChar

StartChar: nine
Encoding: 57 57 28
Width: 2090
Flags: W
LayerCount: 2
Fore
SplineSet
1522 2776 m 256,0,1
 1592 2776 1592 2776 1592 2706 c 256,2,3
 1592 2636 1592 2636 1522 2636 c 256,4,5
 1452 2636 1452 2636 1452 2706 c 256,6,7
 1452 2776 1452 2776 1522 2776 c 256,0,1
1025 2776 m 256,8,9
 1095 2776 1095 2776 1095 2706 c 256,10,11
 1095 2636 1095 2636 1025 2636 c 256,12,13
 955 2636 955 2636 955 2706 c 256,14,15
 955 2776 955 2776 1025 2776 c 256,8,9
1409 1549 m 1,16,17
 1400 1533 1400 1533 1341 1537.5 c 128,-1,18
 1282 1542 1282 1542 1218.5 1581 c 128,-1,19
 1155 1620 1155 1620 1108 1699 c 128,-1,20
 1061 1778 1061 1778 1077 1912 c 1,21,22
 1101 2127 1101 2127 1084.5 2265 c 128,-1,23
 1068 2403 1068 2403 945 2376 c 0,24,25
 867 2358 867 2358 904.5 2289 c 128,-1,26
 942 2220 942 2220 858 2193 c 1,27,28
 821 2180 821 2180 789.5 2208.5 c 128,-1,29
 758 2237 758 2237 758 2276 c 0,30,31
 758 2370 758 2370 839 2401 c 0,32,33
 884 2418 884 2418 958.5 2418 c 128,-1,34
 1033 2418 1033 2418 1092 2381 c 1,35,36
 1204 2308 1204 2308 1236.5 2219 c 128,-1,37
 1269 2130 1269 2130 1270 1797 c 0,38,39
 1270 1635 1270 1635 1341.5 1607 c 128,-1,40
 1413 1579 1413 1579 1409 1549 c 1,16,17
1987 1549 m 1,41,42
 1978 1533 1978 1533 1919 1537.5 c 128,-1,43
 1860 1542 1860 1542 1796.5 1581 c 128,-1,44
 1733 1620 1733 1620 1686 1699 c 128,-1,45
 1639 1778 1639 1778 1655 1912 c 1,46,47
 1679 2127 1679 2127 1662 2265 c 128,-1,48
 1645 2403 1645 2403 1522 2376 c 0,49,50
 1444 2358 1444 2358 1482 2289 c 128,-1,51
 1520 2220 1520 2220 1436 2193 c 0,52,53
 1398 2180 1398 2180 1367 2208.5 c 128,-1,54
 1336 2237 1336 2237 1336 2276 c 0,55,56
 1336 2370 1336 2370 1417 2401 c 0,57,58
 1462 2418 1462 2418 1536.5 2418 c 128,-1,59
 1611 2418 1611 2418 1670 2381 c 1,60,61
 1782 2308 1782 2308 1814.5 2219 c 128,-1,62
 1847 2130 1847 2130 1848 1797 c 0,63,64
 1848 1635 1848 1635 1919.5 1607 c 128,-1,65
 1991 1579 1991 1579 1987 1549 c 1,41,42
EndSplineSet
EndChar

StartChar: colon
Encoding: 58 58 29
Width: 0
Flags: W
LayerCount: 2
Fore
SplineSet
-669 3394 m 2,0,-1
 -1388 3394 l 2,1,2
 -1398 3394 -1398 3394 -1401 3414 c 1,3,-1
 -1107 3921 l 1,4,-1
 -965 3921 l 1,5,-1
 -661 3417 l 1,6,7
 -654 3411 -654 3411 -659 3402.5 c 128,-1,8
 -664 3394 -664 3394 -669 3394 c 2,0,-1
-844 3481 m 1,9,-1
 -1062 3831 l 1,10,-1
 -1259 3481 l 1,11,-1
 -844 3481 l 1,9,-1
-275 3561 m 1,12,-1
 -275 3619 l 1,13,14
 -185 3574 -185 3574 -149 3551.5 c 128,-1,15
 -113 3529 -113 3529 -40 3471 c 1,16,-1
 -40 4000 l 1,17,-1
 36 4000 l 1,18,-1
 36 3471 l 1,19,20
 118 3549 118 3549 271 3621 c 1,21,-1
 271 3562 l 1,22,23
 162 3464 162 3464 105 3393.5 c 128,-1,24
 48 3323 48 3323 13 3248 c 1,25,-1
 -22 3248 l 1,26,27
 -50 3313 -50 3313 -107.5 3387 c 128,-1,28
 -165 3461 -165 3461 -275 3561 c 1,12,-1
-434 3397 m 1,29,-1
 -557 3396 l 1,30,-1
 -557 3917 l 1,31,-1
 -438 3919 l 1,32,-1
 -434 3397 l 1,29,-1
EndSplineSet
EndChar

StartChar: semicolon
Encoding: 59 59 30
Width: 0
Flags: W
LayerCount: 2
Fore
SplineSet
-1479 3394 m 2,0,-1
 -2198 3394 l 2,1,2
 -2208 3394 -2208 3394 -2211 3414 c 1,3,-1
 -1917 3921 l 1,4,-1
 -1775 3921 l 1,5,-1
 -1471 3417 l 1,6,7
 -1464 3411 -1464 3411 -1469 3402.5 c 128,-1,8
 -1474 3394 -1474 3394 -1479 3394 c 2,0,-1
-1654 3481 m 1,9,-1
 -1872 3831 l 1,10,-1
 -2069 3481 l 1,11,-1
 -1654 3481 l 1,9,-1
-1085 3561 m 1,12,-1
 -1085 3619 l 1,13,14
 -995 3574 -995 3574 -959 3551.5 c 128,-1,15
 -923 3529 -923 3529 -850 3471 c 1,16,-1
 -850 4000 l 1,17,-1
 -774 4000 l 1,18,-1
 -774 3471 l 1,19,20
 -692 3549 -692 3549 -539 3621 c 1,21,-1
 -539 3562 l 1,22,23
 -648 3464 -648 3464 -705 3393.5 c 128,-1,24
 -762 3323 -762 3323 -797 3248 c 1,25,-1
 -832 3248 l 1,26,27
 -860 3313 -860 3313 -917.5 3387 c 128,-1,28
 -975 3461 -975 3461 -1085 3561 c 1,12,-1
-1234 3397 m 1,29,-1
 -1367 3396 l 1,30,-1
 -1367 3917 l 1,31,-1
 -1238 3919 l 1,32,-1
 -1234 3397 l 1,29,-1
EndSplineSet
EndChar

StartChar: less
Encoding: 60 60 31
Width: 0
Flags: W
LayerCount: 2
Fore
SplineSet
14 1970 m 0,0,1
 16 1970 16 1970 16 1967 c 0,2,3
 16 1965 16 1965 14 1965 c 0,4,5
 11 1965 11 1965 11 1967 c 0,6,7
 11 1970 11 1970 14 1970 c 0,0,1
-502 3328 m 1,8,9
 -556 3251 -556 3251 -611.5 3173.5 c 128,-1,10
 -667 3096 -667 3096 -718 3018 c 1,11,12
 -712 2925 -712 2925 -677 2866 c 1,13,14
 -632 2802 -632 2802 -598.5 2798 c 128,-1,15
 -565 2794 -565 2794 -515 2880 c 1,16,17
 -485 2912 -485 2912 -456.5 2900.5 c 128,-1,18
 -428 2889 -428 2889 -422 2869 c 0,19,20
 -408 2825 -408 2825 -421 2793 c 128,-1,21
 -434 2761 -434 2761 -446 2747 c 0,22,23
 -457 2733 -457 2733 -485.5 2716.5 c 128,-1,24
 -514 2700 -514 2700 -545 2703 c 0,25,26
 -583 2706 -583 2706 -609 2717 c 1,27,28
 -622 2724 -622 2724 -634 2737.5 c 128,-1,29
 -646 2751 -646 2751 -657 2762 c 1,30,31
 -694 2810 -694 2810 -710 2847 c 0,32,33
 -717 2861 -717 2861 -726.5 2894.5 c 128,-1,34
 -736 2928 -736 2928 -742 2978 c 1,35,-1
 -911 2730 l 1,36,-1
 -1037 2730 l 1,37,38
 -995 2789 -995 2789 -957 2839 c 128,-1,39
 -919 2889 -919 2889 -872 2969 c 0,40,41
 -859 2991 -859 2991 -859.5 3073 c 128,-1,42
 -860 3155 -860 3155 -869 3181 c 1,43,44
 -884 3233 -884 3233 -919 3233 c 0,45,46
 -939 3233 -939 3233 -954.5 3221 c 128,-1,47
 -970 3209 -970 3209 -1004 3215 c 1,48,49
 -1022 3217 -1022 3217 -1032.5 3248 c 128,-1,50
 -1043 3279 -1043 3279 -1025 3309 c 0,51,52
 -1002 3347 -1002 3347 -940 3347 c 0,53,54
 -903 3347 -903 3347 -872 3316 c 0,55,56
 -838 3282 -838 3282 -833 3232 c 1,57,58
 -826 3181 -826 3181 -822.5 3136.5 c 128,-1,59
 -819 3092 -819 3092 -829 3034 c 1,60,-1
 -628 3328 l 1,61,-1
 -502 3328 l 1,8,9
EndSplineSet
EndChar

StartChar: equal
Encoding: 61 61 32
Width: 2405
Flags: W
LayerCount: 2
Fore
SplineSet
1285 2614 m 1,0,1
 1380 2591 1380 2591 1426 2541 c 0,2,3
 1491 2471 1491 2471 1491 2372 c 0,4,5
 1491 2294 1491 2294 1448 2226 c 1,6,7
 1406 2157 1406 2157 1331 2123 c 1,8,9
 1254 2091 1254 2091 1102 2091 c 2,10,-1
 673 2091 l 1,11,-1
 673 2119 l 1,12,-1
 707 2119 l 2,13,14
 763 2119 763 2119 789 2160 c 0,15,16
 805 2187 805 2187 805 2273 c 2,17,-1
 805 2935 l 2,18,19
 805 3028 805 3028 785 3055 c 1,20,21
 758 3088 758 3088 707 3088 c 2,22,-1
 673 3088 l 1,23,-1
 673 3116 l 1,24,-1
 1066 3116 l 2,25,26
 1175 3116 1175 3116 1243 3098 c 1,27,28
 1342 3070 1342 3070 1396 3001 c 1,29,30
 1449 2931 1449 2931 1449 2842 c 0,31,32
 1449 2765 1449 2765 1407 2704 c 1,33,34
 1363 2642 1363 2642 1285 2614 c 1,35,-1
 1285 2614 l 1,0,1
933 2655 m 1,36,37
 986 2644 986 2644 1058 2644 c 0,38,39
 1157 2644 1157 2644 1207 2668 c 0,40,41
 1256 2692 1256 2692 1282 2741 c 0,42,43
 1309 2790 1309 2790 1309 2848 c 0,44,45
 1309 2937 1309 2937 1244 3002 c 1,46,47
 1176 3066 1176 3066 1053 3066 c 0,48,49
 988 3066 988 3066 933 3049 c 1,50,-1
 933 2655 l 1,36,37
933 2165 m 1,51,52
 1013 2145 1013 2145 1085 2145 c 0,53,54
 1208 2145 1208 2145 1272 2206 c 0,55,56
 1336 2268 1336 2268 1336 2358 c 0,57,58
 1336 2416 1336 2416 1307 2473 c 0,59,60
 1278 2528 1278 2528 1213 2560 c 0,61,62
 1147 2592 1147 2592 1047 2592 c 0,63,64
 966 2592 966 2592 933 2585 c 1,65,-1
 933 2165 l 1,51,52
1913 2442 m 1,66,-1
 1913 2442 l 1,67,68
 1808 2391 1808 2391 1770 2354 c 1,69,70
 1731 2313 1731 2313 1731 2264 c 0,71,72
 1731 2209 1731 2209 1772 2173 c 0,73,74
 1812 2137 1812 2137 1875 2137 c 0,75,76
 1939 2137 1939 2137 1981 2176 c 0,77,78
 2021 2214 2021 2214 2021 2277 c 0,79,80
 2021 2331 2021 2331 1995 2370 c 1,81,82
 1967 2409 1967 2409 1913 2442 c 1,66,-1
1801 2486 m 1,83,-1
 1800 2486 l 1,84,85
 1715 2528 1715 2528 1679 2573 c 1,86,87
 1639 2620 1639 2620 1639 2677 c 0,88,89
 1639 2696 1639 2696 1644 2718 c 0,90,91
 1649 2738 1649 2738 1658 2756 c 1,92,-1
 1721 2756 l 1,93,94
 1721 2750 1721 2750 1720 2745 c 0,95,96
 1716 2701 1716 2701 1716 2700 c 0,97,98
 1716 2637 1716 2637 1749 2592 c 1,99,100
 1780 2548 1780 2548 1849 2518 c 1,101,102
 1943 2558 1943 2558 1994 2605 c 1,103,104
 2041 2650 2041 2650 2041 2704 c 0,105,106
 2041 2715 2041 2715 2040 2722 c 0,107,108
 2040 2727 2040 2727 2038.5 2735.5 c 128,-1,109
 2037 2744 2037 2744 2037 2756 c 1,110,-1
 2093 2756 l 1,111,112
 2108 2726 2108 2726 2113 2706 c 0,113,114
 2119 2682 2119 2682 2119 2659 c 0,115,116
 2119 2602 2119 2602 2079 2557 c 0,117,118
 2037 2509 2037 2509 1958 2474 c 1,119,120
 2043 2426 2043 2426 2082 2379 c 0,121,122
 2119 2334 2119 2334 2119 2276 c 0,123,124
 2119 2194 2119 2194 2053 2143 c 0,125,126
 1985 2091 1985 2091 1879 2091 c 0,127,128
 1776 2091 1776 2091 1708 2149 c 1,129,130
 1639 2206 1639 2206 1639 2289 c 0,131,132
 1639 2347 1639 2347 1679 2397 c 0,133,134
 1716 2444 1716 2444 1801 2486 c 1,83,-1
1689 3514 m 1,135,136
 1826 3511 1826 3511 1899 3506 c 128,-1,137
 1972 3501 1972 3501 2045 3490 c 0,138,139
 2147 3476 2147 3476 2197 3449 c 0,140,141
 2227 3433 2227 3433 2255.5 3404.5 c 128,-1,142
 2284 3376 2284 3376 2292 3341 c 0,143,144
 2308 3264 2308 3264 2277 3204 c 128,-1,145
 2246 3144 2246 3144 2169 3147 c 1,146,147
 2079 3148 2079 3148 2076 3248 c 0,148,149
 2075 3282 2075 3282 2108 3308 c 128,-1,150
 2141 3334 2141 3334 2179 3325 c 0,151,152
 2247 3309 2247 3309 2241 3342 c 0,153,154
 2233 3385 2233 3385 2176.5 3413 c 128,-1,155
 2120 3441 2120 3441 2058 3451 c 0,156,157
 1926 3471 1926 3471 1865 3472 c 128,-1,158
 1804 3473 1804 3473 1690 3471 c 1,159,160
 1683 3364 1683 3364 1604 3289 c 128,-1,161
 1525 3214 1525 3214 1416 3214 c 0,162,163
 1306 3213 1306 3213 1226.5 3286 c 128,-1,164
 1147 3359 1147 3359 1140 3468 c 1,165,166
 975 3470 975 3470 812.5 3459 c 128,-1,167
 650 3448 650 3448 485 3438 c 0,168,169
 443 3436 443 3436 439 3436 c 0,170,171
 432 3436 432 3436 418.5 3438.5 c 128,-1,172
 405 3441 405 3441 405 3447 c 2,173,-1
 405 3471 l 2,174,175
 405 3475 405 3475 418.5 3479 c 128,-1,176
 432 3483 432 3483 439 3484 c 0,177,178
 615 3493 615 3493 788.5 3501.5 c 128,-1,179
 962 3510 962 3510 1138 3510 c 1,180,181
 1146 3617 1146 3617 1225 3691.5 c 128,-1,182
 1304 3766 1304 3766 1413 3767 c 0,183,184
 1521 3767 1521 3767 1601 3693.5 c 128,-1,185
 1681 3620 1681 3620 1689 3514 c 1,135,136
1195 3510 m 1,186,-1
 1634 3513 l 1,187,188
 1626 3596 1626 3596 1562.5 3654 c 128,-1,189
 1499 3712 1499 3712 1413 3712 c 0,190,191
 1327 3711 1327 3711 1264.5 3652.5 c 128,-1,192
 1202 3594 1202 3594 1195 3510 c 1,186,-1
1194 3468 m 1,193,194
 1200 3381 1200 3381 1264.5 3325 c 128,-1,195
 1329 3269 1329 3269 1416 3270 c 0,196,197
 1501 3270 1501 3270 1564 3328.5 c 128,-1,198
 1627 3387 1627 3387 1634 3471 c 1,199,-1
 1194 3468 l 1,193,194
EndSplineSet
EndChar

StartChar: greater
Encoding: 62 62 33
Width: 0
Flags: W
LayerCount: 2
Fore
SplineSet
8 1970 m 0,0,1
 10 1970 10 1970 10 1967 c 0,2,3
 10 1965 10 1965 8 1965 c 0,4,5
 5 1965 5 1965 5 1967 c 0,6,7
 5 1970 5 1970 8 1970 c 0,0,1
-967 3349 m 1,8,9
 -868 3408 -868 3408 -810 3356.5 c 128,-1,10
 -752 3305 -752 3305 -655 3314 c 1,11,12
 -609 3316 -609 3316 -584.5 3344.5 c 128,-1,13
 -560 3373 -560 3373 -522 3372 c 1,14,15
 -501 3373 -501 3373 -502 3342.5 c 128,-1,16
 -503 3312 -503 3312 -522 3299 c 1,17,-1
 -909 2884 l 1,18,19
 -873 2905 -873 2905 -846 2921 c 128,-1,20
 -819 2937 -819 2937 -732 2928 c 1,21,22
 -684 2922 -684 2922 -629 2852.5 c 128,-1,23
 -574 2783 -574 2783 -544 2869 c 1,24,25
 -527 2936 -527 2936 -495.5 2940.5 c 128,-1,26
 -464 2945 -464 2945 -464 2908 c 0,27,28
 -464 2858 -464 2858 -500.5 2791 c 128,-1,29
 -537 2724 -537 2724 -680 2724 c 0,30,31
 -730 2724 -730 2724 -760 2754 c 128,-1,32
 -790 2784 -790 2784 -821 2808 c 128,-1,33
 -852 2832 -852 2832 -894.5 2828.5 c 128,-1,34
 -937 2825 -937 2825 -1013 2757 c 1,35,-1
 -1082 2757 l 1,36,-1
 -1082 2791 l 1,37,-1
 -652 3252 l 1,38,39
 -675 3235 -675 3235 -710.5 3217.5 c 128,-1,40
 -746 3200 -746 3200 -829 3212 c 1,41,42
 -922 3262 -922 3262 -975 3234.5 c 128,-1,43
 -1028 3207 -1028 3207 -1040 3207 c 1,44,45
 -1024 3254 -1024 3254 -1014 3277.5 c 128,-1,46
 -1004 3301 -1004 3301 -967 3349 c 1,8,9
EndSplineSet
EndChar

StartChar: question
Encoding: 63 63 34
Width: 0
Flags: W
LayerCount: 2
Fore
SplineSet
-1825 1296 m 1,0,1
 -1815 1237 -1815 1237 -1813.5 1201.5 c 128,-1,2
 -1812 1166 -1812 1166 -1828 1128 c 1,3,4
 -1856 1128 -1856 1128 -1929.5 1131 c 128,-1,5
 -2003 1134 -2003 1134 -2007 1102 c 1,6,7
 -2023 1039 -2023 1039 -2023 1005 c 128,-1,8
 -2023 971 -2023 971 -2009 919 c 1,9,10
 -1991 858 -1991 858 -1930 878 c 128,-1,11
 -1869 898 -1869 898 -1822 905 c 1,12,13
 -1816 866 -1816 866 -1832.5 809 c 128,-1,14
 -1849 752 -1849 752 -1863 737 c 0,15,16
 -1899 702 -1899 702 -1939 702 c 0,17,18
 -1962 702 -1962 702 -1986 725.5 c 128,-1,19
 -2010 749 -2010 749 -2017 769 c 0,20,21
 -2045 848 -2045 848 -2060 958 c 128,-1,22
 -2075 1068 -2075 1068 -2036 1140 c 1,23,-1
 -2210 1149 l 1,24,25
 -2218 995 -2218 995 -2227 934.5 c 128,-1,26
 -2236 874 -2236 874 -2260 783 c 0,27,28
 -2281 702 -2281 702 -2340 702 c 0,29,30
 -2366 702 -2366 702 -2383 720 c 0,31,32
 -2396 733 -2396 733 -2396 761 c 0,33,34
 -2396 767 -2396 767 -2392.5 779 c 128,-1,35
 -2389 791 -2389 791 -2389 793 c 0,36,37
 -2389 798 -2389 798 -2374 817.5 c 128,-1,38
 -2359 837 -2359 837 -2353 846 c 0,39,40
 -2339 865 -2339 865 -2319.5 881 c 128,-1,41
 -2300 897 -2300 897 -2286 929 c 0,42,43
 -2272 959 -2272 959 -2254 1054 c 128,-1,44
 -2236 1149 -2236 1149 -2286 1149 c 0,45,46
 -2324 1149 -2324 1149 -2355 1136 c 0,47,48
 -2388 1121 -2388 1121 -2422 1074 c 1,49,-1
 -2444 1074 l 1,50,51
 -2428 1173 -2428 1173 -2407.5 1222 c 128,-1,52
 -2387 1271 -2387 1271 -2368 1288 c 0,53,54
 -2333 1318 -2333 1318 -2275 1318 c 0,55,56
 -2171 1318 -2171 1318 -2049.5 1307 c 128,-1,57
 -1928 1296 -1928 1296 -1825 1296 c 1,0,1
8 1970 m 0,58,59
 10 1970 10 1970 10 1967 c 0,60,61
 10 1965 10 1965 8 1965 c 0,62,63
 5 1965 5 1965 5 1967 c 0,64,65
 5 1970 5 1970 8 1970 c 0,58,59
EndSplineSet
EndChar

StartChar: at
Encoding: 64 64 35
Width: 2148
Flags: W
LayerCount: 2
Fore
SplineSet
1214 2614 m 1,0,1
 1309 2591 1309 2591 1355 2541 c 1,2,3
 1420 2473 1420 2473 1420 2372 c 0,4,5
 1420 2294 1420 2294 1377 2226 c 1,6,7
 1335 2156 1335 2156 1260 2123 c 1,8,9
 1183 2091 1183 2091 1031 2091 c 2,10,-1
 602 2091 l 1,11,-1
 602 2119 l 1,12,-1
 636 2119 l 2,13,14
 693 2119 693 2119 718 2160 c 0,15,16
 733 2185 733 2185 733 2273 c 2,17,-1
 733 2935 l 2,18,19
 733 3030 733 3030 714 3055 c 0,20,21
 688 3088 688 3088 636 3088 c 2,22,-1
 602 3088 l 1,23,-1
 602 3116 l 1,24,-1
 995 3116 l 2,25,26
 1105 3116 1105 3116 1171 3098 c 0,27,28
 1271 3070 1271 3070 1325 3001 c 1,29,30
 1378 2931 1378 2931 1378 2842 c 0,31,32
 1378 2765 1378 2765 1336 2704 c 1,33,34
 1292 2642 1292 2642 1213 2614 c 1,35,-1
 1214 2614 l 1,0,1
862 2655 m 1,36,37
 915 2644 915 2644 987 2644 c 0,38,39
 1086 2644 1086 2644 1136 2668 c 0,40,41
 1185 2691 1185 2691 1212 2741 c 0,42,43
 1238 2791 1238 2791 1238 2848 c 0,44,45
 1238 2937 1238 2937 1173 3002 c 1,46,47
 1105 3066 1105 3066 982 3066 c 0,48,49
 917 3066 917 3066 862 3049 c 1,50,-1
 862 2655 l 1,36,37
862 2165 m 1,51,52
 942 2145 942 2145 1014 2145 c 0,53,54
 1138 2145 1138 2145 1201 2206 c 0,55,56
 1265 2268 1265 2268 1265 2358 c 0,57,58
 1265 2416 1265 2416 1236 2473 c 0,59,60
 1207 2528 1207 2528 1143 2560 c 1,61,62
 1075 2592 1075 2592 976 2592 c 0,63,64
 895 2592 895 2592 862 2585 c 1,65,-1
 862 2165 l 1,51,52
1557 2775 m 1,66,-1
 1593 2945 l 1,67,68
 1607 3016 1607 3016 1619 3042 c 1,69,70
 1647 3109 1647 3109 1705 3103 c 0,71,72
 1774 3096 1774 3096 1738 3028 c 1,73,74
 1730 3010 1730 3010 1684 2935 c 2,75,-1
 1583 2772 l 1,76,-1
 1557 2775 l 1,66,-1
1952 2239 m 0,77,78
 2025 2239 2025 2239 2025 2165 c 256,79,80
 2025 2091 2025 2091 1952 2091 c 0,81,82
 1878 2091 1878 2091 1878 2165 c 256,83,84
 1878 2239 1878 2239 1952 2239 c 0,77,78
EndSplineSet
EndChar

StartChar: A
Encoding: 65 65 36
Width: 0
Flags: W
LayerCount: 2
Fore
SplineSet
-310 1970 m 0,0,1
 -308 1970 -308 1970 -308 1967 c 0,2,3
 -308 1965 -308 1965 -310 1965 c 0,4,5
 -313 1965 -313 1965 -313 1967 c 0,6,7
 -313 1970 -313 1970 -310 1970 c 0,0,1
-688 3602 m 1,8,-1
 -688 3489 l 1,9,-1
 -414 3489 l 1,10,-1
 -414 3393 l 1,11,-1
 -811 3393 l 1,12,-1
 -811 3920 l 1,13,-1
 -410 3920 l 1,14,-1
 -411 3836 l 1,15,-1
 -685 3836 l 1,16,-1
 -686 3689 l 1,17,-1
 -479 3689 l 1,18,-1
 -476 3600 l 1,19,-1
 -688 3602 l 1,8,-1
91 3387 m 1,20,-1
 -80 3830 l 1,21,-1
 -266 3394 l 1,22,-1
 -380 3394 l 1,23,-1
 -160 3916 l 1,24,-1
 -8 3916 l 1,25,-1
 213 3387 l 1,26,-1
 91 3387 l 1,20,-1
-877 3395 m 1,27,-1
 -993 3395 l 1,28,-1
 -993 3804 l 1,29,-1
 -1097 3395 l 1,30,-1
 -1222 3395 l 1,31,-1
 -1335 3811 l 1,32,-1
 -1335 3395 l 1,33,-1
 -1444 3395 l 1,34,-1
 -1444 3922 l 1,35,-1
 -1264 3922 l 1,36,-1
 -1165 3500 l 1,37,-1
 -1058 3922 l 1,38,-1
 -877 3922 l 1,39,-1
 -877 3395 l 1,27,-1
EndSplineSet
EndChar

StartChar: B
Encoding: 66 66 37
Width: 0
Flags: W
LayerCount: 2
Fore
SplineSet
-833 3211 m 1,0,1
 -868 3149 -868 3149 -877.5 3088 c 128,-1,2
 -887 3027 -887 3027 -887 2992 c 1,3,4
 -782 3095 -782 3095 -657.5 3042 c 128,-1,5
 -533 2989 -533 2989 -549 2877 c 0,6,7
 -561 2792 -561 2792 -602.5 2734.5 c 128,-1,8
 -644 2677 -644 2677 -789 2682 c 1,9,10
 -879 2684 -879 2684 -918.5 2750.5 c 128,-1,11
 -958 2817 -958 2817 -958 2913 c 0,12,13
 -958 3075 -958 3075 -881.5 3235.5 c 128,-1,14
 -805 3396 -805 3396 -671 3394 c 0,15,16
 -545 3392 -545 3392 -561 3285.5 c 128,-1,17
 -577 3179 -577 3179 -650 3179 c 1,18,19
 -714 3178 -714 3178 -756 3192 c 128,-1,20
 -798 3206 -798 3206 -833 3211 c 1,0,1
-771 3285 m 1,21,22
 -747 3238 -747 3238 -715 3235 c 128,-1,23
 -683 3232 -683 3232 -664 3234 c 1,24,25
 -638 3235 -638 3235 -630.5 3276 c 128,-1,26
 -623 3317 -623 3317 -647 3326 c 1,27,28
 -685 3338 -685 3338 -711 3325 c 128,-1,29
 -737 3312 -737 3312 -771 3285 c 1,21,22
-715 2999 m 0,30,31
 -749 3005 -749 3005 -787.5 2964 c 128,-1,32
 -826 2923 -826 2923 -844 2862 c 1,33,34
 -873 2743 -873 2743 -808 2739 c 1,35,36
 -716 2729 -716 2729 -673 2837 c 0,37,38
 -615 2983 -615 2983 -715 2999 c 0,30,31
8 1970 m 1,39,40
 8 1970 8 1970 9 1968.5 c 128,-1,41
 10 1967 10 1967 10 1967 c 257,42,43
 10 1967 10 1967 9 1966 c 128,-1,44
 8 1965 8 1965 8 1965 c 2,45,46
 7 1965 7 1965 6 1966 c 128,-1,47
 5 1967 5 1967 5 1967 c 1,48,49
 5 1970 5 1970 8 1970 c 1,39,40
EndSplineSet
EndChar

StartChar: C
Encoding: 67 67 38
Width: 0
Flags: W
LayerCount: 2
Fore
SplineSet
-768 2720 m 1,0,1
 -785 2806 -785 2806 -776.5 2869.5 c 128,-1,2
 -768 2933 -768 2933 -820 3074 c 0,3,4
 -830 3101 -830 3101 -837.5 3126.5 c 128,-1,5
 -845 3152 -845 3152 -862 3167 c 1,6,7
 -877 3185 -877 3185 -903 3201 c 1,8,9
 -944 3224 -944 3224 -952 3233 c 0,10,11
 -963 3244 -963 3244 -967.5 3263 c 128,-1,12
 -972 3282 -972 3282 -974 3292 c 0,13,14
 -981 3319 -981 3319 -966 3335 c 1,15,16
 -947 3352 -947 3352 -925 3350 c 0,17,18
 -904 3348 -904 3348 -878 3323 c 0,19,20
 -869 3314 -869 3314 -861.5 3302.5 c 128,-1,21
 -854 3291 -854 3291 -849 3284 c 0,22,23
 -838 3270 -838 3270 -831 3237.5 c 128,-1,24
 -824 3205 -824 3205 -814 3177 c 1,25,26
 -792 3108 -792 3108 -775 3041 c 128,-1,27
 -758 2974 -758 2974 -749 2897 c 1,28,29
 -697 2980 -697 2980 -649 3053 c 128,-1,30
 -601 3126 -601 3126 -570 3259 c 1,31,32
 -564 3299 -564 3299 -571.5 3331 c 128,-1,33
 -579 3363 -579 3363 -565 3369 c 1,34,35
 -487 3317 -487 3317 -488.5 3198.5 c 128,-1,36
 -490 3080 -490 3080 -539 3008 c 0,37,38
 -585 2941 -585 2941 -639 2873.5 c 128,-1,39
 -693 2806 -693 2806 -752 2724 c 1,40,41
 -759 2718 -759 2718 -768 2720 c 1,0,1
13 1970 m 0,42,43
 15 1970 15 1970 15 1967 c 0,44,45
 15 1965 15 1965 13 1965 c 0,46,47
 10 1965 10 1965 10 1967 c 0,48,49
 10 1970 10 1970 13 1970 c 0,42,43
EndSplineSet
EndChar

StartChar: D
Encoding: 68 68 39
Width: 0
Flags: W
LayerCount: 2
Fore
SplineSet
2 1970 m 0,0,1
 4 1970 4 1970 4 1967 c 0,2,3
 4 1965 4 1965 2 1965 c 0,4,5
 -1 1965 -1 1965 -1 1967 c 0,6,7
 -1 1970 -1 1970 2 1970 c 0,0,1
-1209 3389 m 1,8,-1
 -1209 3916 l 1,9,-1
 -1068 3916 l 1,10,-1
 -739 3551 l 1,11,-1
 -739 3916 l 1,12,-1
 -648 3916 l 1,13,-1
 -648 3389 l 1,14,-1
 -738 3389 l 1,15,-1
 -1109 3806 l 1,16,-1
 -1109 3389 l 1,17,-1
 -1209 3389 l 1,8,-1
-573 3394 m 1,18,-1
 -573 3921 l 1,19,-1
 -469 3925 l 1,20,-1
 -468 3717 l 1,21,-1
 -204 3715 l 1,22,-1
 -201 3922 l 1,23,-1
 -102 3921 l 1,24,-1
 -103 3396 l 1,25,-1
 -201 3395 l 1,26,-1
 -200 3611 l 1,27,-1
 -471 3611 l 1,28,-1
 -471 3394 l 1,29,-1
 -573 3394 l 1,18,-1
EndSplineSet
EndChar

StartChar: E
Encoding: 69 69 40
Width: 0
Flags: W
LayerCount: 2
Fore
SplineSet
-1195 3389 m 1,0,-1
 -1195 3916 l 1,1,-1
 -1054 3916 l 1,2,-1
 -725 3551 l 1,3,-1
 -725 3916 l 1,4,-1
 -634 3916 l 1,5,-1
 -634 3389 l 1,6,-1
 -724 3389 l 1,7,-1
 -1095 3806 l 1,8,-1
 -1095 3389 l 1,9,-1
 -1195 3389 l 1,0,-1
-559 3394 m 1,10,-1
 -559 3921 l 1,11,-1
 -455 3925 l 1,12,-1
 -454 3717 l 1,13,-1
 -190 3715 l 1,14,-1
 -187 3922 l 1,15,-1
 -88 3921 l 1,16,-1
 -89 3396 l 1,17,-1
 -187 3395 l 1,18,-1
 -186 3611 l 1,19,-1
 -457 3611 l 1,20,-1
 -457 3394 l 1,21,-1
 -559 3394 l 1,10,-1
EndSplineSet
EndChar

StartChar: F
Encoding: 70 70 41
Width: 0
Flags: W
LayerCount: 2
Fore
SplineSet
745 1970 m 0,0,1
 747 1970 747 1970 747 1967 c 0,2,3
 747 1965 747 1965 745 1965 c 0,4,5
 742 1965 742 1965 742 1967 c 0,6,7
 742 1970 742 1970 745 1970 c 0,0,1
-1434 3394 m 1,8,-1
 -1434 3921 l 1,9,-1
 -823 3921 l 1,10,-1
 -823 3394 l 1,11,-1
 -932 3394 l 1,12,-1
 -927 3798 l 1,13,-1
 -1322 3798 l 1,14,-1
 -1324 3394 l 1,15,-1
 -1434 3394 l 1,8,-1
-194 3394 m 1,16,-1
 -415 3836 l 1,17,-1
 -632 3400 l 1,18,-1
 -755 3400 l 1,19,-1
 -495 3923 l 1,20,-1
 -343 3923 l 1,21,-1
 -71 3393 l 1,22,-1
 -194 3394 l 1,16,-1
-597 3628 m 1,23,-1
 -246 3628 l 1,24,-1
 -204 3554 l 1,25,-1
 -636 3554 l 1,26,-1
 -597 3628 l 1,23,-1
EndSplineSet
EndChar

StartChar: G
Encoding: 71 71 42
Width: 0
Flags: W
LayerCount: 2
Fore
SplineSet
8 1970 m 1,0,1
 8 1970 8 1970 9 1968.5 c 128,-1,2
 10 1967 10 1967 10 1967 c 257,3,4
 10 1967 10 1967 9 1966 c 128,-1,5
 8 1965 8 1965 8 1965 c 2,6,7
 7 1965 7 1965 6 1966 c 128,-1,8
 5 1967 5 1967 5 1967 c 1,9,10
 5 1970 5 1970 8 1970 c 1,0,1
8 1970 m 1,11,12
 8 1970 8 1970 9 1968.5 c 128,-1,13
 10 1967 10 1967 10 1967 c 257,14,15
 10 1967 10 1967 9 1966 c 128,-1,16
 8 1965 8 1965 8 1965 c 2,17,18
 7 1965 7 1965 6 1966 c 128,-1,19
 5 1967 5 1967 5 1967 c 1,20,21
 5 1970 5 1970 8 1970 c 1,11,12
-362 3751.5 m 128,-1,23
 -64 3755 -64 3755 -64 3568 c 128,-1,24
 -64 3381 -64 3381 -362 3381 c 128,-1,25
 -660 3381 -660 3381 -660 3564.5 c 128,-1,22
 -660 3748 -660 3748 -362 3751.5 c 128,-1,23
-362 3460 m 128,-1,27
 -214 3458 -214 3458 -211.5 3567 c 128,-1,28
 -209 3676 -209 3676 -359.5 3675.5 c 128,-1,29
 -510 3675 -510 3675 -510 3568.5 c 128,-1,26
 -510 3462 -510 3462 -362 3460 c 128,-1,27
-490 3734 m 1,30,-1
 -668 3902 l 1,31,-1
 -504 3902 l 1,32,-1
 -358 3734 l 1,33,-1
 -490 3734 l 1,30,-1
-361 3730 m 1,34,-1
 -215 3904 l 1,35,-1
 -57 3904 l 1,36,-1
 -224 3736 l 1,37,-1
 -361 3730 l 1,34,-1
-1217 3469 m 1,38,-1
 -952 3469 l 2,39,40
 -934 3469 -934 3469 -895 3480.5 c 128,-1,41
 -856 3492 -856 3492 -856 3540 c 0,42,43
 -856 3583 -856 3583 -895.5 3600 c 128,-1,44
 -935 3617 -935 3617 -963 3617 c 2,45,-1
 -1217 3617 l 1,46,-1
 -1217 3469 l 1,38,-1
-1350 3385 m 1,47,-1
 -1350 3911 l 1,48,-1
 -957 3911 l 2,49,50
 -905 3911 -905 3911 -823.5 3884 c 128,-1,51
 -742 3857 -742 3857 -742 3776 c 0,52,53
 -742 3700 -742 3700 -833 3664 c 1,54,55
 -790 3653 -790 3653 -751 3622.5 c 128,-1,56
 -712 3592 -712 3592 -712 3536 c 0,57,58
 -712 3433 -712 3433 -799.5 3408.5 c 128,-1,59
 -887 3384 -887 3384 -953 3384 c 2,60,-1
 -1350 3385 l 1,47,-1
-1217 3698 m 1,61,-1
 -974 3698 l 2,62,63
 -949 3698 -949 3698 -916 3707.5 c 128,-1,64
 -883 3717 -883 3717 -883 3759 c 0,65,66
 -883 3810 -883 3810 -917.5 3818.5 c 128,-1,67
 -952 3827 -952 3827 -983 3827 c 2,68,-1
 -1217 3827 l 1,69,-1
 -1217 3698 l 1,61,-1
EndSplineSet
EndChar

StartChar: H
Encoding: 72 72 43
Width: 0
Flags: W
LayerCount: 2
Fore
SplineSet
5 1970 m 0,0,1
 7 1970 7 1970 7 1967 c 0,2,3
 7 1965 7 1965 5 1965 c 0,4,5
 2 1965 2 1965 2 1967 c 0,6,7
 2 1970 2 1970 5 1970 c 0,0,1
5 1970 m 0,8,9
 7 1970 7 1970 7 1967 c 0,10,11
 7 1965 7 1965 5 1965 c 0,12,13
 2 1965 2 1965 2 1967 c 0,14,15
 2 1970 2 1970 5 1970 c 0,8,9
5 1970 m 0,16,17
 7 1970 7 1970 7 1967 c 0,18,19
 7 1965 7 1965 5 1965 c 0,20,21
 2 1965 2 1965 2 1967 c 0,22,23
 2 1970 2 1970 5 1970 c 0,16,17
-1212 3394 m 1,24,-1
 -1212 3920 l 1,25,-1
 -650 3920 l 1,26,-1
 -656 3826 l 1,27,-1
 -1062 3825 l 1,28,-1
 -1062 3394 l 1,29,-1
 -1212 3394 l 1,24,-1
-187 3394 m 1,30,-1
 -408 3836 l 1,31,-1
 -625 3400 l 1,32,-1
 -748 3400 l 1,33,-1
 -488 3923 l 1,34,-1
 -336 3923 l 1,35,-1
 -64 3393 l 1,36,-1
 -187 3394 l 1,30,-1
-590 3628 m 1,37,-1
 -239 3628 l 1,38,-1
 -197 3554 l 1,39,-1
 -629 3554 l 1,40,-1
 -590 3628 l 1,37,-1
EndSplineSet
EndChar

StartChar: I
Encoding: 73 73 44
Width: 0
Flags: W
LayerCount: 2
Fore
SplineSet
576 1970 m 0,0,1
 578 1970 578 1970 578 1967 c 0,2,3
 578 1965 578 1965 576 1965 c 0,4,5
 573 1965 573 1965 573 1967 c 0,6,7
 573 1970 573 1970 576 1970 c 0,0,1
-256 3592 m 1,8,-1
 -256 3486 l 1,9,-1
 162 3489 l 1,10,-1
 164 3394 l 1,11,-1
 -409 3394 l 1,12,-1
 -409 3921 l 1,13,-1
 182 3921 l 1,14,-1
 174 3838 l 1,15,-1
 -263 3836 l 1,16,-1
 -263 3689 l 1,17,-1
 30 3689 l 1,18,-1
 21 3591 l 1,19,-1
 -256 3592 l 1,8,-1
-1048 3558 m 1,20,-1
 -1048 3394 l 1,21,-1
 -1181 3394 l 1,22,-1
 -1181 3921 l 1,23,-1
 -1048 3921 l 1,24,-1
 -1048 3671 l 1,25,-1
 -719 3921 l 1,26,-1
 -543 3921 l 1,27,-1
 -843 3699 l 1,28,-1
 -483 3394 l 1,29,-1
 -660 3394 l 1,30,-1
 -944 3626 l 1,31,-1
 -1048 3558 l 1,20,-1
EndSplineSet
EndChar

StartChar: J
Encoding: 74 74 45
Width: 0
Flags: W
LayerCount: 2
Fore
SplineSet
430 1970 m 0,0,1
 432 1970 432 1970 432 1967 c 0,2,3
 432 1965 432 1965 430 1965 c 0,4,5
 427 1965 427 1965 427 1967 c 0,6,7
 427 1970 427 1970 430 1970 c 0,0,1
-407 3394 m 2,8,-1
 -1126 3394 l 2,9,10
 -1136 3394 -1136 3394 -1139 3414 c 1,11,-1
 -845 3921 l 1,12,-1
 -703 3921 l 1,13,-1
 -399 3417 l 1,14,15
 -392 3411 -392 3411 -397 3402.5 c 128,-1,16
 -402 3394 -402 3394 -407 3394 c 2,8,-1
-582 3481 m 1,17,-1
 -800 3831 l 1,18,-1
 -997 3481 l 1,19,-1
 -582 3481 l 1,17,-1
-179 3397 m 1,20,-1
 -295 3396 l 1,21,-1
 -295 3924 l 1,22,-1
 -179 3919 l 1,23,-1
 -179 3397 l 1,20,-1
EndSplineSet
EndChar

StartChar: K
Encoding: 75 75 46
Width: 0
Flags: W
LayerCount: 2
Fore
SplineSet
5 1970 m 0,0,1
 7 1970 7 1970 7 1967 c 0,2,3
 7 1965 7 1965 5 1965 c 0,4,5
 2 1965 2 1965 2 1967 c 0,6,7
 2 1970 2 1970 5 1970 c 0,0,1
-526 3592 m 1,8,-1
 -526 3486 l 1,9,-1
 -108 3489 l 1,10,-1
 -106 3394 l 1,11,-1
 -679 3394 l 1,12,-1
 -679 3921 l 1,13,-1
 -88 3921 l 1,14,-1
 -96 3838 l 1,15,-1
 -533 3836 l 1,16,-1
 -533 3689 l 1,17,-1
 -240 3689 l 1,18,-1
 -248 3591 l 1,19,-1
 -526 3592 l 1,8,-1
-1318 3558 m 1,20,-1
 -1318 3394 l 1,21,-1
 -1451 3394 l 1,22,-1
 -1451 3921 l 1,23,-1
 -1318 3921 l 1,24,-1
 -1318 3671 l 1,25,-1
 -989 3921 l 1,26,-1
 -813 3921 l 1,27,-1
 -1113 3699 l 1,28,-1
 -753 3394 l 1,29,-1
 -930 3394 l 1,30,-1
 -1214 3626 l 1,31,-1
 -1318 3558 l 1,20,-1
EndSplineSet
EndChar

StartChar: L
Encoding: 76 76 47
Width: 0
Flags: W
LayerCount: 2
Fore
SplineSet
18 1970 m 0,0,1
 20 1970 20 1970 20 1967 c 0,2,3
 20 1965 20 1965 18 1965 c 0,4,5
 15 1965 15 1965 15 1967 c 0,6,7
 15 1970 15 1970 18 1970 c 0,0,1
85.5 3861 m 128,-1,9
 28 3935 28 3935 0 4000 c 1,10,-1
 -35 4000 l 1,11,12
 -70 3925 -70 3925 -127 3854.5 c 128,-1,13
 -184 3784 -184 3784 -293 3686 c 1,14,-1
 -293 3627 l 1,15,16
 -140 3699 -140 3699 -58 3777 c 1,17,-1
 -58 3298 l 1,18,-1
 18 3298 l 1,19,-1
 18 3777 l 1,20,21
 91 3719 91 3719 127 3696.5 c 128,-1,22
 163 3674 163 3674 253 3629 c 1,23,-1
 253 3687 l 1,24,8
 143 3787 143 3787 85.5 3861 c 128,-1,9
-650.5 3950.5 m 128,-1,26
 -352 3954 -352 3954 -352 3754.5 c 128,-1,27
 -352 3555 -352 3555 -650.5 3555 c 128,-1,28
 -949 3555 -949 3555 -949 3751 c 128,-1,25
 -949 3947 -949 3947 -650.5 3950.5 c 128,-1,26
-650.5 3640 m 128,-1,30
 -503 3638 -503 3638 -500 3754 c 128,-1,31
 -497 3870 -497 3870 -647.5 3869.5 c 128,-1,32
 -798 3869 -798 3869 -798 3755.5 c 128,-1,29
 -798 3642 -798 3642 -650.5 3640 c 128,-1,30
-922 3391 m 1,33,-1
 -922 3480 l 1,34,-1
 -379 3480 l 1,35,-1
 -379 3391 l 1,36,-1
 -922 3391 l 1,33,-1
-650.5 3950.5 m 128,-1,38
 -352 3954 -352 3954 -352 3754.5 c 128,-1,39
 -352 3555 -352 3555 -650.5 3555 c 128,-1,40
 -949 3555 -949 3555 -949 3751 c 128,-1,37
 -949 3947 -949 3947 -650.5 3950.5 c 128,-1,38
-650.5 3640 m 128,-1,42
 -503 3638 -503 3638 -500 3754 c 128,-1,43
 -497 3870 -497 3870 -647.5 3869.5 c 128,-1,44
 -798 3869 -798 3869 -798 3755.5 c 128,-1,41
 -798 3642 -798 3642 -650.5 3640 c 128,-1,42
-922 3391 m 1,45,-1
 -922 3480 l 1,46,-1
 -379 3480 l 1,47,-1
 -379 3391 l 1,48,-1
 -922 3391 l 1,45,-1
-1604 3921 m 1,49,-1
 -1058 3921 l 2,50,51
 -1049 3921 -1049 3921 -1051 3904 c 1,52,-1
 -1404 3483 l 1,53,-1
 -1031 3483 l 1,54,-1
 -1049 3394 l 1,55,-1
 -1622 3394 l 1,56,57
 -1629 3395 -1629 3395 -1629 3412 c 1,58,-1
 -1277 3832 l 1,59,-1
 -1627 3832 l 1,60,-1
 -1604 3921 l 1,49,-1
EndSplineSet
EndChar

StartChar: M
Encoding: 77 77 48
Width: 0
Flags: W
LayerCount: 2
Fore
SplineSet
8 1970 m 0,0,1
 10 1970 10 1970 10 1967 c 0,2,3
 10 1965 10 1965 8 1965 c 0,4,5
 5 1965 5 1965 5 1967 c 0,6,7
 5 1970 5 1970 8 1970 c 0,0,1
-541 2786 m 1,8,-1
 -734 3238 l 1,9,-1
 -948 2786 l 1,10,-1
 -541 2786 l 1,8,-1
-432 2719 m 1,11,-1
 -1035 2719 l 1,12,-1
 -718 3393 l 1,13,-1
 -432 2719 l 1,11,-1
EndSplineSet
EndChar

StartChar: N
Encoding: 78 78 49
Width: 0
Flags: W
LayerCount: 2
Fore
SplineSet
8 1970 m 0,0,1
 10 1970 10 1970 10 1967 c 0,2,3
 10 1965 10 1965 8 1965 c 0,4,5
 5 1965 5 1965 5 1967 c 0,6,7
 5 1970 5 1970 8 1970 c 0,0,1
-1067 3237 m 1,8,9
 -800 3238 -800 3238 -713 3258 c 128,-1,10
 -626 3278 -626 3278 -626 3278 c 1,11,-1
 -633 3326 l 1,12,13
 -645 3424 -645 3424 -547 3420 c 0,14,15
 -489 3418 -489 3418 -489.5 3338 c 128,-1,16
 -490 3258 -490 3258 -571 3237 c 0,17,18
 -664 3212 -664 3212 -704 3208.5 c 128,-1,19
 -744 3205 -744 3205 -933 3190 c 1,20,-1
 -933 2731 l 1,21,-1
 -1067 2731 l 1,22,-1
 -1067 3237 l 1,8,9
EndSplineSet
EndChar

StartChar: O
Encoding: 79 79 50
Width: 0
Flags: W
LayerCount: 2
Fore
SplineSet
-235 3950.5 m 128,-1,1
 63 3954 63 3954 63 3754.5 c 128,-1,2
 63 3555 63 3555 -235 3555 c 128,-1,3
 -533 3555 -533 3555 -533 3751 c 128,-1,0
 -533 3947 -533 3947 -235 3950.5 c 128,-1,1
-234.5 3640 m 128,-1,5
 -87 3638 -87 3638 -84 3754 c 128,-1,6
 -81 3870 -81 3870 -231.5 3869.5 c 128,-1,7
 -382 3869 -382 3869 -382 3755.5 c 128,-1,4
 -382 3642 -382 3642 -234.5 3640 c 128,-1,5
-506 3391 m 1,8,-1
 -506 3480 l 1,9,-1
 37 3480 l 1,10,-1
 37 3391 l 1,11,-1
 -506 3391 l 1,8,-1
-1174 3921 m 1,12,-1
 -628 3921 l 2,13,14
 -619 3921 -619 3921 -621 3904 c 1,15,-1
 -974 3483 l 1,16,-1
 -601 3483 l 1,17,-1
 -619 3394 l 1,18,-1
 -1192 3394 l 1,19,20
 -1199 3395 -1199 3395 -1199 3412 c 1,21,-1
 -847 3832 l 1,22,-1
 -1197 3832 l 1,23,-1
 -1174 3921 l 1,12,-1
EndSplineSet
EndChar

StartChar: P
Encoding: 80 80 51
Width: 2199
Flags: W
LayerCount: 2
Fore
SplineSet
1354 2223 m 1,0,-1
 1098 2856 l 1,1,-1
 813 2223 l 1,2,-1
 1354 2223 l 1,0,-1
1550 2091 m 1,3,-1
 681 2091 l 1,4,-1
 1141 3116 l 1,5,-1
 1550 2091 l 1,3,-1
1759 2695 m 0,6,7
 1773 2725 1773 2725 1825 2734 c 128,-1,8
 1877 2743 1877 2743 1901 2672 c 1,9,10
 1910 2642 1910 2642 1897.5 2603 c 128,-1,11
 1885 2564 1885 2564 1869 2543 c 0,12,13
 1820 2482 1820 2482 1805.5 2459.5 c 128,-1,14
 1791 2437 1791 2437 1779 2390 c 0,15,16
 1763 2332 1763 2332 1775 2292 c 128,-1,17
 1787 2252 1787 2252 1794 2235 c 0,18,19
 1811 2195 1811 2195 1854 2202 c 0,20,21
 1878 2205 1878 2205 1907.5 2245.5 c 128,-1,22
 1937 2286 1937 2286 1967 2280 c 0,23,24
 1995 2274 1995 2274 1999 2234 c 128,-1,25
 2003 2194 2003 2194 1978 2146 c 1,26,27
 1948 2091 1948 2091 1897 2091 c 0,28,29
 1883 2091 1883 2091 1849.5 2094.5 c 128,-1,30
 1816 2098 1816 2098 1806 2110 c 0,31,32
 1743 2182 1743 2182 1731 2263 c 1,33,34
 1716 2349 1716 2349 1716 2399 c 128,-1,35
 1716 2449 1716 2449 1722 2525 c 0,36,37
 1729 2631 1729 2631 1759 2695 c 0,6,7
EndSplineSet
EndChar

StartChar: Q
Encoding: 81 81 52
Width: 190
Flags: W
LayerCount: 2
Fore
SplineSet
-2389 3350 m 1,0,1
 -2410 3366 -2410 3366 -2391.5 3380.5 c 128,-1,2
 -2373 3395 -2373 3395 -2346 3395 c 0,3,4
 -2316 3395 -2316 3395 -2261.5 3449 c 128,-1,5
 -2207 3503 -2207 3503 -2190 3583 c 0,6,7
 -2162 3718 -2162 3718 -2332 3804 c 0,8,9
 -2512 3894 -2512 3894 -2803 3923 c 0,10,11
 -2851 3928 -2851 3928 -2910.5 3927.5 c 128,-1,12
 -2970 3927 -2970 3927 -2979 3930 c 0,13,14
 -3004 3939 -3004 3939 -2998 3961.5 c 128,-1,15
 -2992 3984 -2992 3984 -2972 3986 c 1,16,17
 -2951 3987 -2951 3987 -2871 3982.5 c 128,-1,18
 -2791 3978 -2791 3978 -2696 3964 c 0,19,20
 -2588 3948 -2588 3948 -2475 3920.5 c 128,-1,21
 -2362 3893 -2362 3893 -2266 3855 c 0,22,23
 -2157 3812 -2157 3812 -2092 3769.5 c 128,-1,24
 -2027 3727 -2027 3727 -1973 3655 c 0,25,26
 -1918 3582 -1918 3582 -1927.5 3509.5 c 128,-1,27
 -1937 3437 -1937 3437 -1991 3398 c 1,28,29
 -2039 3362 -2039 3362 -2103 3349 c 128,-1,30
 -2167 3336 -2167 3336 -2227 3336 c 0,31,32
 -2284 3336 -2284 3336 -2307 3336 c 128,-1,33
 -2330 3336 -2330 3336 -2389 3350 c 1,0,1
-1311 3336 m 1,34,35
 -1382 3309 -1382 3309 -1550 3338 c 1,36,37
 -1648 3363 -1648 3363 -1724 3404 c 128,-1,38
 -1800 3445 -1800 3445 -1841 3548 c 1,39,40
 -1868 3647 -1868 3647 -1859 3705.5 c 128,-1,41
 -1850 3764 -1850 3764 -1794 3841 c 1,42,43
 -1740 3906 -1740 3906 -1668 3939.5 c 128,-1,44
 -1596 3973 -1596 3973 -1492 3995 c 1,45,46
 -1388 4015 -1388 4015 -1322.5 4014.5 c 128,-1,47
 -1257 4014 -1257 4014 -1182 4011 c 256,48,49
 -1107 4008 -1107 4008 -1043 3999 c 128,-1,50
 -979 3990 -979 3990 -888 3962 c 1,51,52
 -737 3920 -737 3920 -590 3849 c 0,53,54
 -507 3808 -507 3808 -415 3760.5 c 128,-1,55
 -323 3713 -323 3713 -209 3648 c 0,56,57
 -156 3617 -156 3617 -95 3581 c 128,-1,58
 -34 3545 -34 3545 38 3508 c 1,59,60
 93 3474 93 3474 145 3440 c 128,-1,61
 197 3406 197 3406 189 3371.5 c 128,-1,62
 181 3337 181 3337 149 3338.5 c 128,-1,63
 117 3340 117 3340 -50.5 3336.5 c 128,-1,64
 -218 3333 -218 3333 -344 3336 c 1,65,66
 -394 3372 -394 3372 -342.5 3388.5 c 128,-1,67
 -291 3405 -291 3405 -266 3429 c 1,68,69
 -220 3478 -220 3478 -225 3506 c 128,-1,70
 -230 3534 -230 3534 -239.5 3550 c 128,-1,71
 -249 3566 -249 3566 -270 3584 c 128,-1,72
 -291 3602 -291 3602 -372 3657.5 c 128,-1,73
 -453 3713 -453 3713 -573 3775 c 1,74,75
 -680 3822 -680 3822 -742 3851.5 c 128,-1,76
 -804 3881 -804 3881 -942 3919 c 1,77,78
 -1045 3939 -1045 3939 -1150.5 3943.5 c 128,-1,79
 -1256 3948 -1256 3948 -1366 3912 c 1,80,81
 -1442 3879 -1442 3879 -1473.5 3855 c 128,-1,82
 -1505 3831 -1505 3831 -1543 3773 c 1,83,84
 -1576 3717 -1576 3717 -1581 3678 c 128,-1,85
 -1586 3639 -1586 3639 -1583 3588 c 256,86,87
 -1580 3537 -1580 3537 -1570 3513.5 c 128,-1,88
 -1560 3490 -1560 3490 -1543.5 3466 c 128,-1,89
 -1527 3442 -1527 3442 -1502 3422.5 c 128,-1,90
 -1477 3403 -1477 3403 -1425.5 3395 c 128,-1,91
 -1374 3387 -1374 3387 -1323 3381 c 1,92,93
 -1301 3377 -1301 3377 -1295 3362.5 c 128,-1,94
 -1289 3348 -1289 3348 -1311 3336 c 1,34,35
EndSplineSet
EndChar

StartChar: R
Encoding: 82 82 53
Width: 0
Flags: W
LayerCount: 2
Fore
SplineSet
8 1970 m 0,0,1
 10 1970 10 1970 10 1967 c 0,2,3
 10 1965 10 1965 8 1965 c 0,4,5
 5 1965 5 1965 5 1967 c 0,6,7
 5 1970 5 1970 8 1970 c 0,0,1
-1184 3394 m 1,8,-1
 -1184 3921 l 1,9,-1
 -573 3921 l 1,10,-1
 -573 3394 l 1,11,-1
 -682 3394 l 1,12,-1
 -677 3798 l 1,13,-1
 -1072 3798 l 1,14,-1
 -1074 3394 l 1,15,-1
 -1184 3394 l 1,8,-1
55 3394 m 1,16,-1
 -165 3836 l 1,17,-1
 -382 3400 l 1,18,-1
 -505 3400 l 1,19,-1
 -245 3923 l 1,20,-1
 -93 3923 l 1,21,-1
 178 3393 l 1,22,-1
 55 3394 l 1,16,-1
-347 3628 m 1,23,-1
 3 3628 l 1,24,-1
 45 3554 l 1,25,-1
 -386 3554 l 1,26,-1
 -347 3628 l 1,23,-1
EndSplineSet
EndChar

StartChar: S
Encoding: 83 83 54
Width: 0
Flags: W
LayerCount: 2
Fore
SplineSet
96 1970 m 0,0,1
 98 1970 98 1970 98 1967 c 0,2,3
 98 1965 98 1965 96 1965 c 0,4,5
 93 1965 93 1965 93 1967 c 0,6,7
 93 1970 93 1970 96 1970 c 0,0,1
-1429 3921 m 1,8,-1
 -766 3921 l 2,9,10
 -756 3921 -756 3921 -758 3904 c 1,11,-1
 -1187 3483 l 1,12,-1
 -733 3483 l 1,13,-1
 -755 3394 l 1,14,-1
 -1451 3394 l 1,15,16
 -1459 3395 -1459 3395 -1459 3412 c 1,17,-1
 -1032 3832 l 1,18,-1
 -1457 3832 l 1,19,-1
 -1429 3921 l 1,8,-1
-372.5 3950.5 m 128,-1,21
 -74 3954 -74 3954 -74 3754.5 c 128,-1,22
 -74 3555 -74 3555 -372.5 3555 c 128,-1,23
 -671 3555 -671 3555 -671 3751 c 128,-1,20
 -671 3947 -671 3947 -372.5 3950.5 c 128,-1,21
-372.5 3640 m 128,-1,25
 -225 3638 -225 3638 -222 3754 c 128,-1,26
 -219 3870 -219 3870 -369.5 3869.5 c 128,-1,27
 -520 3869 -520 3869 -520 3755.5 c 128,-1,24
 -520 3642 -520 3642 -372.5 3640 c 128,-1,25
-644 3391 m 1,28,-1
 -644 3480 l 1,29,-1
 -101 3480 l 1,30,-1
 -101 3391 l 1,31,-1
 -644 3391 l 1,28,-1
-1429 3921 m 1,32,-1
 -766 3921 l 2,33,34
 -756 3921 -756 3921 -758 3904 c 1,35,-1
 -1187 3483 l 1,36,-1
 -733 3483 l 1,37,-1
 -755 3394 l 1,38,-1
 -1451 3394 l 1,39,40
 -1459 3395 -1459 3395 -1459 3412 c 1,41,-1
 -1032 3832 l 1,42,-1
 -1457 3832 l 1,43,-1
 -1429 3921 l 1,32,-1
-372.5 3950.5 m 128,-1,45
 -74 3954 -74 3954 -74 3754.5 c 128,-1,46
 -74 3555 -74 3555 -372.5 3555 c 128,-1,47
 -671 3555 -671 3555 -671 3751 c 128,-1,44
 -671 3947 -671 3947 -372.5 3950.5 c 128,-1,45
-372.5 3640 m 128,-1,49
 -225 3638 -225 3638 -222 3754 c 128,-1,50
 -219 3870 -219 3870 -369.5 3869.5 c 128,-1,51
 -520 3869 -520 3869 -520 3755.5 c 128,-1,48
 -520 3642 -520 3642 -372.5 3640 c 128,-1,49
-644 3391 m 1,52,-1
 -644 3480 l 1,53,-1
 -101 3480 l 1,54,-1
 -101 3391 l 1,55,-1
 -644 3391 l 1,52,-1
EndSplineSet
EndChar

StartChar: T
Encoding: 84 84 55
Width: 0
Flags: W
LayerCount: 2
Fore
SplineSet
8 1970 m 1,0,1
 8 1970 8 1970 9 1968.5 c 128,-1,2
 10 1967 10 1967 10 1967 c 257,3,4
 10 1967 10 1967 9 1966 c 128,-1,5
 8 1965 8 1965 8 1965 c 2,6,7
 7 1965 7 1965 6 1966 c 128,-1,8
 5 1967 5 1967 5 1967 c 1,9,10
 5 1970 5 1970 8 1970 c 1,0,1
8 1970 m 1,11,12
 8 1970 8 1970 9 1968.5 c 128,-1,13
 10 1967 10 1967 10 1967 c 257,14,15
 10 1967 10 1967 9 1966 c 128,-1,16
 8 1965 8 1965 8 1965 c 2,17,18
 7 1965 7 1965 6 1966 c 128,-1,19
 5 1967 5 1967 5 1967 c 1,20,21
 5 1970 5 1970 8 1970 c 1,11,12
-1047 3469 m 1,22,-1
 -782 3469 l 2,23,24
 -764 3469 -764 3469 -725 3480.5 c 128,-1,25
 -686 3492 -686 3492 -686 3540 c 0,26,27
 -686 3583 -686 3583 -725.5 3600 c 128,-1,28
 -765 3617 -765 3617 -793 3617 c 2,29,-1
 -1047 3617 l 1,30,-1
 -1047 3469 l 1,22,-1
-1180 3385 m 1,31,-1
 -1180 3911 l 1,32,-1
 -787 3911 l 2,33,34
 -735 3911 -735 3911 -653.5 3884 c 128,-1,35
 -572 3857 -572 3857 -572 3776 c 0,36,37
 -572 3700 -572 3700 -663 3664 c 1,38,39
 -620 3653 -620 3653 -581 3622.5 c 128,-1,40
 -542 3592 -542 3592 -542 3536 c 0,41,42
 -542 3433 -542 3433 -629.5 3408.5 c 128,-1,43
 -717 3384 -717 3384 -783 3384 c 2,44,-1
 -1180 3385 l 1,31,-1
-1047 3698 m 1,45,-1
 -804 3698 l 2,46,47
 -779 3698 -779 3698 -746 3707.5 c 128,-1,48
 -713 3717 -713 3717 -713 3759 c 0,49,50
 -713 3810 -713 3810 -747.5 3818.5 c 128,-1,51
 -782 3827 -782 3827 -813 3827 c 2,52,-1
 -1047 3827 l 1,53,-1
 -1047 3698 l 1,45,-1
-162.5 3751.5 m 128,-1,55
 135 3755 135 3755 135 3568 c 128,-1,56
 135 3381 135 3381 -162.5 3381 c 128,-1,57
 -460 3381 -460 3381 -460 3564.5 c 128,-1,54
 -460 3748 -460 3748 -162.5 3751.5 c 128,-1,55
-162 3460 m 128,-1,59
 -14 3458 -14 3458 -11.5 3567 c 128,-1,60
 -9 3676 -9 3676 -159.5 3675.5 c 128,-1,61
 -310 3675 -310 3675 -310 3568.5 c 128,-1,58
 -310 3462 -310 3462 -162 3460 c 128,-1,59
-290 3734 m 1,62,-1
 -468 3902 l 1,63,-1
 -304 3902 l 1,64,-1
 -158 3734 l 1,65,-1
 -290 3734 l 1,62,-1
-161 3730 m 1,66,-1
 -15 3904 l 1,67,-1
 142 3904 l 1,68,-1
 -24 3736 l 1,69,-1
 -161 3730 l 1,66,-1
EndSplineSet
EndChar

StartChar: U
Encoding: 85 85 56
Width: 0
Flags: W
LayerCount: 2
Fore
SplineSet
850 1970 m 0,0,1
 852 1970 852 1970 852 1967 c 0,2,3
 852 1965 852 1965 850 1965 c 0,4,5
 847 1965 847 1965 847 1967 c 0,6,7
 847 1970 847 1970 850 1970 c 0,0,1
-467 3394 m 2,8,-1
 -1186 3394 l 2,9,10
 -1196 3394 -1196 3394 -1199 3414 c 1,11,-1
 -905 3921 l 1,12,-1
 -763 3921 l 1,13,-1
 -459 3417 l 1,14,15
 -452 3411 -452 3411 -457 3402.5 c 128,-1,16
 -462 3394 -462 3394 -467 3394 c 2,8,-1
-642 3481 m 1,17,-1
 -860 3831 l 1,18,-1
 -1057 3481 l 1,19,-1
 -642 3481 l 1,17,-1
-232 3397 m 1,20,-1
 -355 3396 l 1,21,-1
 -355 3917 l 1,22,-1
 -236 3919 l 1,23,-1
 -232 3397 l 1,20,-1
EndSplineSet
EndChar

StartChar: V
Encoding: 86 86 57
Width: 0
Flags: W
LayerCount: 2
Fore
SplineSet
-475 3307 m 1,0,1
 -465 3248 -465 3248 -463.5 3212 c 128,-1,2
 -462 3176 -462 3176 -478 3138 c 1,3,4
 -506 3138 -506 3138 -579.5 3141.5 c 128,-1,5
 -653 3145 -653 3145 -658 3112 c 1,6,7
 -671 3058 -671 3058 -674.5 3032 c 128,-1,8
 -678 3006 -678 3006 -659 2928 c 1,9,10
 -642 2868 -642 2868 -580.5 2888.5 c 128,-1,11
 -519 2909 -519 2909 -473 2914 c 1,12,13
 -467 2875 -467 2875 -483.5 2818.5 c 128,-1,14
 -500 2762 -500 2762 -514 2747 c 0,15,16
 -548 2711 -548 2711 -590 2711 c 0,17,18
 -612 2711 -612 2711 -636 2734.5 c 128,-1,19
 -660 2758 -660 2758 -668 2778 c 1,20,21
 -695 2857 -695 2857 -710 2967 c 128,-1,22
 -725 3077 -725 3077 -686 3151 c 1,23,-1
 -861 3159 l 1,24,25
 -869 3006 -869 3006 -878 2945 c 128,-1,26
 -887 2884 -887 2884 -911 2793 c 0,27,28
 -932 2711 -932 2711 -991 2711 c 0,29,30
 -1016 2711 -1016 2711 -1034 2729 c 0,31,32
 -1047 2743 -1047 2743 -1047 2771 c 0,33,34
 -1047 2777 -1047 2777 -1043.5 2789 c 128,-1,35
 -1040 2801 -1040 2801 -1040 2803 c 0,36,37
 -1040 2808 -1040 2808 -1025 2828 c 128,-1,38
 -1010 2848 -1010 2848 -1003 2856 c 1,39,40
 -990 2875 -990 2875 -970 2891 c 128,-1,41
 -950 2907 -950 2907 -937 2939 c 1,42,43
 -923 2970 -923 2970 -905 3064.5 c 128,-1,44
 -887 3159 -887 3159 -937 3159 c 0,45,46
 -975 3159 -975 3159 -1006 3147 c 1,47,48
 -1041 3130 -1041 3130 -1073 3084 c 1,49,-1
 -1095 3084 l 1,50,51
 -1079 3183 -1079 3183 -1058.5 3232.5 c 128,-1,52
 -1038 3282 -1038 3282 -1020 3298 c 0,53,54
 -986 3328 -986 3328 -925 3328 c 0,55,56
 -821 3328 -821 3328 -700 3317.5 c 128,-1,57
 -579 3307 -579 3307 -475 3307 c 1,0,1
8 1970 m 0,58,59
 10 1970 10 1970 10 1967 c 0,60,61
 10 1965 10 1965 8 1965 c 0,62,63
 5 1965 5 1965 5 1967 c 0,64,65
 5 1970 5 1970 8 1970 c 0,58,59
EndSplineSet
EndChar

StartChar: W
Encoding: 87 87 58
Width: 380
Flags: W
LayerCount: 2
Fore
SplineSet
64 4605 m 1,0,1
 94 4600 94 4600 90.5 4577 c 128,-1,2
 87 4554 87 4554 53 4551 c 1,3,4
 16 4539 16 4539 10.5 4494 c 128,-1,5
 5 4449 5 4449 -16 4371 c 0,6,7
 -68 4174 -68 4174 -132.5 4087.5 c 128,-1,8
 -197 4001 -197 4001 -260 3977 c 0,9,10
 -464 3899 -464 3899 -625 3899 c 1,11,12
 -590 3822 -590 3822 -515 3802 c 128,-1,13
 -440 3782 -440 3782 -476 3748 c 0,14,15
 -495 3729 -495 3729 -588 3787.5 c 128,-1,16
 -681 3846 -681 3846 -735 3912 c 1,17,18
 -735 3954 -735 3954 -697 3947 c 128,-1,19
 -659 3940 -659 3940 -617 3938 c 0,20,21
 -573 3935 -573 3935 -527 3942.5 c 128,-1,22
 -481 3950 -481 3950 -408 3984 c 0,23,24
 -333 4018 -333 4018 -318 4101.5 c 128,-1,25
 -303 4185 -303 4185 -285 4269 c 0,26,27
 -267 4352 -267 4352 -255 4461.5 c 128,-1,28
 -243 4571 -243 4571 -168 4580 c 0,29,30
 -110 4587 -110 4587 -51.5 4593 c 128,-1,31
 7 4599 7 4599 64 4605 c 1,0,1
-2281 3671 m 128,-1,33
 -2271 3687 -2271 3687 -2258.5 3688.5 c 128,-1,34
 -2246 3690 -2246 3690 -2231 3681.5 c 128,-1,35
 -2216 3673 -2216 3673 -2195 3662 c 128,-1,36
 -2174 3651 -2174 3651 -2140 3644.5 c 128,-1,37
 -2106 3638 -2106 3638 -2046 3638 c 2,38,-1
 -21 3638 l 2,39,40
 36 3638 36 3638 81 3628.5 c 128,-1,41
 126 3619 126 3619 164 3599.5 c 128,-1,42
 202 3580 202 3580 222.5 3564 c 128,-1,43
 243 3548 243 3548 279.5 3510.5 c 128,-1,44
 316 3473 316 3473 342 3436.5 c 128,-1,45
 368 3400 368 3400 352 3367 c 1,46,47
 337 3343 337 3343 316 3356.5 c 128,-1,48
 295 3370 295 3370 267 3380.5 c 128,-1,49
 239 3391 239 3391 206.5 3394.5 c 128,-1,50
 174 3398 174 3398 105 3398 c 2,51,-1
 -1891 3398 l 1,52,53
 -1937 3399 -1937 3399 -1974 3405 c 128,-1,54
 -2011 3411 -2011 3411 -2032 3418 c 128,-1,55
 -2053 3425 -2053 3425 -2076.5 3436 c 128,-1,56
 -2100 3447 -2100 3447 -2126.5 3464.5 c 128,-1,57
 -2153 3482 -2153 3482 -2183 3512.5 c 128,-1,58
 -2213 3543 -2213 3543 -2243.5 3583 c 128,-1,59
 -2274 3623 -2274 3623 -2282.5 3639 c 128,-1,32
 -2291 3655 -2291 3655 -2281 3671 c 128,-1,33
EndSplineSet
EndChar

StartChar: X
Encoding: 88 88 59
Width: 0
Flags: W
LayerCount: 2
Fore
SplineSet
-2347 3924 m 1,0,1
 -2702 3904 -2702 3904 -2914 3771 c 128,-1,2
 -3126 3638 -3126 3638 -3312 3326 c 1,3,-1
 -3267 3299 l 1,4,5
 -2985 3636 -2985 3636 -2776 3701.5 c 128,-1,6
 -2567 3767 -2567 3767 -2348 3780 c 1,7,8
 -2051 3755 -2051 3755 -1865 3667 c 128,-1,9
 -1679 3579 -1679 3579 -1460 3299 c 1,10,-1
 -1415 3334 l 1,11,12
 -1646 3686 -1646 3686 -1849.5 3792.5 c 128,-1,13
 -2053 3899 -2053 3899 -2347 3924 c 1,0,1
EndSplineSet
EndChar

StartChar: Y
Encoding: 89 89 60
Width: 0
Flags: W
LayerCount: 2
Fore
SplineSet
31 1970 m 0,0,1
 33 1970 33 1970 33 1967 c 0,2,3
 33 1965 33 1965 31 1965 c 0,4,5
 28 1965 28 1965 28 1967 c 0,6,7
 28 1970 28 1970 31 1970 c 0,0,1
31 1970 m 0,8,9
 33 1970 33 1970 33 1967 c 0,10,11
 33 1965 33 1965 31 1965 c 0,12,13
 28 1965 28 1965 28 1967 c 0,14,15
 28 1970 28 1970 31 1970 c 0,8,9
31 1970 m 0,16,17
 33 1970 33 1970 33 1967 c 0,18,19
 33 1965 33 1965 31 1965 c 0,20,21
 28 1965 28 1965 28 1967 c 0,22,23
 28 1970 28 1970 31 1970 c 0,16,17
-1189 3394 m 1,24,-1
 -1189 3920 l 1,25,-1
 -627 3920 l 1,26,-1
 -633 3826 l 1,27,-1
 -1039 3825 l 1,28,-1
 -1039 3394 l 1,29,-1
 -1189 3394 l 1,24,-1
-164 3394 m 1,30,-1
 -385 3836 l 1,31,-1
 -602 3400 l 1,32,-1
 -725 3400 l 1,33,-1
 -465 3923 l 1,34,-1
 -313 3923 l 1,35,-1
 -41 3393 l 1,36,-1
 -164 3394 l 1,30,-1
-567 3628 m 1,37,-1
 -216 3628 l 1,38,-1
 -174 3554 l 1,39,-1
 -606 3554 l 1,40,-1
 -567 3628 l 1,37,-1
EndSplineSet
EndChar

StartChar: Z
Encoding: 90 90 61
Width: 10
Flags: W
LayerCount: 2
Fore
SplineSet
-3339 4034 m 0,0,1
 -2930 4030 -2930 4030 -2574.5 3858.5 c 128,-1,2
 -2219 3687 -2219 3687 -1988 3339 c 1,3,-1
 -2033 3303 l 1,4,5
 -2252 3580 -2252 3580 -2574 3710 c 128,-1,6
 -2896 3840 -2896 3840 -3241 3840 c 0,7,8
 -3616 3840 -3616 3840 -3885 3730.5 c 128,-1,9
 -4154 3621 -4154 3621 -4400 3303 c 1,10,-1
 -4445 3331 l 1,11,12
 -4287 3616 -4287 3616 -3980 3826.5 c 128,-1,13
 -3673 4037 -3673 4037 -3339 4034 c 0,0,1
EndSplineSet
EndChar

StartChar: bracketleft
Encoding: 91 91 62
Width: 2551
Flags: W
LayerCount: 2
Fore
SplineSet
1321 3057 m 1,0,-1
 916 3057 l 1,1,-1
 916 2237 l 2,2,3
 916 2173 916 2173 937 2146 c 256,4,5
 958 2119 958 2119 1010 2119 c 2,6,-1
 1043 2119 l 1,7,-1
 1043 2091 l 1,8,-1
 673 2091 l 1,9,-1
 673 2119 l 1,10,-1
 694 2119 l 2,11,12
 745 2119 745 2119 768 2146 c 0,13,14
 790 2172 790 2172 790 2236 c 2,15,-1
 790 2971 l 2,16,17
 790 3034 790 3034 769 3061 c 1,18,19
 746 3088 746 3088 694 3088 c 2,20,-1
 673 3088 l 1,21,-1
 673 3116 l 1,22,-1
 1565 3116 l 1,23,-1
 1565 3088 l 1,24,-1
 1544 3088 l 2,25,26
 1491 3088 1491 3088 1470 3061 c 0,27,28
 1448 3034 1448 3034 1448 2971 c 2,29,-1
 1448 2236 l 2,30,31
 1448 2172 1448 2172 1470 2146 c 1,32,33
 1491 2119 1491 2119 1544 2119 c 2,34,-1
 1565 2119 l 1,35,-1
 1565 2091 l 1,36,-1
 1194 2091 l 1,37,-1
 1194 2119 l 1,38,-1
 1224 2119 l 2,39,40
 1276 2119 1276 2119 1299 2147 c 0,41,42
 1321 2173 1321 2173 1321 2236 c 2,43,-1
 1321 3057 l 1,0,-1
2194 2711 m 1,44,45
 2207 2739 2207 2739 2263.5 2737.5 c 128,-1,46
 2320 2736 2320 2736 2320 2697 c 0,47,48
 2320 2674 2320 2674 2292.5 2625.5 c 128,-1,49
 2265 2577 2265 2577 2250 2557 c 1,50,51
 2235 2539 2235 2539 2204 2471 c 128,-1,52
 2173 2403 2173 2403 2143 2340 c 1,53,54
 2143 2329 2143 2329 2152 2302 c 128,-1,55
 2161 2275 2161 2275 2168 2259 c 0,56,57
 2182 2227 2182 2227 2218 2207 c 0,58,59
 2241 2194 2241 2194 2267 2240 c 128,-1,60
 2293 2286 2293 2286 2323 2280 c 0,61,62
 2351 2274 2351 2274 2355 2234 c 128,-1,63
 2359 2194 2359 2194 2334 2146 c 1,64,65
 2304 2091 2304 2091 2253 2091 c 0,66,67
 2216 2091 2216 2091 2197 2113 c 0,68,69
 2167 2146 2167 2146 2145 2190.5 c 128,-1,70
 2123 2235 2123 2235 2108 2277 c 1,71,72
 2033 2181 2033 2181 1981.5 2136 c 128,-1,73
 1930 2091 1930 2091 1867 2091 c 0,74,75
 1747 2091 1747 2091 1696.5 2184 c 128,-1,76
 1646 2277 1646 2277 1658 2397 c 0,77,78
 1668 2507 1668 2507 1743 2616.5 c 128,-1,79
 1818 2726 1818 2726 1954 2714 c 0,80,81
 2017 2708 2017 2708 2060.5 2654 c 128,-1,82
 2104 2600 2104 2600 2111 2537 c 1,83,84
 2131 2585 2131 2585 2148.5 2626.5 c 128,-1,85
 2166 2668 2166 2668 2194 2711 c 1,44,45
1747 2205 m 1,86,87
 1792 2169 1792 2169 1843 2183.5 c 128,-1,88
 1894 2198 1894 2198 1931 2229 c 0,89,90
 1964 2256 1964 2256 2008.5 2322.5 c 128,-1,91
 2053 2389 2053 2389 2068 2433 c 1,92,93
 2074 2454 2074 2454 2072.5 2498 c 128,-1,94
 2071 2542 2071 2542 2056 2572 c 0,95,96
 2024 2633 2024 2633 1948.5 2618.5 c 128,-1,97
 1873 2604 1873 2604 1828 2576 c 0,98,99
 1792 2553 1792 2553 1760.5 2511.5 c 128,-1,100
 1729 2470 1729 2470 1718 2407 c 0,101,102
 1706 2344 1706 2344 1711.5 2285.5 c 128,-1,103
 1717 2227 1717 2227 1747 2205 c 1,86,87
EndSplineSet
EndChar

StartChar: backslash
Encoding: 92 92 63
Width: 2319
Flags: W
LayerCount: 2
Fore
SplineSet
1442 3116 m 1,0,-1
 1449 2870 l 1,1,-1
 1424 2870 l 1,2,3
 1416 2969 1416 2969 1376 3010 c 0,4,5
 1335 3051 1335 3051 1235 3051 c 2,6,-1
 939 3051 l 1,7,-1
 939 2238 l 2,8,9
 939 2172 939 2172 964 2146 c 1,10,11
 988 2119 988 2119 1046 2119 c 2,12,-1
 1083 2119 l 1,13,-1
 1083 2091 l 1,14,-1
 673 2091 l 1,15,-1
 673 2119 l 1,16,-1
 697 2119 l 2,17,18
 756 2119 756 2119 782 2146 c 1,19,20
 807 2174 807 2174 807 2236 c 2,21,-1
 807 2971 l 2,22,23
 807 3034 807 3034 782 3061 c 0,24,25
 756 3088 756 3088 697 3088 c 2,26,-1
 673 3088 l 1,27,-1
 673 3116 l 1,28,-1
 1442 3116 l 1,0,-1
2002 2711 m 1,29,30
 2014 2739 2014 2739 2071 2737.5 c 128,-1,31
 2128 2736 2128 2736 2128 2697 c 0,32,33
 2128 2674 2128 2674 2100 2625.5 c 128,-1,34
 2072 2577 2072 2577 2057 2557 c 0,35,36
 2043 2539 2043 2539 2011.5 2471 c 128,-1,37
 1980 2403 1980 2403 1951 2340 c 1,38,39
 1951 2329 1951 2329 1959.5 2302 c 128,-1,40
 1968 2275 1968 2275 1976 2259 c 1,41,42
 1990 2226 1990 2226 2025 2207 c 0,43,44
 2048 2194 2048 2194 2074 2240 c 128,-1,45
 2100 2286 2100 2286 2130 2280 c 0,46,47
 2158 2274 2158 2274 2162 2234 c 128,-1,48
 2166 2194 2166 2194 2141 2146 c 0,49,50
 2113 2091 2113 2091 2060 2091 c 0,51,52
 2021 2091 2021 2091 2004 2113 c 1,53,54
 1974 2146 1974 2146 1952 2190.5 c 128,-1,55
 1930 2235 1930 2235 1915 2277 c 1,56,57
 1840 2181 1840 2181 1789 2136 c 128,-1,58
 1738 2091 1738 2091 1674 2091 c 0,59,60
 1554 2091 1554 2091 1503.5 2184 c 128,-1,61
 1453 2277 1453 2277 1465 2397 c 0,62,63
 1475 2507 1475 2507 1550 2616.5 c 128,-1,64
 1625 2726 1625 2726 1762 2714 c 0,65,66
 1825 2708 1825 2708 1868 2654 c 128,-1,67
 1911 2600 1911 2600 1918 2537 c 1,68,69
 1938 2585 1938 2585 1955.5 2626.5 c 128,-1,70
 1973 2668 1973 2668 2002 2711 c 1,29,30
1554 2205 m 1,71,72
 1599 2169 1599 2169 1650 2183.5 c 128,-1,73
 1701 2198 1701 2198 1738 2229 c 0,74,75
 1771 2256 1771 2256 1815.5 2322.5 c 128,-1,76
 1860 2389 1860 2389 1875 2433 c 1,77,78
 1881 2454 1881 2454 1879.5 2498 c 128,-1,79
 1878 2542 1878 2542 1863 2572 c 0,80,81
 1831 2633 1831 2633 1756 2618.5 c 128,-1,82
 1681 2604 1681 2604 1636 2576 c 0,83,84
 1600 2553 1600 2553 1568 2511.5 c 128,-1,85
 1536 2470 1536 2470 1525 2407 c 256,86,87
 1514 2344 1514 2344 1519 2285.5 c 128,-1,88
 1524 2227 1524 2227 1554 2205 c 1,71,72
EndSplineSet
EndChar

StartChar: bracketright
Encoding: 93 93 64
Width: 2312
Flags: W
LayerCount: 2
Fore
SplineSet
1285 2614 m 1,0,1
 1380 2591 1380 2591 1426 2541 c 0,2,3
 1491 2471 1491 2471 1491 2372 c 0,4,5
 1491 2294 1491 2294 1448 2226 c 1,6,7
 1406 2157 1406 2157 1331 2123 c 1,8,9
 1254 2091 1254 2091 1102 2091 c 2,10,-1
 673 2091 l 1,11,-1
 673 2119 l 1,12,-1
 707 2119 l 2,13,14
 763 2119 763 2119 789 2160 c 0,15,16
 805 2187 805 2187 805 2273 c 2,17,-1
 805 2935 l 2,18,19
 805 3028 805 3028 785 3055 c 1,20,21
 758 3088 758 3088 707 3088 c 2,22,-1
 673 3088 l 1,23,-1
 673 3116 l 1,24,-1
 1066 3116 l 2,25,26
 1175 3116 1175 3116 1243 3098 c 1,27,28
 1342 3070 1342 3070 1396 3001 c 1,29,30
 1449 2931 1449 2931 1449 2842 c 0,31,32
 1449 2765 1449 2765 1407 2704 c 1,33,34
 1363 2642 1363 2642 1285 2614 c 1,35,-1
 1285 2614 l 1,0,1
933 2655 m 1,36,37
 986 2644 986 2644 1058 2644 c 0,38,39
 1157 2644 1157 2644 1207 2668 c 0,40,41
 1256 2692 1256 2692 1282 2741 c 0,42,43
 1309 2790 1309 2790 1309 2848 c 0,44,45
 1309 2937 1309 2937 1244 3002 c 1,46,47
 1176 3066 1176 3066 1053 3066 c 0,48,49
 988 3066 988 3066 933 3049 c 1,50,-1
 933 2655 l 1,36,37
933 2165 m 1,51,52
 1013 2145 1013 2145 1085 2145 c 0,53,54
 1208 2145 1208 2145 1272 2206 c 0,55,56
 1336 2268 1336 2268 1336 2358 c 0,57,58
 1336 2416 1336 2416 1307 2473 c 0,59,60
 1278 2528 1278 2528 1213 2560 c 0,61,62
 1147 2592 1147 2592 1047 2592 c 0,63,64
 966 2592 966 2592 933 2585 c 1,65,-1
 933 2165 l 1,51,52
1913 2442 m 1,66,-1
 1913 2442 l 1,67,68
 1808 2391 1808 2391 1770 2354 c 1,69,70
 1731 2313 1731 2313 1731 2264 c 0,71,72
 1731 2209 1731 2209 1772 2173 c 0,73,74
 1812 2137 1812 2137 1875 2137 c 0,75,76
 1939 2137 1939 2137 1981 2176 c 0,77,78
 2021 2214 2021 2214 2021 2277 c 0,79,80
 2021 2331 2021 2331 1995 2370 c 1,81,82
 1967 2409 1967 2409 1913 2442 c 1,66,-1
1801 2486 m 1,83,-1
 1800 2486 l 1,84,85
 1715 2528 1715 2528 1679 2573 c 1,86,87
 1639 2620 1639 2620 1639 2677 c 0,88,89
 1639 2696 1639 2696 1644 2718 c 0,90,91
 1649 2738 1649 2738 1658 2756 c 1,92,-1
 1721 2756 l 1,93,94
 1721 2750 1721 2750 1720 2745 c 0,95,96
 1716 2701 1716 2701 1716 2700 c 0,97,98
 1716 2637 1716 2637 1749 2592 c 1,99,100
 1780 2548 1780 2548 1849 2518 c 1,101,102
 1943 2558 1943 2558 1994 2605 c 1,103,104
 2041 2650 2041 2650 2041 2704 c 0,105,106
 2041 2715 2041 2715 2040 2722 c 0,107,108
 2040 2727 2040 2727 2038.5 2735.5 c 128,-1,109
 2037 2744 2037 2744 2037 2756 c 1,110,-1
 2093 2756 l 1,111,112
 2108 2726 2108 2726 2113 2706 c 0,113,114
 2119 2682 2119 2682 2119 2659 c 0,115,116
 2119 2602 2119 2602 2079 2557 c 0,117,118
 2037 2509 2037 2509 1958 2474 c 1,119,120
 2043 2426 2043 2426 2082 2379 c 0,121,122
 2119 2334 2119 2334 2119 2276 c 0,123,124
 2119 2194 2119 2194 2053 2143 c 0,125,126
 1985 2091 1985 2091 1879 2091 c 0,127,128
 1776 2091 1776 2091 1708 2149 c 1,129,130
 1639 2206 1639 2206 1639 2289 c 0,131,132
 1639 2347 1639 2347 1679 2397 c 0,133,134
 1716 2444 1716 2444 1801 2486 c 1,83,-1
EndSplineSet
EndChar

StartChar: asciicircum
Encoding: 94 94 65
Width: 2008
Flags: W
LayerCount: 2
Fore
SplineSet
887 1514 m 1,0,1
 803 1452 803 1452 776 1352 c 1,2,3
 757 1273 757 1273 774 1202 c 0,4,5
 792 1129 792 1129 926 1202 c 1,6,7
 1003 1239 1003 1239 1008 1270 c 0,8,9
 1013 1295 1013 1295 1027 1338 c 0,10,11
 1067 1467 1067 1467 1027 1665 c 1,12,13
 1019 1714 1019 1714 1019 1813 c 256,14,15
 1019 1912 1019 1912 1082 2014 c 0,16,17
 1115 2066 1115 2066 1187 2079 c 0,18,19
 1259 2091 1259 2091 1309 2091 c 0,20,21
 1428 2091 1428 2091 1485 1980 c 1,22,23
 1494 1887 1494 1887 1493 1831 c 1,24,25
 1490 1773 1490 1773 1495 1724 c 1,26,27
 1512 1621 1512 1621 1519 1599 c 1,28,29
 1527 1569 1527 1569 1617 1564 c 1,30,31
 1692 1536 1692 1536 1697 1424 c 0,32,33
 1700 1349 1700 1349 1692.5 1275.5 c 128,-1,34
 1685 1202 1685 1202 1697 1129 c 1,35,36
 1700 1099 1700 1099 1715 1052 c 1,37,38
 1724 1018 1724 1018 1795 994 c 0,39,40
 1816 987 1816 987 1816 987 c 1,41,42
 1816 978 1816 978 1734.5 988 c 128,-1,43
 1653 998 1653 998 1635 1007 c 0,44,45
 1540 1049 1540 1049 1519 1158 c 0,46,47
 1505 1226 1505 1226 1509 1295 c 128,-1,48
 1513 1364 1513 1364 1501 1434 c 0,49,50
 1477 1568 1477 1568 1436 1567 c 1,51,52
 1393 1563 1393 1563 1345 1623 c 1,53,54
 1296 1679 1296 1679 1316 1789 c 1,55,56
 1338 1900 1338 1900 1283 1920 c 0,57,58
 1262 1928 1262 1928 1206 1931 c 1,59,60
 1148 1932 1148 1932 1125 1902 c 1,61,62
 1094 1855 1094 1855 1094 1794 c 1,63,64
 1093 1763 1093 1763 1091.5 1731 c 128,-1,65
 1090 1699 1090 1699 1089 1667 c 1,66,67
 1099 1468 1099 1468 1087 1316 c 1,68,69
 1087 1262 1087 1262 1078 1192 c 0,70,71
 1068 1120 1068 1120 981 1075 c 1,72,73
 811 984 811 984 705 1111 c 1,74,75
 680 1138 680 1138 653 1208 c 1,76,77
 626 1272 626 1272 647 1364 c 1,78,79
 685 1516 685 1516 802 1569 c 1,80,81
 890 1604 890 1604 914 1601 c 0,82,83
 942 1597 942 1597 1001 1600 c 1,84,85
 1052 1568 1052 1568 1002 1563 c 1,86,87
 951 1555 951 1555 887 1514 c 1,0,1
1067 2346 m 256,88,89
 1137 2346 1137 2346 1137 2276 c 256,90,91
 1137 2206 1137 2206 1067 2206 c 256,92,93
 997 2206 997 2206 997 2276 c 256,94,95
 997 2346 997 2346 1067 2346 c 256,88,89
1472 2346 m 0,96,97
 1542 2346 1542 2346 1542 2276 c 256,98,99
 1542 2206 1542 2206 1472 2206 c 0,100,101
 1401 2206 1401 2206 1401 2276 c 256,102,103
 1401 2346 1401 2346 1472 2346 c 0,96,97
1883 3914 m 1,104,105
 1916 3908 1916 3908 1912 3880 c 128,-1,106
 1908 3852 1908 3852 1870 3849 c 1,107,108
 1828 3834 1828 3834 1801.5 3740.5 c 128,-1,109
 1775 3647 1775 3647 1745 3543 c 0,110,111
 1676 3299 1676 3299 1618.5 3147.5 c 128,-1,112
 1561 2996 1561 2996 1509.5 2935 c 128,-1,113
 1458 2874 1458 2874 1386 2843 c 0,114,115
 1275 2795 1275 2795 1167.5 2772 c 128,-1,116
 1060 2749 1060 2749 981 2749 c 1,117,118
 1020 2656 1020 2656 1112 2620.5 c 128,-1,119
 1204 2585 1204 2585 1165 2543 c 1,120,121
 1142 2520 1142 2520 1023 2602.5 c 128,-1,122
 904 2685 904 2685 860 2765 c 1,123,124
 860 2816 860 2816 901.5 2807.5 c 128,-1,125
 943 2799 943 2799 991 2796 c 256,126,127
 1039 2793 1039 2793 1089 2801 c 128,-1,128
 1139 2809 1139 2809 1223 2852 c 0,129,130
 1264 2873 1264 2873 1300.5 2945.5 c 128,-1,131
 1337 3018 1337 3018 1366.5 3106.5 c 128,-1,132
 1396 3195 1396 3195 1416.5 3282 c 128,-1,133
 1437 3369 1437 3369 1470.5 3532.5 c 128,-1,134
 1504 3696 1504 3696 1528 3751.5 c 128,-1,135
 1552 3807 1552 3807 1596 3841.5 c 128,-1,136
 1640 3876 1640 3876 1680 3886 c 128,-1,137
 1720 3896 1720 3896 1769 3901 c 128,-1,138
 1818 3906 1818 3906 1883 3914 c 1,104,105
EndSplineSet
EndChar

StartChar: underscore
Encoding: 95 95 66
Width: 2500
Flags: W
LayerCount: 2
Fore
SplineSet
1321 3057 m 1,0,-1
 916 3057 l 1,1,-1
 916 2237 l 2,2,3
 916 2173 916 2173 937 2146 c 256,4,5
 958 2119 958 2119 1010 2119 c 2,6,-1
 1043 2119 l 1,7,-1
 1043 2091 l 1,8,-1
 673 2091 l 1,9,-1
 673 2119 l 1,10,-1
 694 2119 l 2,11,12
 745 2119 745 2119 768 2146 c 0,13,14
 790 2172 790 2172 790 2236 c 2,15,-1
 790 2971 l 2,16,17
 790 3034 790 3034 769 3061 c 1,18,19
 746 3088 746 3088 694 3088 c 2,20,-1
 673 3088 l 1,21,-1
 673 3116 l 1,22,-1
 1565 3116 l 1,23,-1
 1565 3088 l 1,24,-1
 1544 3088 l 2,25,26
 1491 3088 1491 3088 1470 3061 c 0,27,28
 1448 3034 1448 3034 1448 2971 c 2,29,-1
 1448 2236 l 2,30,31
 1448 2172 1448 2172 1470 2146 c 1,32,33
 1491 2119 1491 2119 1544 2119 c 2,34,-1
 1565 2119 l 1,35,-1
 1565 2091 l 1,36,-1
 1194 2091 l 1,37,-1
 1194 2119 l 1,38,-1
 1224 2119 l 2,39,40
 1276 2119 1276 2119 1299 2147 c 0,41,42
 1321 2173 1321 2173 1321 2236 c 2,43,-1
 1321 3057 l 1,0,-1
2194 2711 m 1,44,45
 2207 2739 2207 2739 2263.5 2737.5 c 128,-1,46
 2320 2736 2320 2736 2320 2697 c 0,47,48
 2320 2674 2320 2674 2292.5 2625.5 c 128,-1,49
 2265 2577 2265 2577 2250 2557 c 1,50,51
 2235 2539 2235 2539 2204 2471 c 128,-1,52
 2173 2403 2173 2403 2143 2340 c 1,53,54
 2143 2329 2143 2329 2152 2302 c 128,-1,55
 2161 2275 2161 2275 2168 2259 c 0,56,57
 2182 2227 2182 2227 2218 2207 c 0,58,59
 2241 2194 2241 2194 2267 2240 c 128,-1,60
 2293 2286 2293 2286 2323 2280 c 0,61,62
 2351 2274 2351 2274 2355 2234 c 128,-1,63
 2359 2194 2359 2194 2334 2146 c 1,64,65
 2304 2091 2304 2091 2253 2091 c 0,66,67
 2216 2091 2216 2091 2197 2113 c 0,68,69
 2167 2146 2167 2146 2145 2190.5 c 128,-1,70
 2123 2235 2123 2235 2108 2277 c 1,71,72
 2033 2181 2033 2181 1981.5 2136 c 128,-1,73
 1930 2091 1930 2091 1867 2091 c 0,74,75
 1747 2091 1747 2091 1696.5 2184 c 128,-1,76
 1646 2277 1646 2277 1658 2397 c 0,77,78
 1668 2507 1668 2507 1743 2616.5 c 128,-1,79
 1818 2726 1818 2726 1954 2714 c 0,80,81
 2017 2708 2017 2708 2060.5 2654 c 128,-1,82
 2104 2600 2104 2600 2111 2537 c 1,83,84
 2131 2585 2131 2585 2148.5 2626.5 c 128,-1,85
 2166 2668 2166 2668 2194 2711 c 1,44,45
1747 2205 m 1,86,87
 1792 2169 1792 2169 1843 2183.5 c 128,-1,88
 1894 2198 1894 2198 1931 2229 c 0,89,90
 1964 2256 1964 2256 2008.5 2322.5 c 128,-1,91
 2053 2389 2053 2389 2068 2433 c 1,92,93
 2074 2454 2074 2454 2072.5 2498 c 128,-1,94
 2071 2542 2071 2542 2056 2572 c 0,95,96
 2024 2633 2024 2633 1948.5 2618.5 c 128,-1,97
 1873 2604 1873 2604 1828 2576 c 0,98,99
 1792 2553 1792 2553 1760.5 2511.5 c 128,-1,100
 1729 2470 1729 2470 1718 2407 c 0,101,102
 1706 2344 1706 2344 1711.5 2285.5 c 128,-1,103
 1717 2227 1717 2227 1747 2205 c 1,86,87
1756 3480 m 1,104,-1
 1358 3571 l 1,105,106
 1358 3566 1358 3566 1357.5 3561 c 128,-1,107
 1357 3556 1357 3556 1357 3551 c 0,108,109
 1357 3465 1357 3465 1417 3405 c 128,-1,110
 1477 3345 1477 3345 1563 3345 c 0,111,112
 1629 3345 1629 3345 1681.5 3383 c 128,-1,113
 1734 3421 1734 3421 1756 3480 c 1,104,-1
2090 3455 m 2,114,115
 2172 3435 2172 3435 2217.5 3483.5 c 128,-1,116
 2263 3532 2263 3532 2193 3556 c 1,117,118
 2153 3568 2153 3568 2166.5 3641.5 c 128,-1,119
 2180 3715 2180 3715 2262 3695 c 0,120,121
 2342 3676 2342 3676 2337 3606 c 128,-1,122
 2332 3536 2332 3536 2314 3493 c 0,123,124
 2304 3469 2304 3469 2235.5 3427 c 128,-1,125
 2167 3385 2167 3385 2079 3406 c 2,126,-1
 1805 3469 l 1,127,128
 1780 3392 1780 3392 1713.5 3342.5 c 128,-1,129
 1647 3293 1647 3293 1563 3293 c 0,130,131
 1456 3293 1456 3293 1380.5 3368.5 c 128,-1,132
 1305 3444 1305 3444 1305 3551 c 0,133,134
 1305 3562 1305 3562 1308 3583 c 1,135,-1
 1036 3646 l 1,136,137
 953 3664 953 3664 907.5 3616 c 128,-1,138
 862 3568 862 3568 933 3545 c 0,139,140
 972 3533 972 3533 958 3459 c 128,-1,141
 944 3385 944 3385 863 3406 c 1,142,143
 782 3425 782 3425 787 3494.5 c 128,-1,144
 792 3564 792 3564 811 3608 c 1,145,146
 820 3632 820 3632 889 3674 c 128,-1,147
 958 3716 958 3716 1047 3696 c 2,148,-1
 1320 3633 l 1,149,150
 1345 3709 1345 3709 1411.5 3758.5 c 128,-1,151
 1478 3808 1478 3808 1563 3808 c 0,152,153
 1669 3808 1669 3808 1744.5 3732.5 c 128,-1,154
 1820 3657 1820 3657 1820 3551 c 0,155,156
 1820 3539 1820 3539 1817 3519 c 1,157,-1
 2090 3455 l 2,114,115
1767 3530 m 1,158,159
 1768 3534 1768 3534 1768 3551 c 0,160,161
 1768 3636 1768 3636 1707.5 3696 c 128,-1,162
 1647 3756 1647 3756 1563 3756 c 0,163,164
 1496 3756 1496 3756 1444 3718 c 128,-1,165
 1392 3680 1392 3680 1370 3622 c 1,166,-1
 1767 3530 l 1,158,159
EndSplineSet
EndChar

StartChar: grave
Encoding: 96 96 67
Width: 3253
Flags: W
LayerCount: 2
Fore
SplineSet
-44 2965 m 1,0,1
 -42 3004 -42 3004 9 3004 c 0,2,3
 42 3004 42 3004 74 2983 c 0,4,5
 112 2958 112 2958 112 2912 c 128,-1,6
 112 2866 112 2866 82 2836 c 0,7,8
 64 2818 64 2818 33.5 2803 c 128,-1,9
 3 2788 3 2788 -23 2791 c 1,10,11
 -33 2794 -33 2794 -34.5 2805 c 128,-1,12
 -36 2816 -36 2816 -29 2820 c 0,13,14
 -23 2823 -23 2823 -10 2825.5 c 128,-1,15
 3 2828 3 2828 6 2830 c 0,16,17
 71 2852 71 2852 73 2908 c 0,18,19
 73 2933 73 2933 60 2942 c 1,20,21
 39 2915 39 2915 -3 2914.5 c 128,-1,22
 -45 2914 -45 2914 -44 2965 c 1,0,1
16 3116 m 0,23,24
 83 3116 83 3116 134.5 3061 c 128,-1,25
 186 3006 186 3006 216 2953 c 1,26,27
 98 3057 98 3057 18 3057 c 0,28,29
 -27 3057 -27 3057 -106 3005 c 128,-1,30
 -185 2953 -185 2953 -185 2953 c 1,31,32
 -82 3116 -82 3116 16 3116 c 0,23,24
397 2951 m 2,33,34
 397 3080 397 3080 277 3080 c 1,35,-1
 277 3116 l 1,36,-1
 625 3116 l 1,37,-1
 625 3080 l 1,38,39
 560 3080 560 3080 543 3044 c 128,-1,40
 526 3008 526 3008 526 2939 c 2,41,-1
 526 2655 l 1,42,-1
 918 2655 l 1,43,-1
 918 2939 l 2,44,45
 918 3080 918 3080 811 3080 c 1,46,-1
 811 3116 l 1,47,-1
 1160 3116 l 1,48,-1
 1160 3080 l 1,49,50
 1052 3080 1052 3080 1052 2915 c 2,51,-1
 1052 2277 l 2,52,53
 1052 2136 1052 2136 1169 2124 c 1,54,-1
 1169 2091 l 1,55,-1
 811 2091 l 1,56,-1
 811 2124 l 1,57,58
 885 2124 885 2124 901.5 2167.5 c 128,-1,59
 918 2211 918 2211 918 2289 c 2,60,-1
 918 2596 l 1,61,-1
 526 2596 l 1,62,-1
 526 2243 l 2,63,64
 526 2168 526 2168 550 2149 c 128,-1,65
 574 2130 574 2130 634 2124 c 1,66,-1
 634 2091 l 1,67,-1
 277 2091 l 1,68,-1
 277 2124 l 1,69,70
 340 2130 340 2130 368.5 2153 c 128,-1,71
 397 2176 397 2176 397 2256 c 2,72,-1
 397 2951 l 2,33,34
1830 2702 m 1,73,-1
 1576 2178 l 1,74,75
 1603 2104 1603 2104 1658 1965.5 c 128,-1,76
 1713 1827 1713 1827 1752 1824 c 0,77,78
 1775 1823 1775 1823 1802 1838.5 c 128,-1,79
 1829 1854 1829 1854 1844 1854 c 0,80,81
 1943 1848 1943 1848 1927 1754.5 c 128,-1,82
 1911 1661 1911 1661 1806 1659 c 0,83,84
 1746 1657 1746 1657 1702 1740 c 1,85,86
 1660 1815 1660 1815 1616 1923.5 c 128,-1,87
 1572 2032 1572 2032 1548 2118 c 1,88,-1
 1355 1694 l 1,89,-1
 1214 1694 l 1,90,-1
 1493 2282 l 1,91,92
 1480 2355 1480 2355 1441.5 2456 c 128,-1,93
 1403 2557 1403 2557 1376 2578 c 0,94,95
 1340 2606 1340 2606 1306 2587 c 0,96,97
 1272 2569 1272 2569 1243.5 2595.5 c 128,-1,98
 1215 2622 1215 2622 1219 2653 c 1,99,100
 1222 2690 1222 2690 1255 2707.5 c 128,-1,101
 1288 2725 1288 2725 1315 2724 c 0,102,103
 1356 2722 1356 2722 1392 2675 c 1,104,105
 1431 2622 1431 2622 1468.5 2511.5 c 128,-1,106
 1506 2401 1506 2401 1528 2344 c 1,107,-1
 1689 2702 l 1,108,-1
 1830 2702 l 1,73,-1
2967 2716 m 1,109,110
 3024 2705 3024 2705 2996.5 2641 c 128,-1,111
 2969 2577 2969 2577 2909 2577 c 0,112,113
 2808 2577 2808 2577 2733 2583 c 128,-1,114
 2658 2589 2658 2589 2619 2507 c 0,115,116
 2592 2448 2592 2448 2592 2383 c 0,117,118
 2592 2212 2592 2212 2771 2212 c 0,119,120
 2807 2212 2807 2212 2843.5 2213.5 c 128,-1,121
 2880 2215 2880 2215 2917 2215 c 0,122,123
 3008 2213 3008 2213 3053 2136 c 0,124,125
 3081 2087 3081 2087 3081 2045 c 0,126,127
 3081 2000 3081 2000 3064 1953 c 1,128,129
 3044 1903 3044 1903 3015 1871 c 0,130,131
 2980 1833 2980 1833 2941 1822 c 0,132,133
 2901 1811 2901 1811 2873 1811 c 0,134,135
 2828 1811 2828 1811 2797 1833 c 1,136,137
 2766 1853 2766 1853 2766 1891 c 0,138,139
 2766 1966 2766 1966 2836 1966 c 0,140,141
 2847 1966 2847 1966 2901 1957 c 0,142,143
 2914 1954 2914 1954 2921 1945 c 128,-1,144
 2928 1936 2928 1936 2937 1936 c 0,145,146
 3019 1936 3019 1936 3019 2018 c 2,147,-1
 3019 2028 l 2,148,149
 3019 2056 3019 2056 2993 2077 c 128,-1,150
 2967 2098 2967 2098 2918 2091 c 0,151,152
 2907 2089 2907 2089 2865.5 2085.5 c 128,-1,153
 2824 2082 2824 2082 2809 2085 c 0,154,155
 2710 2100 2710 2100 2625 2188 c 128,-1,156
 2540 2276 2540 2276 2540 2374 c 0,157,158
 2540 2450 2540 2450 2578 2536 c 0,159,160
 2680 2765 2680 2765 2967 2716 c 1,109,110
2012 2218 m 0,161,162
 2109 2147 2109 2147 2210 2219 c 0,163,164
 2248 2246 2248 2246 2290.5 2290 c 128,-1,165
 2333 2334 2333 2334 2353 2378 c 0,166,167
 2382 2440 2382 2440 2381.5 2496 c 128,-1,168
 2381 2552 2381 2552 2366 2585 c 0,169,170
 2334 2651 2334 2651 2261.5 2647 c 128,-1,171
 2189 2643 2189 2643 2141 2611 c 0,172,173
 2019 2529 2019 2529 1980 2371 c 0,174,175
 1971 2335 1971 2335 1975 2288.5 c 128,-1,176
 1979 2242 1979 2242 2012 2218 c 0,161,162
1900 2409 m 0,177,178
 1900 2529 1900 2529 1974.5 2632.5 c 128,-1,179
 2049 2736 2049 2736 2175 2736 c 0,180,181
 2302 2736 2302 2736 2379 2636.5 c 128,-1,182
 2456 2537 2456 2537 2456 2415 c 0,183,184
 2456 2288 2456 2288 2381 2191 c 128,-1,185
 2306 2094 2306 2094 2179 2094 c 0,186,187
 2050 2094 2050 2094 1975 2189 c 128,-1,188
 1900 2284 1900 2284 1900 2409 c 0,177,178
EndSplineSet
EndChar

StartChar: a
Encoding: 97 97 68
Width: 0
Flags: W
LayerCount: 2
Fore
SplineSet
-310 1970 m 0,0,1
 -308 1970 -308 1970 -308 1967 c 0,2,3
 -308 1965 -308 1965 -310 1965 c 0,4,5
 -313 1965 -313 1965 -313 1967 c 0,6,7
 -313 1970 -313 1970 -310 1970 c 0,0,1
-1598 3612 m 1,8,-1
 -1598 3499 l 1,9,-1
 -1324 3499 l 1,10,-1
 -1324 3403 l 1,11,-1
 -1721 3403 l 1,12,-1
 -1721 3930 l 1,13,-1
 -1320 3930 l 1,14,-1
 -1321 3846 l 1,15,-1
 -1595 3846 l 1,16,-1
 -1596 3699 l 1,17,-1
 -1389 3699 l 1,18,-1
 -1386 3610 l 1,19,-1
 -1598 3612 l 1,8,-1
-819 3397 m 1,20,-1
 -990 3840 l 1,21,-1
 -1176 3404 l 1,22,-1
 -1290 3404 l 1,23,-1
 -1070 3926 l 1,24,-1
 -918 3926 l 1,25,-1
 -696 3397 l 1,26,-1
 -819 3397 l 1,20,-1
-1787 3405 m 1,27,-1
 -1903 3405 l 1,28,-1
 -1903 3814 l 1,29,-1
 -2007 3405 l 1,30,-1
 -2132 3405 l 1,31,-1
 -2245 3821 l 1,32,-1
 -2245 3405 l 1,33,-1
 -2354 3405 l 1,34,-1
 -2354 3932 l 1,35,-1
 -2174 3932 l 1,36,-1
 -2075 3510 l 1,37,-1
 -1968 3932 l 1,38,-1
 -1787 3932 l 1,39,-1
 -1787 3405 l 1,27,-1
EndSplineSet
EndChar

StartChar: b
Encoding: 98 98 69
Width: 0
Flags: W
LayerCount: 2
Fore
SplineSet
8 1970 m 1,0,1
 8 1970 8 1970 9 1968.5 c 128,-1,2
 10 1967 10 1967 10 1967 c 257,3,4
 10 1967 10 1967 9 1966 c 128,-1,5
 8 1965 8 1965 8 1965 c 2,6,7
 7 1965 7 1965 6 1966 c 128,-1,8
 5 1967 5 1967 5 1967 c 1,9,10
 5 1970 5 1970 8 1970 c 1,0,1
-2487 3213 m 1,11,12
 -2521 3151 -2521 3151 -2530 3091 c 128,-1,13
 -2539 3031 -2539 3031 -2539 2995 c 1,14,15
 -2435 3098 -2435 3098 -2311.5 3046 c 128,-1,16
 -2188 2994 -2188 2994 -2205 2881 c 1,17,18
 -2216 2798 -2216 2798 -2257.5 2741 c 128,-1,19
 -2299 2684 -2299 2684 -2443 2688 c 0,20,21
 -2533 2691 -2533 2691 -2571.5 2756.5 c 128,-1,22
 -2610 2822 -2610 2822 -2610 2919 c 0,23,24
 -2610 3077 -2610 3077 -2535 3237 c 128,-1,25
 -2460 3397 -2460 3397 -2326 3396 c 1,26,27
 -2200 3393 -2200 3393 -2216 3287 c 128,-1,28
 -2232 3181 -2232 3181 -2304 3181 c 1,29,30
 -2367 3180 -2367 3180 -2409 3194 c 128,-1,31
 -2451 3208 -2451 3208 -2487 3213 c 1,11,12
-2424 3289 m 1,32,33
 -2401 3240 -2401 3240 -2368.5 3237.5 c 128,-1,34
 -2336 3235 -2336 3235 -2319 3236 c 0,35,36
 -2292 3237 -2292 3237 -2284.5 3278 c 128,-1,37
 -2277 3319 -2277 3319 -2302 3327 c 0,38,39
 -2338 3339 -2338 3339 -2364.5 3326.5 c 128,-1,40
 -2391 3314 -2391 3314 -2424 3289 c 1,32,33
-2368 3003 m 1,41,42
 -2403 3008 -2403 3008 -2441 2968 c 128,-1,43
 -2479 2928 -2479 2928 -2496 2866 c 1,44,45
 -2525 2749 -2525 2749 -2462 2745 c 1,46,47
 -2371 2736 -2371 2736 -2328 2843 c 1,48,49
 -2294 2924 -2294 2924 -2309 2959.5 c 128,-1,50
 -2324 2995 -2324 2995 -2368 3003 c 1,41,42
EndSplineSet
EndChar

StartChar: c
Encoding: 99 99 70
Width: 0
Flags: W
LayerCount: 2
Fore
SplineSet
-2456 2707 m 1,0,1
 -2474 2795 -2474 2795 -2465.5 2859 c 128,-1,2
 -2457 2923 -2457 2923 -2509 3066 c 1,3,4
 -2520 3092 -2520 3092 -2527.5 3117.5 c 128,-1,5
 -2535 3143 -2535 3143 -2551 3160 c 1,6,7
 -2573 3181 -2573 3181 -2597 3196 c 1,8,9
 -2626 3208 -2626 3208 -2643 3225 c 1,10,11
 -2663 3239 -2663 3239 -2666 3252 c 128,-1,12
 -2669 3265 -2669 3265 -2673 3288 c 1,13,14
 -2670 3314 -2670 3314 -2656 3329 c 1,15,16
 -2639 3345 -2639 3345 -2616 3343 c 0,17,18
 -2592 3341 -2592 3341 -2569 3316 c 0,19,20
 -2559 3305 -2559 3305 -2539 3278 c 0,21,22
 -2527 3262 -2527 3262 -2520 3230 c 128,-1,23
 -2513 3198 -2513 3198 -2504 3169 c 0,24,25
 -2455 3024 -2455 3024 -2438 2886 c 1,26,27
 -2385 2970 -2385 2970 -2336.5 3044 c 128,-1,28
 -2288 3118 -2288 3118 -2258 3251 c 1,29,30
 -2251 3292 -2251 3292 -2259 3324 c 128,-1,31
 -2267 3356 -2267 3356 -2253 3363 c 1,32,33
 -2174 3311 -2174 3311 -2175.5 3191 c 128,-1,34
 -2177 3071 -2177 3071 -2227 2999 c 1,35,36
 -2272 2931 -2272 2931 -2327 2862.5 c 128,-1,37
 -2382 2794 -2382 2794 -2441 2712 c 0,38,39
 -2445 2707 -2445 2707 -2456 2707 c 1,0,1
15 1970 m 0,40,41
 17 1970 17 1970 17 1967 c 0,42,43
 17 1965 17 1965 15 1965 c 0,44,45
 12 1965 12 1965 12 1967 c 0,46,47
 12 1970 12 1970 15 1970 c 0,40,41
EndSplineSet
EndChar

StartChar: d
Encoding: 100 100 71
Width: 5
Flags: W
LayerCount: 2
Fore
SplineSet
-2101 3389 m 1,0,-1
 -2101 3916 l 1,1,-1
 -1960 3916 l 1,2,-1
 -1631 3551 l 1,3,-1
 -1631 3916 l 1,4,-1
 -1540 3916 l 1,5,-1
 -1540 3389 l 1,6,-1
 -1630 3389 l 1,7,-1
 -2001 3806 l 1,8,-1
 -2001 3389 l 1,9,-1
 -2101 3389 l 1,0,-1
-1465 3394 m 1,10,-1
 -1465 3921 l 1,11,-1
 -1361 3925 l 1,12,-1
 -1360 3717 l 1,13,-1
 -1096 3715 l 1,14,-1
 -1093 3922 l 1,15,-1
 -994 3921 l 1,16,-1
 -995 3396 l 1,17,-1
 -1093 3395 l 1,18,-1
 -1092 3611 l 1,19,-1
 -1363 3611 l 1,20,-1
 -1363 3394 l 1,21,-1
 -1465 3394 l 1,10,-1
EndSplineSet
EndChar

StartChar: e
Encoding: 101 101 72
Width: 0
Flags: W
LayerCount: 2
Fore
SplineSet
-559 1970 m 0,0,1
 -557 1970 -557 1970 -557 1967 c 0,2,3
 -557 1965 -557 1965 -559 1965 c 0,4,5
 -562 1965 -562 1965 -562 1967 c 0,6,7
 -562 1970 -562 1970 -559 1970 c 0,0,1
-2336 3389 m 1,8,-1
 -2336 3916 l 1,9,-1
 -2195 3916 l 1,10,-1
 -1866 3551 l 1,11,-1
 -1866 3916 l 1,12,-1
 -1775 3916 l 1,13,-1
 -1775 3389 l 1,14,-1
 -1865 3389 l 1,15,-1
 -2236 3806 l 1,16,-1
 -2236 3389 l 1,17,-1
 -2336 3389 l 1,8,-1
-1708 3705 m 1,18,-1
 -1266 3705 l 1,19,-1
 -1266 3636 l 1,20,-1
 -1710 3636 l 1,21,-1
 -1708 3705 l 1,18,-1
EndSplineSet
EndChar

StartChar: f
Encoding: 102 102 73
Width: 0
Flags: W
LayerCount: 2
Fore
SplineSet
-2101 3394 m 1,0,-1
 -2101 3921 l 1,1,-1
 -1490 3921 l 1,2,-1
 -1490 3394 l 1,3,-1
 -1599 3394 l 1,4,-1
 -1594 3798 l 1,5,-1
 -1989 3798 l 1,6,-1
 -1991 3394 l 1,7,-1
 -2101 3394 l 1,0,-1
-861 3394 m 1,8,-1
 -1082 3836 l 1,9,-1
 -1299 3400 l 1,10,-1
 -1422 3400 l 1,11,-1
 -1162 3923 l 1,12,-1
 -1010 3923 l 1,13,-1
 -738 3393 l 1,14,-1
 -861 3394 l 1,8,-1
-1264 3628 m 1,15,-1
 -913 3628 l 1,16,-1
 -871 3554 l 1,17,-1
 -1303 3554 l 1,18,-1
 -1264 3628 l 1,15,-1
EndSplineSet
EndChar

StartChar: g
Encoding: 103 103 74
Width: 0
Flags: W
LayerCount: 2
Fore
SplineSet
-1002 3751.5 m 128,-1,1
 -704 3755 -704 3755 -704 3568 c 128,-1,2
 -704 3381 -704 3381 -1002 3381 c 128,-1,3
 -1300 3381 -1300 3381 -1300 3564.5 c 128,-1,0
 -1300 3748 -1300 3748 -1002 3751.5 c 128,-1,1
-1002 3460 m 128,-1,5
 -854 3458 -854 3458 -851.5 3567 c 128,-1,6
 -849 3676 -849 3676 -999.5 3675.5 c 128,-1,7
 -1150 3675 -1150 3675 -1150 3568.5 c 128,-1,4
 -1150 3462 -1150 3462 -1002 3460 c 128,-1,5
-1130 3734 m 1,8,-1
 -1308 3902 l 1,9,-1
 -1144 3902 l 1,10,-1
 -998 3734 l 1,11,-1
 -1130 3734 l 1,8,-1
-1001 3730 m 1,12,-1
 -855 3904 l 1,13,-1
 -697 3904 l 1,14,-1
 -864 3736 l 1,15,-1
 -1001 3730 l 1,12,-1
-1877 3469 m 1,16,-1
 -1612 3469 l 2,17,18
 -1594 3469 -1594 3469 -1555 3480.5 c 128,-1,19
 -1516 3492 -1516 3492 -1516 3540 c 0,20,21
 -1516 3583 -1516 3583 -1555.5 3600 c 128,-1,22
 -1595 3617 -1595 3617 -1623 3617 c 2,23,-1
 -1877 3617 l 1,24,-1
 -1877 3469 l 1,16,-1
-2010 3385 m 1,25,-1
 -2010 3911 l 1,26,-1
 -1617 3911 l 2,27,28
 -1565 3911 -1565 3911 -1483.5 3884 c 128,-1,29
 -1402 3857 -1402 3857 -1402 3776 c 0,30,31
 -1402 3700 -1402 3700 -1493 3664 c 1,32,33
 -1450 3653 -1450 3653 -1411 3622.5 c 128,-1,34
 -1372 3592 -1372 3592 -1372 3536 c 0,35,36
 -1372 3433 -1372 3433 -1459.5 3408.5 c 128,-1,37
 -1547 3384 -1547 3384 -1613 3384 c 2,38,-1
 -2010 3385 l 1,25,-1
-1877 3698 m 1,39,-1
 -1634 3698 l 2,40,41
 -1609 3698 -1609 3698 -1576 3707.5 c 128,-1,42
 -1543 3717 -1543 3717 -1543 3759 c 0,43,44
 -1543 3810 -1543 3810 -1577.5 3818.5 c 128,-1,45
 -1612 3827 -1612 3827 -1643 3827 c 2,46,-1
 -1877 3827 l 1,47,-1
 -1877 3698 l 1,39,-1
EndSplineSet
EndChar

StartChar: h
Encoding: 104 104 75
Width: 0
Flags: W
LayerCount: 2
Fore
SplineSet
-2102 3394 m 1,0,-1
 -2102 3920 l 1,1,-1
 -1540 3920 l 1,2,-1
 -1546 3826 l 1,3,-1
 -1952 3825 l 1,4,-1
 -1952 3394 l 1,5,-1
 -2102 3394 l 1,0,-1
-1077 3394 m 1,6,-1
 -1298 3836 l 1,7,-1
 -1515 3400 l 1,8,-1
 -1638 3400 l 1,9,-1
 -1378 3923 l 1,10,-1
 -1226 3923 l 1,11,-1
 -954 3393 l 1,12,-1
 -1077 3394 l 1,6,-1
-1480 3628 m 1,13,-1
 -1129 3628 l 1,14,-1
 -1087 3554 l 1,15,-1
 -1519 3554 l 1,16,-1
 -1480 3628 l 1,13,-1
EndSplineSet
EndChar

StartChar: i
Encoding: 105 105 76
Width: 0
Flags: W
LayerCount: 2
Fore
SplineSet
8 1970 m 0,0,1
 10 1970 10 1970 10 1967 c 0,2,3
 10 1965 10 1965 8 1965 c 0,4,5
 5 1965 5 1965 5 1967 c 0,6,7
 5 1970 5 1970 8 1970 c 0,0,1
-1711 3705 m 1,8,-1
 -1269 3705 l 1,9,-1
 -1269 3636 l 1,10,-1
 -1713 3636 l 1,11,-1
 -1711 3705 l 1,8,-1
-2218 3558 m 1,12,-1
 -2218 3394 l 1,13,-1
 -2351 3394 l 1,14,-1
 -2351 3921 l 1,15,-1
 -2218 3921 l 1,16,-1
 -2218 3671 l 1,17,-1
 -1889 3921 l 1,18,-1
 -1713 3921 l 1,19,-1
 -2013 3699 l 1,20,-1
 -1653 3394 l 1,21,-1
 -1830 3394 l 1,22,-1
 -2114 3626 l 1,23,-1
 -2218 3558 l 1,12,-1
EndSplineSet
EndChar

StartChar: j
Encoding: 106 106 77
Width: 2
Flags: W
LayerCount: 2
Fore
SplineSet
-1239 3394 m 2,0,-1
 -1958 3394 l 2,1,2
 -1968 3394 -1968 3394 -1971 3414 c 1,3,-1
 -1677 3921 l 1,4,-1
 -1535 3921 l 1,5,-1
 -1231 3417 l 1,6,7
 -1224 3411 -1224 3411 -1229 3402.5 c 128,-1,8
 -1234 3394 -1234 3394 -1239 3394 c 2,0,-1
-1414 3481 m 1,9,-1
 -1632 3831 l 1,10,-1
 -1829 3481 l 1,11,-1
 -1414 3481 l 1,9,-1
-1004 3397 m 1,12,-1
 -1127 3396 l 1,13,-1
 -1127 3917 l 1,14,-1
 -1008 3919 l 1,15,-1
 -1004 3397 l 1,12,-1
EndSplineSet
EndChar

StartChar: k
Encoding: 107 107 78
Width: 0
Flags: W
LayerCount: 2
Fore
SplineSet
-1968 3558 m 1,0,-1
 -1968 3394 l 1,1,-1
 -2101 3394 l 1,2,-1
 -2101 3921 l 1,3,-1
 -1968 3921 l 1,4,-1
 -1968 3671 l 1,5,-1
 -1639 3921 l 1,6,-1
 -1463 3921 l 1,7,-1
 -1763 3699 l 1,8,-1
 -1403 3394 l 1,9,-1
 -1580 3394 l 1,10,-1
 -1864 3626 l 1,11,-1
 -1968 3558 l 1,0,-1
-1220 3602 m 1,12,-1
 -1220 3489 l 1,13,-1
 -946 3489 l 1,14,-1
 -946 3393 l 1,15,-1
 -1343 3393 l 1,16,-1
 -1343 3920 l 1,17,-1
 -942 3920 l 1,18,-1
 -943 3836 l 1,19,-1
 -1217 3836 l 1,20,-1
 -1218 3689 l 1,21,-1
 -1011 3689 l 1,22,-1
 -1008 3600 l 1,23,-1
 -1220 3602 l 1,12,-1
EndSplineSet
EndChar

StartChar: l
Encoding: 108 108 79
Width: 0
Flags: W
LayerCount: 2
Fore
SplineSet
18 1970 m 0,0,1
 20 1970 20 1970 20 1967 c 0,2,3
 20 1965 20 1965 18 1965 c 0,4,5
 15 1965 15 1965 15 1967 c 0,6,7
 15 1970 15 1970 18 1970 c 0,0,1
-524.5 3861 m 128,-1,9
 -582 3935 -582 3935 -610 4000 c 1,10,-1
 -645 4000 l 1,11,12
 -680 3925 -680 3925 -737 3854.5 c 128,-1,13
 -794 3784 -794 3784 -903 3686 c 1,14,-1
 -903 3627 l 1,15,16
 -750 3699 -750 3699 -668 3777 c 1,17,-1
 -668 3298 l 1,18,-1
 -592 3298 l 1,19,-1
 -592 3777 l 1,20,21
 -519 3719 -519 3719 -483 3696.5 c 128,-1,22
 -447 3674 -447 3674 -357 3629 c 1,23,-1
 -357 3687 l 1,24,8
 -467 3787 -467 3787 -524.5 3861 c 128,-1,9
-2194 3921 m 1,25,-1
 -1648 3921 l 2,26,27
 -1639 3921 -1639 3921 -1641 3904 c 1,28,-1
 -1994 3483 l 1,29,-1
 -1621 3483 l 1,30,-1
 -1639 3394 l 1,31,-1
 -2212 3394 l 1,32,33
 -2219 3395 -2219 3395 -2219 3412 c 1,34,-1
 -1867 3832 l 1,35,-1
 -2217 3832 l 1,36,-1
 -2194 3921 l 1,25,-1
-1260.5 3950.5 m 128,-1,38
 -962 3954 -962 3954 -962 3754.5 c 128,-1,39
 -962 3555 -962 3555 -1260.5 3555 c 128,-1,40
 -1559 3555 -1559 3555 -1559 3751 c 128,-1,37
 -1559 3947 -1559 3947 -1260.5 3950.5 c 128,-1,38
-1260.5 3640 m 128,-1,42
 -1113 3638 -1113 3638 -1110 3754 c 128,-1,43
 -1107 3870 -1107 3870 -1257.5 3869.5 c 128,-1,44
 -1408 3869 -1408 3869 -1408 3755.5 c 128,-1,41
 -1408 3642 -1408 3642 -1260.5 3640 c 128,-1,42
-1532 3391 m 1,45,-1
 -1532 3480 l 1,46,-1
 -989 3480 l 1,47,-1
 -989 3391 l 1,48,-1
 -1532 3391 l 1,45,-1
-1260.5 3950.5 m 128,-1,50
 -962 3954 -962 3954 -962 3754.5 c 128,-1,51
 -962 3555 -962 3555 -1260.5 3555 c 128,-1,52
 -1559 3555 -1559 3555 -1559 3751 c 128,-1,49
 -1559 3947 -1559 3947 -1260.5 3950.5 c 128,-1,50
-1260.5 3640 m 128,-1,54
 -1113 3638 -1113 3638 -1110 3754 c 128,-1,55
 -1107 3870 -1107 3870 -1257.5 3869.5 c 128,-1,56
 -1408 3869 -1408 3869 -1408 3755.5 c 128,-1,53
 -1408 3642 -1408 3642 -1260.5 3640 c 128,-1,54
-1532 3391 m 1,57,-1
 -1532 3480 l 1,58,-1
 -989 3480 l 1,59,-1
 -989 3391 l 1,60,-1
 -1532 3391 l 1,57,-1
EndSplineSet
EndChar

StartChar: m
Encoding: 109 109 80
Width: 0
Flags: W
LayerCount: 2
Fore
SplineSet
8 1970 m 0,0,1
 10 1970 10 1970 10 1967 c 0,2,3
 10 1965 10 1965 8 1965 c 0,4,5
 5 1965 5 1965 5 1967 c 0,6,7
 5 1970 5 1970 8 1970 c 0,0,1
-2227 2805 m 1,8,-1
 -2403 3219 l 1,9,-1
 -2598 2805 l 1,10,-1
 -2227 2805 l 1,8,-1
-2089 2744 m 1,11,-1
 -2678 2744 l 1,12,-1
 -2368 3403 l 1,13,-1
 -2089 2744 l 1,11,-1
EndSplineSet
EndChar

StartChar: n
Encoding: 110 110 81
Width: 0
Flags: W
LayerCount: 2
Fore
SplineSet
8 1970 m 0,0,1
 10 1970 10 1970 10 1967 c 0,2,3
 10 1965 10 1965 8 1965 c 0,4,5
 5 1965 5 1965 5 1967 c 0,6,7
 5 1970 5 1970 8 1970 c 0,0,1
-2675 3264 m 1,8,9
 -2408 3264 -2408 3264 -2321 3284.5 c 128,-1,10
 -2234 3305 -2234 3305 -2234 3305 c 1,11,-1
 -2241 3353 l 1,12,13
 -2253 3451 -2253 3451 -2155 3447 c 0,14,15
 -2097 3445 -2097 3445 -2097.5 3365 c 128,-1,16
 -2098 3285 -2098 3285 -2179 3264 c 0,17,18
 -2272 3239 -2272 3239 -2311.5 3235.5 c 128,-1,19
 -2351 3232 -2351 3232 -2540 3217 c 1,20,-1
 -2540 2758 l 1,21,-1
 -2675 2758 l 1,22,-1
 -2675 3264 l 1,8,9
EndSplineSet
EndChar

StartChar: o
Encoding: 111 111 82
Width: 0
Flags: W
LayerCount: 2
Fore
SplineSet
-1 1970 m 0,0,1
 1 1970 1 1970 1 1967 c 0,2,3
 1 1965 1 1965 -1 1965 c 0,4,5
 -4 1965 -4 1965 -4 1967 c 0,6,7
 -4 1970 -4 1970 -1 1970 c 0,0,1
-2344 3921 m 1,8,-1
 -1798 3921 l 2,9,10
 -1789 3921 -1789 3921 -1791 3904 c 1,11,-1
 -2144 3483 l 1,12,-1
 -1771 3483 l 1,13,-1
 -1789 3394 l 1,14,-1
 -2362 3394 l 1,15,16
 -2369 3395 -2369 3395 -2369 3412 c 1,17,-1
 -2017 3832 l 1,18,-1
 -2367 3832 l 1,19,-1
 -2344 3921 l 1,8,-1
-1711 3705 m 1,20,-1
 -1269 3705 l 1,21,-1
 -1269 3636 l 1,22,-1
 -1713 3636 l 1,23,-1
 -1711 3705 l 1,20,-1
EndSplineSet
EndChar

StartChar: p
Encoding: 112 112 83
Width: 2536
Flags: W
LayerCount: 2
Fore
SplineSet
628 3116 m 1,0,-1
 869 3116 l 1,1,-1
 1413 2347 l 1,2,-1
 1413 2938 l 2,3,4
 1413 3030 1413 3030 1394 3056 c 1,5,6
 1369 3088 1369 3088 1317 3088 c 2,7,-1
 1287 3088 l 1,8,-1
 1287 3116 l 1,9,-1
 1596 3116 l 1,10,-1
 1596 3088 l 1,11,-1
 1564 3088 l 2,12,13
 1508 3088 1508 3088 1484 3048 c 0,14,15
 1470 3023 1470 3023 1470 2938 c 2,16,-1
 1470 2075 l 1,17,-1
 1447 2075 l 1,18,-1
 861 2900 l 1,19,-1
 861 2269 l 2,20,21
 861 2173 861 2173 879 2151 c 1,22,23
 902 2119 902 2119 955 2119 c 2,24,-1
 987 2119 l 1,25,-1
 987 2091 l 1,26,-1
 678 2091 l 1,27,-1
 678 2119 l 1,28,-1
 708 2119 l 2,29,30
 765 2119 765 2119 789 2158 c 0,31,32
 803 2182 803 2182 803 2269 c 2,33,-1
 803 2981 l 1,34,35
 760 3039 760 3039 736 3056 c 1,36,37
 687 3088 687 3088 645 3088 c 2,38,-1
 628 3088 l 1,39,-1
 628 3116 l 1,0,-1
1803 2091 m 1,40,41
 1809 2189 1809 2189 1834 2267 c 128,-1,42
 1859 2345 1859 2345 1859 2408 c 0,43,44
 1859 2488 1859 2488 1834 2546.5 c 128,-1,45
 1809 2605 1809 2605 1758 2605 c 0,46,47
 1683 2605 1683 2605 1673 2537 c 1,48,-1
 1642 2537 l 1,49,50
 1653 2637 1653 2637 1695 2682 c 1,51,52
 1736 2723 1736 2723 1791 2722 c 1,53,54
 1850 2719 1850 2719 1881.5 2623 c 128,-1,55
 1913 2527 1913 2527 1916 2479 c 1,56,57
 1958 2562 1958 2562 2006 2643 c 128,-1,58
 2054 2724 2054 2724 2146 2724 c 0,59,60
 2275 2724 2275 2724 2294.5 2607.5 c 128,-1,61
 2314 2491 2314 2491 2314 2398 c 0,62,63
 2314 2242 2314 2242 2303.5 2082.5 c 128,-1,64
 2293 1923 2293 1923 2303 1773 c 1,65,66
 2306 1701 2306 1701 2282.5 1675.5 c 128,-1,67
 2259 1650 2259 1650 2235 1650 c 0,68,69
 2195 1650 2195 1650 2175 1688 c 128,-1,70
 2155 1726 2155 1726 2161 1765 c 0,71,72
 2179 1889 2179 1889 2199 1964.5 c 128,-1,73
 2219 2040 2219 2040 2249 2212 c 0,74,75
 2251 2224 2251 2224 2257.5 2284 c 128,-1,76
 2264 2344 2264 2344 2265.5 2415 c 128,-1,77
 2267 2486 2267 2486 2258.5 2549.5 c 128,-1,78
 2250 2613 2250 2613 2222 2633 c 0,79,80
 2147 2687 2147 2687 2108 2633 c 128,-1,81
 2069 2579 2069 2579 2037 2521 c 0,82,83
 1986 2428 1986 2428 1960.5 2310.5 c 128,-1,84
 1935 2193 1935 2193 1935 2091 c 1,85,-1
 1803 2091 l 1,40,41
EndSplineSet
EndChar

StartChar: q
Encoding: 113 113 84
Width: 190
Flags: W
LayerCount: 2
Fore
SplineSet
-1310 3406 m 1,0,1
 -1381 3379 -1381 3379 -1549 3408 c 1,2,3
 -1647 3433 -1647 3433 -1723 3474 c 128,-1,4
 -1799 3515 -1799 3515 -1840 3618 c 1,5,6
 -1867 3717 -1867 3717 -1858 3775.5 c 128,-1,7
 -1849 3834 -1849 3834 -1793 3911 c 1,8,9
 -1739 3976 -1739 3976 -1667 4009.5 c 128,-1,10
 -1595 4043 -1595 4043 -1491 4065 c 1,11,12
 -1387 4085 -1387 4085 -1321.5 4084.5 c 128,-1,13
 -1256 4084 -1256 4084 -1181 4081 c 256,14,15
 -1106 4078 -1106 4078 -1042 4069 c 128,-1,16
 -978 4060 -978 4060 -887 4032 c 1,17,18
 -736 3990 -736 3990 -589 3919 c 0,19,20
 -506 3878 -506 3878 -414 3830.5 c 128,-1,21
 -322 3783 -322 3783 -208 3718 c 0,22,23
 -155 3687 -155 3687 -94 3651 c 128,-1,24
 -33 3615 -33 3615 39 3578 c 1,25,26
 94 3544 94 3544 146 3510 c 128,-1,27
 198 3476 198 3476 190 3441.5 c 128,-1,28
 182 3407 182 3407 150 3408.5 c 128,-1,29
 118 3410 118 3410 -49.5 3406.5 c 128,-1,30
 -217 3403 -217 3403 -343 3406 c 1,31,32
 -393 3442 -393 3442 -341.5 3458.5 c 128,-1,33
 -290 3475 -290 3475 -265 3499 c 1,34,35
 -219 3548 -219 3548 -224 3576 c 128,-1,36
 -229 3604 -229 3604 -238.5 3620 c 128,-1,37
 -248 3636 -248 3636 -269 3654 c 128,-1,38
 -290 3672 -290 3672 -371 3727.5 c 128,-1,39
 -452 3783 -452 3783 -572 3845 c 1,40,41
 -679 3892 -679 3892 -741 3921.5 c 128,-1,42
 -803 3951 -803 3951 -941 3989 c 1,43,44
 -1044 4009 -1044 4009 -1149.5 4013.5 c 128,-1,45
 -1255 4018 -1255 4018 -1365 3982 c 1,46,47
 -1441 3949 -1441 3949 -1472.5 3925 c 128,-1,48
 -1504 3901 -1504 3901 -1542 3843 c 1,49,50
 -1575 3787 -1575 3787 -1580 3748 c 128,-1,51
 -1585 3709 -1585 3709 -1582 3658 c 256,52,53
 -1579 3607 -1579 3607 -1569 3583.5 c 128,-1,54
 -1559 3560 -1559 3560 -1542.5 3536 c 128,-1,55
 -1526 3512 -1526 3512 -1501 3492.5 c 128,-1,56
 -1476 3473 -1476 3473 -1424.5 3465 c 128,-1,57
 -1373 3457 -1373 3457 -1322 3451 c 1,58,59
 -1300 3447 -1300 3447 -1294 3432.5 c 128,-1,60
 -1288 3418 -1288 3418 -1310 3406 c 1,0,1
EndSplineSet
EndChar

StartChar: r
Encoding: 114 114 85
Width: 0
Flags: W
LayerCount: 2
Fore
SplineSet
-106 1970 m 0,0,1
 -104 1970 -104 1970 -104 1967 c 0,2,3
 -104 1965 -104 1965 -106 1965 c 0,4,5
 -109 1965 -109 1965 -109 1967 c 0,6,7
 -109 1970 -109 1970 -106 1970 c 0,0,1
-2384 3384 m 1,8,-1
 -2384 3911 l 1,9,-1
 -1773 3911 l 1,10,-1
 -1773 3384 l 1,11,-1
 -1882 3384 l 1,12,-1
 -1877 3788 l 1,13,-1
 -2272 3788 l 1,14,-1
 -2274 3384 l 1,15,-1
 -2384 3384 l 1,8,-1
-1711 3705 m 1,16,-1
 -1269 3705 l 1,17,-1
 -1269 3636 l 1,18,-1
 -1713 3636 l 1,19,-1
 -1711 3705 l 1,16,-1
EndSplineSet
EndChar

StartChar: s
Encoding: 115 115 86
Width: 0
Flags: W
LayerCount: 2
Fore
SplineSet
-2115 3921 m 1,0,-1
 -1452 3921 l 2,1,2
 -1442 3921 -1442 3921 -1444 3904 c 1,3,-1
 -1873 3483 l 1,4,-1
 -1419 3483 l 1,5,-1
 -1441 3394 l 1,6,-1
 -2137 3394 l 1,7,8
 -2145 3395 -2145 3395 -2145 3412 c 1,9,-1
 -1718 3832 l 1,10,-1
 -2143 3832 l 1,11,-1
 -2115 3921 l 1,0,-1
-1058.5 3950.5 m 128,-1,13
 -760 3954 -760 3954 -760 3754.5 c 128,-1,14
 -760 3555 -760 3555 -1058.5 3555 c 128,-1,15
 -1357 3555 -1357 3555 -1357 3751 c 128,-1,12
 -1357 3947 -1357 3947 -1058.5 3950.5 c 128,-1,13
-1058.5 3640 m 128,-1,17
 -911 3638 -911 3638 -908 3754 c 128,-1,18
 -905 3870 -905 3870 -1055.5 3869.5 c 128,-1,19
 -1206 3869 -1206 3869 -1206 3755.5 c 128,-1,16
 -1206 3642 -1206 3642 -1058.5 3640 c 128,-1,17
-1330 3391 m 1,20,-1
 -1330 3480 l 1,21,-1
 -787 3480 l 1,22,-1
 -787 3391 l 1,23,-1
 -1330 3391 l 1,20,-1
-2115 3921 m 1,24,-1
 -1452 3921 l 2,25,26
 -1442 3921 -1442 3921 -1444 3904 c 1,27,-1
 -1873 3483 l 1,28,-1
 -1419 3483 l 1,29,-1
 -1441 3394 l 1,30,-1
 -2137 3394 l 1,31,32
 -2145 3395 -2145 3395 -2145 3412 c 1,33,-1
 -1718 3832 l 1,34,-1
 -2143 3832 l 1,35,-1
 -2115 3921 l 1,24,-1
-1058.5 3950.5 m 128,-1,37
 -760 3954 -760 3954 -760 3754.5 c 128,-1,38
 -760 3555 -760 3555 -1058.5 3555 c 128,-1,39
 -1357 3555 -1357 3555 -1357 3751 c 128,-1,36
 -1357 3947 -1357 3947 -1058.5 3950.5 c 128,-1,37
-1058.5 3640 m 128,-1,41
 -911 3638 -911 3638 -908 3754 c 128,-1,42
 -905 3870 -905 3870 -1055.5 3869.5 c 128,-1,43
 -1206 3869 -1206 3869 -1206 3755.5 c 128,-1,40
 -1206 3642 -1206 3642 -1058.5 3640 c 128,-1,41
-1330 3391 m 1,44,-1
 -1330 3480 l 1,45,-1
 -787 3480 l 1,46,-1
 -787 3391 l 1,47,-1
 -1330 3391 l 1,44,-1
EndSplineSet
EndChar

StartChar: t
Encoding: 116 116 87
Width: 0
Flags: W
LayerCount: 2
Fore
SplineSet
8 1970 m 0,0,1
 10 1970 10 1970 10 1967 c 0,2,3
 10 1965 10 1965 8 1965 c 0,4,5
 5 1965 5 1965 5 1967 c 0,6,7
 5 1970 5 1970 8 1970 c 0,0,1
-1711 3705 m 1,8,-1
 -1269 3705 l 1,9,-1
 -1269 3636 l 1,10,-1
 -1713 3636 l 1,11,-1
 -1711 3705 l 1,8,-1
-2287 3469 m 1,12,-1
 -2022 3469 l 2,13,14
 -2004 3469 -2004 3469 -1965 3480.5 c 128,-1,15
 -1926 3492 -1926 3492 -1926 3540 c 0,16,17
 -1926 3583 -1926 3583 -1965.5 3600 c 128,-1,18
 -2005 3617 -2005 3617 -2033 3617 c 2,19,-1
 -2287 3617 l 1,20,-1
 -2287 3469 l 1,12,-1
-2420 3385 m 1,21,-1
 -2420 3911 l 1,22,-1
 -2027 3911 l 2,23,24
 -1975 3911 -1975 3911 -1893.5 3884 c 128,-1,25
 -1812 3857 -1812 3857 -1812 3776 c 0,26,27
 -1812 3700 -1812 3700 -1903 3664 c 1,28,29
 -1860 3653 -1860 3653 -1821 3622.5 c 128,-1,30
 -1782 3592 -1782 3592 -1782 3536 c 0,31,32
 -1782 3433 -1782 3433 -1869.5 3408.5 c 128,-1,33
 -1957 3384 -1957 3384 -2023 3384 c 2,34,-1
 -2420 3385 l 1,21,-1
-2287 3698 m 1,35,-1
 -2044 3698 l 2,36,37
 -2019 3698 -2019 3698 -1986 3707.5 c 128,-1,38
 -1953 3717 -1953 3717 -1953 3759 c 0,39,40
 -1953 3810 -1953 3810 -1987.5 3818.5 c 128,-1,41
 -2022 3827 -2022 3827 -2053 3827 c 2,42,-1
 -2287 3827 l 1,43,-1
 -2287 3698 l 1,35,-1
EndSplineSet
EndChar

StartChar: u
Encoding: 117 117 88
Width: 0
Flags: W
LayerCount: 2
Fore
SplineSet
8 1970 m 0,0,1
 10 1970 10 1970 10 1967 c 0,2,3
 10 1965 10 1965 8 1965 c 0,4,5
 5 1965 5 1965 5 1967 c 0,6,7
 5 1970 5 1970 8 1970 c 0,0,1
-1886 3481 m 1,8,-1
 -2104 3831 l 1,9,-1
 -2301 3481 l 1,10,-1
 -1886 3481 l 1,8,-1
-1711 3705 m 1,11,-1
 -1269 3705 l 1,12,-1
 -1269 3636 l 1,13,-1
 -1713 3636 l 1,14,-1
 -1711 3705 l 1,11,-1
-1731 3394 m 2,15,-1
 -2450 3394 l 2,16,17
 -2460 3394 -2460 3394 -2463 3414 c 1,18,-1
 -2169 3921 l 1,19,-1
 -2027 3921 l 1,20,-1
 -1723 3417 l 1,21,22
 -1716 3411 -1716 3411 -1721 3402.5 c 128,-1,23
 -1726 3394 -1726 3394 -1731 3394 c 2,15,-1
EndSplineSet
EndChar

StartChar: v
Encoding: 118 118 89
Width: 0
Flags: W
LayerCount: 2
Fore
SplineSet
8 1970 m 0,0,1
 10 1970 10 1970 10 1967 c 0,2,3
 10 1965 10 1965 8 1965 c 0,4,5
 5 1965 5 1965 5 1967 c 0,6,7
 5 1970 5 1970 8 1970 c 0,0,1
-2134 3307 m 1,8,9
 -2125 3248 -2125 3248 -2123 3213 c 128,-1,10
 -2121 3178 -2121 3178 -2137 3140 c 1,11,12
 -2165 3140 -2165 3140 -2237.5 3143 c 128,-1,13
 -2310 3146 -2310 3146 -2315 3114 c 1,14,15
 -2329 3063 -2329 3063 -2330 3026.5 c 128,-1,16
 -2331 2990 -2331 2990 -2316 2932 c 1,17,18
 -2299 2872 -2299 2872 -2238.5 2892 c 128,-1,19
 -2178 2912 -2178 2912 -2132 2918 c 1,20,21
 -2126 2880 -2126 2880 -2141.5 2824 c 128,-1,22
 -2157 2768 -2157 2768 -2173 2753 c 1,23,24
 -2205 2718 -2205 2718 -2248 2718 c 0,25,26
 -2269 2718 -2269 2718 -2293 2740.5 c 128,-1,27
 -2317 2763 -2317 2763 -2324 2784 c 0,28,29
 -2352 2863 -2352 2863 -2366.5 2971 c 128,-1,30
 -2381 3079 -2381 3079 -2343 3151 c 1,31,-1
 -2515 3160 l 1,32,33
 -2524 3008 -2524 3008 -2531 2957.5 c 128,-1,34
 -2538 2907 -2538 2907 -2561 2817 c 1,35,36
 -2580 2736 -2580 2736 -2641 2736 c 0,37,38
 -2664 2736 -2664 2736 -2683 2754 c 1,39,40
 -2696 2768 -2696 2768 -2696 2794 c 0,41,42
 -2696 2801 -2696 2801 -2692.5 2816.5 c 128,-1,43
 -2689 2832 -2689 2832 -2679.5 2844.5 c 128,-1,44
 -2670 2857 -2670 2857 -2653 2872 c 1,45,46
 -2640 2890 -2640 2890 -2622 2900.5 c 128,-1,47
 -2604 2911 -2604 2911 -2591 2943 c 1,48,49
 -2577 2973 -2577 2973 -2559 3066.5 c 128,-1,50
 -2541 3160 -2541 3160 -2591 3160 c 0,51,52
 -2628 3160 -2628 3160 -2659 3148 c 1,53,54
 -2693 3131 -2693 3131 -2725 3086 c 1,55,-1
 -2748 3086 l 1,56,57
 -2731 3184 -2731 3184 -2710.5 3233 c 128,-1,58
 -2690 3282 -2690 3282 -2673 3299 c 1,59,60
 -2639 3327 -2639 3327 -2579 3327 c 0,61,62
 -2477 3327 -2477 3327 -2356.5 3317 c 128,-1,63
 -2236 3307 -2236 3307 -2134 3307 c 1,8,9
EndSplineSet
EndChar

StartChar: w
Encoding: 119 119 90
Width: 349
Flags: W
LayerCount: 2
Fore
SplineSet
-1288 4329 m 1,0,1
 -1257 4329 -1257 4329 -1225 4328.5 c 128,-1,2
 -1193 4328 -1193 4328 -1161 4328 c 0,3,4
 -1127 4327 -1127 4327 -1097 4323.5 c 128,-1,5
 -1067 4320 -1067 4320 -1040 4317 c 0,6,7
 -1002 4313 -1002 4313 -958 4171 c 0,8,9
 -913 4026 -913 4026 -850 3914 c 0,10,11
 -829 3876 -829 3876 -811 3872 c 1,12,13
 -793 3866 -793 3866 -787 3853 c 1,14,15
 -777 3835 -777 3835 -805 3830 c 1,16,17
 -848 3819 -848 3819 -929 3821 c 0,18,19
 -992 3822 -992 3822 -1049 3830 c 1,20,21
 -1102 3851 -1102 3851 -1137 3966 c 0,22,23
 -1175 4092 -1175 4092 -1234 4235 c 0,24,25
 -1235 4238 -1235 4238 -1255 4258 c 1,26,27
 -1272 4273 -1272 4273 -1293 4278 c 0,28,29
 -1323 4284 -1323 4284 -1326 4306 c 0,30,31
 -1329 4329 -1329 4329 -1288 4329 c 1,32,-1
 -1288 4329 l 1,0,1
-2315 3671 m 128,-1,34
 -2305 3687 -2305 3687 -2292.5 3688.5 c 128,-1,35
 -2280 3690 -2280 3690 -2265 3681.5 c 128,-1,36
 -2250 3673 -2250 3673 -2229 3662 c 128,-1,37
 -2208 3651 -2208 3651 -2174 3644.5 c 128,-1,38
 -2140 3638 -2140 3638 -2080 3638 c 2,39,-1
 -55 3638 l 2,40,41
 2 3638 2 3638 47 3628.5 c 128,-1,42
 92 3619 92 3619 130 3599.5 c 128,-1,43
 168 3580 168 3580 188.5 3564 c 128,-1,44
 209 3548 209 3548 245.5 3510.5 c 128,-1,45
 282 3473 282 3473 308 3436.5 c 128,-1,46
 334 3400 334 3400 318 3367 c 1,47,48
 303 3343 303 3343 282 3356.5 c 128,-1,49
 261 3370 261 3370 233 3380.5 c 128,-1,50
 205 3391 205 3391 172.5 3394.5 c 128,-1,51
 140 3398 140 3398 71 3398 c 2,52,-1
 -1925 3398 l 1,53,54
 -1971 3399 -1971 3399 -2008 3405 c 128,-1,55
 -2045 3411 -2045 3411 -2066 3418 c 128,-1,56
 -2087 3425 -2087 3425 -2110.5 3436 c 128,-1,57
 -2134 3447 -2134 3447 -2160.5 3464.5 c 128,-1,58
 -2187 3482 -2187 3482 -2217 3512.5 c 128,-1,59
 -2247 3543 -2247 3543 -2277.5 3583 c 128,-1,60
 -2308 3623 -2308 3623 -2316.5 3639 c 128,-1,33
 -2325 3655 -2325 3655 -2315 3671 c 128,-1,34
EndSplineSet
EndChar

StartChar: x
Encoding: 120 120 91
Width: 0
Flags: W
LayerCount: 2
Fore
SplineSet
-2620 622 m 1,0,1
 -2975 642 -2975 642 -3187 773.5 c 128,-1,2
 -3399 905 -3399 905 -3585 1214 c 1,3,-1
 -3540 1241 l 1,4,5
 -3258 907 -3258 907 -3049 842 c 128,-1,6
 -2840 777 -2840 777 -2621 765 c 1,7,8
 -2324 789 -2324 789 -2138 876.5 c 128,-1,9
 -1952 964 -1952 964 -1733 1241 c 1,10,-1
 -1688 1206 l 1,11,12
 -1919 858 -1919 858 -2122.5 752.5 c 128,-1,13
 -2326 647 -2326 647 -2620 622 c 1,0,1
EndSplineSet
EndChar

StartChar: y
Encoding: 121 121 92
Width: 0
Flags: W
LayerCount: 2
Fore
SplineSet
8 1970 m 0,0,1
 10 1970 10 1970 10 1967 c 0,2,3
 10 1965 10 1965 8 1965 c 0,4,5
 5 1965 5 1965 5 1967 c 0,6,7
 5 1970 5 1970 8 1970 c 0,0,1
-2329 3383 m 1,8,-1
 -2329 3909 l 1,9,-1
 -1767 3909 l 1,10,-1
 -1773 3815 l 1,11,-1
 -2179 3814 l 1,12,-1
 -2179 3383 l 1,13,-1
 -2329 3383 l 1,8,-1
-1711 3705 m 1,14,-1
 -1269 3705 l 1,15,-1
 -1269 3636 l 1,16,-1
 -1713 3636 l 1,17,-1
 -1711 3705 l 1,14,-1
EndSplineSet
EndChar

StartChar: z
Encoding: 122 122 93
Width: 0
Flags: W
LayerCount: 2
Fore
SplineSet
-3329 510 m 0,0,1
 -3663 506 -3663 506 -3970 717.5 c 128,-1,2
 -4277 929 -4277 929 -4435 1214 c 1,3,-1
 -4390 1241 l 1,4,5
 -4144 923 -4144 923 -3875 814 c 128,-1,6
 -3606 705 -3606 705 -3231 705 c 0,7,8
 -2886 705 -2886 705 -2564 834.5 c 128,-1,9
 -2242 964 -2242 964 -2023 1241 c 1,10,-1
 -1978 1206 l 1,11,12
 -2209 858 -2209 858 -2564.5 686.5 c 128,-1,13
 -2920 515 -2920 515 -3329 510 c 0,0,1
EndSplineSet
EndChar

StartChar: braceleft
Encoding: 123 123 94
Width: 2454
Flags: W
LayerCount: 2
Fore
SplineSet
1051 2673 m 1,0,-1
 1351 2284 l 1,1,2
 1415 2199 1415 2199 1482 2157 c 0,3,4
 1535 2123 1535 2123 1589 2119 c 1,5,-1
 1589 2091 l 1,6,-1
 1189 2091 l 1,7,-1
 1189 2119 l 1,8,9
 1224 2119 1224 2119 1241 2134 c 1,10,11
 1257 2150 1257 2150 1257 2168 c 0,12,13
 1257 2183 1257 2183 1250 2199 c 0,14,15
 1248 2203 1248 2203 1212 2253 c 1,16,-1
 968 2575 l 1,17,-1
 921 2518 l 1,18,-1
 921 2273 l 2,19,20
 921 2172 921 2172 940 2150 c 0,21,22
 965 2119 965 2119 1012 2119 c 2,23,-1
 1042 2119 l 1,24,-1
 1042 2091 l 1,25,-1
 681 2091 l 1,26,-1
 681 2119 l 1,27,-1
 712 2119 l 2,28,29
 762 2119 762 2119 787 2156 c 1,30,31
 802 2180 802 2180 802 2273 c 2,32,-1
 802 2935 l 2,33,34
 802 3010 802 3010 794 3038 c 1,35,36
 787 3057 787 3057 769 3070 c 0,37,38
 742 3088 742 3088 712 3088 c 2,39,-1
 681 3088 l 1,40,-1
 681 3116 l 1,41,-1
 1042 3116 l 1,42,-1
 1042 3088 l 1,43,-1
 1012 3088 l 2,44,45
 960 3088 960 3088 937 3051 c 0,46,47
 921 3027 921 3027 921 2935 c 2,48,-1
 921 2621 l 1,49,-1
 1116 2841 l 1,50,51
 1213 2955 1213 2955 1237 3005 c 0,52,53
 1246 3024 1246 3024 1246 3043 c 256,54,55
 1246 3062 1246 3062 1233 3074 c 0,56,57
 1219 3088 1219 3088 1189 3088 c 2,58,-1
 1169 3088 l 1,59,-1
 1169 3116 l 1,60,-1
 1479 3116 l 1,61,-1
 1479 3088 l 1,62,63
 1451 3086 1451 3086 1429 3079 c 256,64,65
 1407 3072 1407 3072 1373 3046 c 0,66,67
 1347 3027 1347 3027 1293 2968 c 0,68,69
 1287 2960 1287 2960 1255.5 2921 c 128,-1,70
 1224 2882 1224 2882 1167 2813 c 2,71,-1
 1051 2673 l 1,0,-1
1862 2435 m 1,72,73
 1810 2454 1810 2454 1770.5 2484 c 128,-1,74
 1731 2514 1731 2514 1731 2576 c 0,75,76
 1731 2663 1731 2663 1813 2698.5 c 128,-1,77
 1895 2734 1895 2734 1967 2734 c 0,78,79
 2007 2734 2007 2734 2071 2723.5 c 128,-1,80
 2135 2713 2135 2713 2162 2677 c 0,81,82
 2182 2652 2182 2652 2182 2629 c 0,83,84
 2182 2575 2182 2575 2125 2575 c 0,85,86
 2080 2575 2080 2575 2053.5 2607 c 128,-1,87
 2027 2639 2027 2639 1962 2639 c 0,88,89
 1796 2639 1796 2639 1796 2544 c 0,90,91
 1796 2469 1796 2469 1917 2453 c 0,92,93
 1923 2452 1923 2452 1952 2462.5 c 128,-1,94
 1981 2473 1981 2473 2026 2474 c 1,95,96
 2081 2474 2081 2474 2079 2431 c 1,97,98
 2075 2390 2075 2390 2017 2390 c 0,99,100
 1978 2390 1978 2390 1954 2400.5 c 128,-1,101
 1930 2411 1930 2411 1921 2411 c 0,102,103
 1863 2411 1863 2411 1823.5 2371 c 128,-1,104
 1784 2331 1784 2331 1784 2275 c 0,105,106
 1784 2214 1784 2214 1847 2193 c 128,-1,107
 1910 2172 1910 2172 1970 2184 c 0,108,109
 2051 2199 2051 2199 2108 2244.5 c 128,-1,110
 2165 2290 2165 2290 2214 2324 c 0,111,112
 2237 2340 2237 2340 2243.5 2327.5 c 128,-1,113
 2250 2315 2250 2315 2229 2245 c 0,114,115
 2211 2187 2211 2187 2160 2149 c 1,116,117
 2122 2122 2122 2122 2082 2106.5 c 128,-1,118
 2042 2091 2042 2091 1983 2091 c 0,119,120
 1905 2091 1905 2091 1815 2131 c 128,-1,121
 1725 2171 1725 2171 1725 2268 c 0,122,123
 1725 2337 1725 2337 1765 2375.5 c 128,-1,124
 1805 2414 1805 2414 1862 2435 c 1,125,-1
 1862 2435 l 1,72,73
EndSplineSet
EndChar

StartChar: braceright
Encoding: 125 125 95
Width: 2641
Flags: W
LayerCount: 2
Fore
SplineSet
1468 3116 m 1,0,-1
 859 2153 l 1,1,-1
 1239 2153 l 2,2,3
 1326 2153 1326 2153 1373 2195 c 0,4,5
 1419 2235 1419 2235 1456 2366 c 1,6,-1
 1479 2362 l 1,7,-1
 1435 2091 l 1,8,-1
 681 2091 l 1,9,-1
 681 2119 l 1,10,-1
 1275 3055 l 1,11,-1
 979 3055 l 2,12,13
 906 3055 906 3055 872 3036 c 1,14,15
 838 3019 838 3019 822 2985 c 1,16,17
 805 2954 805 2954 790 2859 c 1,18,-1
 764 2859 l 1,19,-1
 783 3116 l 1,20,-1
 826 3118 l 1,21,-1
 887 3109 l 1,22,-1
 1468 3116 l 1,0,-1
2147 2733 m 1,23,24
 2245 2733 2245 2733 2309 2671 c 0,25,26
 2444 2542 2444 2542 2444 2380 c 0,27,28
 2444 2295 2444 2295 2412 2230 c 0,29,30
 2385 2174 2385 2174 2332 2132.5 c 128,-1,31
 2279 2091 2279 2091 2215 2091 c 0,32,33
 2150 2091 2150 2091 2111.5 2129.5 c 128,-1,34
 2073 2168 2073 2168 2048 2222 c 1,35,36
 2020 2168 2020 2168 1977 2129.5 c 128,-1,37
 1934 2091 1934 2091 1869 2091 c 0,38,39
 1806 2091 1806 2091 1758.5 2135 c 128,-1,40
 1711 2179 1711 2179 1687 2234 c 1,41,42
 1652 2307 1652 2307 1654 2388 c 1,43,44
 1658 2492 1658 2492 1705 2574 c 0,45,46
 1734 2624 1734 2624 1777 2664 c 0,47,48
 1799 2684 1799 2684 1832.5 2672.5 c 128,-1,49
 1866 2661 1866 2661 1848 2614 c 0,50,51
 1830 2569 1830 2569 1808 2514.5 c 128,-1,52
 1786 2460 1786 2460 1759 2393 c 0,53,54
 1735 2336 1735 2336 1753 2235.5 c 128,-1,55
 1771 2135 1771 2135 1891 2135 c 0,56,57
 1952 2135 1952 2135 1978 2178 c 128,-1,58
 2004 2221 2004 2221 2019 2270 c 1,59,60
 1979 2371 1979 2371 1984 2469 c 0,61,62
 1987 2535 1987 2535 2013 2575 c 1,63,64
 2026 2598 2026 2598 2046 2598 c 256,65,66
 2066 2598 2066 2598 2080 2575 c 0,67,68
 2107 2533 2107 2533 2107 2473 c 0,69,70
 2107 2400 2107 2400 2066 2288 c 1,71,72
 2080 2237 2080 2237 2108.5 2188.5 c 128,-1,73
 2137 2140 2137 2140 2200 2140 c 0,74,75
 2286 2140 2286 2140 2304 2226.5 c 128,-1,76
 2322 2313 2322 2313 2322 2375 c 0,77,78
 2322 2462 2322 2462 2304.5 2517.5 c 128,-1,79
 2287 2573 2287 2573 2261 2624 c 0,80,81
 2230 2685 2230 2685 2147 2710 c 1,82,-1
 2147 2733 l 1,23,24
EndSplineSet
EndChar

StartChar: asciitilde
Encoding: 126 126 96
Width: 1589
Flags: W
LayerCount: 2
Fore
SplineSet
1469 2213 m 1,0,1
 1482 2212 1482 2212 1483 2144 c 128,-1,2
 1484 2076 1484 2076 1466 2030 c 1,3,4
 1432 2030 1432 2030 1345 2034.5 c 128,-1,5
 1258 2039 1258 2039 1254 2000 c 1,6,7
 1246 1939 1246 1939 1234.5 1905.5 c 128,-1,8
 1223 1872 1223 1872 1252 1776 c 0,9,10
 1273 1704 1273 1704 1344.5 1728 c 128,-1,11
 1416 1752 1416 1752 1473 1759 c 1,12,13
 1478 1714 1478 1714 1459 1647 c 128,-1,14
 1440 1580 1440 1580 1424 1562 c 1,15,16
 1383 1520 1383 1520 1334 1520 c 0,17,18
 1307 1520 1307 1520 1279 1547.5 c 128,-1,19
 1251 1575 1251 1575 1243 1599 c 0,20,21
 1209 1692 1209 1692 1191.5 1825.5 c 128,-1,22
 1174 1959 1174 1959 1220 2045 c 1,23,-1
 1015 2055 l 1,24,25
 1004 1875 1004 1875 993.5 1799.5 c 128,-1,26
 983 1724 983 1724 956 1615 c 1,27,28
 931 1520 931 1520 862 1520 c 0,29,30
 832 1520 832 1520 810 1541 c 1,31,32
 794 1558 794 1558 794 1590 c 0,33,34
 794 1598 794 1598 798.5 1611 c 128,-1,35
 803 1624 803 1624 803 1627 c 0,36,37
 803 1633 803 1633 820.5 1656.5 c 128,-1,38
 838 1680 838 1680 847 1691 c 0,39,40
 862 1712 862 1712 885 1731 c 128,-1,41
 908 1750 908 1750 925 1788 c 0,42,43
 941 1824 941 1824 962 1939.5 c 128,-1,44
 983 2055 983 2055 925 2055 c 0,45,46
 876 2055 876 2055 844 2040 c 1,47,48
 804 2023 804 2023 766 1967 c 1,49,-1
 738 1967 l 1,50,51
 757 2084 757 2084 781.5 2133.5 c 128,-1,52
 806 2183 806 2183 828 2203 c 0,53,54
 868 2238 868 2238 938 2238 c 0,55,56
 1060 2238 1060 2238 1191 2223 c 128,-1,57
 1322 2208 1322 2208 1469 2213 c 1,0,1
1136 2861 m 1,58,-1
 875 2413 l 1,59,-1
 738 2413 l 1,60,-1
 1092 3022 l 1,61,62
 1081 3064 1081 3064 1065 3120.5 c 128,-1,63
 1049 3177 1049 3177 1016 3207 c 1,64,65
 998 3222 998 3222 970.5 3229 c 128,-1,66
 943 3236 943 3236 928 3224 c 0,67,68
 914 3212 914 3212 869 3203 c 128,-1,69
 824 3194 824 3194 815 3224 c 1,70,71
 794 3281 794 3281 839.5 3308.5 c 128,-1,72
 885 3336 885 3336 942 3336 c 0,73,74
 1026 3336 1026 3336 1064.5 3252.5 c 128,-1,75
 1103 3169 1103 3169 1117 3118 c 2,76,-1
 1241 2651 l 1,77,78
 1267 2549 1267 2549 1305 2518 c 1,79,80
 1341 2485 1341 2485 1379 2485 c 0,81,82
 1401 2485 1401 2485 1434.5 2492.5 c 128,-1,83
 1468 2500 1468 2500 1479 2510 c 0,84,85
 1493 2523 1493 2523 1492 2523 c 128,-1,86
 1491 2523 1491 2523 1514 2523 c 1,87,88
 1514 2514 1514 2514 1514 2506 c 128,-1,89
 1514 2498 1514 2498 1514 2497 c 0,90,91
 1507 2473 1507 2473 1501.5 2462 c 128,-1,92
 1496 2451 1496 2451 1475 2427 c 1,93,94
 1440 2392 1440 2392 1373 2392 c 0,95,96
 1319 2392 1319 2392 1280 2430 c 1,97,98
 1236 2470 1236 2470 1202 2606 c 1,99,-1
 1136 2861 l 1,58,-1
EndSplineSet
EndChar
